%FSTAX23Y23*%
%MOIN*%
%SFA1B1*%

%IPPOS*%
%ADD94C,0.005000*%
%ADD133C,0.006667*%
%ADD134C,0.004000*%
%LNpms_board_drawing_1-1*%
%LPD*%
G36*
X03805Y02631D02*
X03675D01*
Y02765*
X03805*
Y02631*
G37*
G36*
X03275D02*
X03145D01*
Y02765*
X03275*
Y02631*
G37*
G36*
X03805Y02249D02*
X03675D01*
Y02383*
X03805*
Y02249*
G37*
G36*
X03275D02*
X03145D01*
Y02383*
X03275*
Y02249*
G37*
G36*
X03805Y01868D02*
X03675D01*
Y02002*
X03805*
Y01868*
G37*
G36*
X03275D02*
X03145D01*
Y02002*
X03275*
Y01868*
G37*
G36*
X03805Y01487D02*
X03675D01*
Y01621*
X03805*
Y01487*
G37*
G36*
X03275D02*
X03145D01*
Y01621*
X03275*
Y01487*
G37*
G36*
X03805Y01106D02*
X03675D01*
Y0124*
X03805*
Y01106*
G37*
G36*
X03275D02*
X03145D01*
Y0124*
X03275*
Y01106*
G37*
G36*
X03827Y04428D02*
X03697D01*
Y04562*
X03827*
Y04428*
G37*
G36*
X03297D02*
X03167D01*
Y04562*
X03297*
Y04428*
G37*
G36*
X03827Y04084D02*
X03697D01*
Y04218*
X03827*
Y04084*
G37*
G36*
X03297D02*
X03167D01*
Y04218*
X03297*
Y04084*
G37*
G36*
X03827Y03738D02*
X03697D01*
Y03872*
X03827*
Y03738*
G37*
G36*
X03297D02*
X03167D01*
Y03872*
X03297*
Y03738*
G37*
G36*
X03805Y03393D02*
X03675D01*
Y03527*
X03805*
Y03393*
G37*
G36*
X03275D02*
X03145D01*
Y03527*
X03275*
Y03393*
G37*
G36*
X03805Y03012D02*
X03675D01*
Y03146*
X03805*
Y03012*
G37*
G36*
X03275D02*
X03145D01*
Y03146*
X03275*
Y03012*
G37*
G54D94*
X04386Y04715D02*
Y04755D01*
X04426*
Y04715*
X04386*
Y04515D02*
Y04555D01*
X04426*
Y04515*
X04386*
Y04915D02*
Y04955D01*
X04426*
Y04915*
X04386*
X04389Y04038D02*
Y04078D01*
X04429*
Y04038*
X04389*
Y03838D02*
Y03878D01*
X04429*
Y03838*
X04389*
Y04238D02*
Y04278D01*
X04429*
Y04238*
X04389*
X03232Y04408D02*
X03212Y04448D01*
X03252*
X03232Y04408*
Y04542D02*
X03212Y04582D01*
X03252*
X03232Y04542*
X03762Y04408D02*
X03742Y04448D01*
X03782*
X03762Y04408*
Y04542D02*
X03742Y04582D01*
X03782*
X03762Y04542*
X03232Y04064D02*
X03212Y04104D01*
X03252*
X03232Y04064*
Y04198D02*
X03212Y04238D01*
X03252*
X03232Y04198*
X03762Y04064D02*
X03742Y04104D01*
X03782*
X03762Y04064*
Y04198D02*
X03742Y04238D01*
X03782*
X03762Y04198*
X03232Y03718D02*
X03212Y03758D01*
X03252*
X03232Y03718*
Y03852D02*
X03212Y03892D01*
X03252*
X03232Y03852*
X03762Y03718D02*
X03742Y03758D01*
X03782*
X03762Y03718*
Y03852D02*
X03742Y03892D01*
X03782*
X03762Y03852*
X0374Y0122D02*
X0372Y0126D01*
X0376*
X0374Y0122*
Y01086D02*
X0372Y01126D01*
X0376*
X0374Y01086*
X0321Y0122D02*
X0319Y0126D01*
X0323*
X0321Y0122*
Y01086D02*
X0319Y01126D01*
X0323*
X0321Y01086*
X0374Y01601D02*
X0372Y01641D01*
X0376*
X0374Y01601*
Y01467D02*
X0372Y01507D01*
X0376*
X0374Y01467*
X0321Y01601D02*
X0319Y01641D01*
X0323*
X0321Y01601*
Y01467D02*
X0319Y01507D01*
X0323*
X0321Y01467*
X0374Y02363D02*
X0372Y02403D01*
X0376*
X0374Y02363*
Y02229D02*
X0372Y02269D01*
X0376*
X0374Y02229*
X0321Y02363D02*
X0319Y02403D01*
X0323*
X0321Y02363*
Y02229D02*
X0319Y02269D01*
X0323*
X0321Y02229*
X0374Y02745D02*
X0372Y02785D01*
X0376*
X0374Y02745*
Y02611D02*
X0372Y02651D01*
X0376*
X0374Y02611*
X0321Y02745D02*
X0319Y02785D01*
X0323*
X0321Y02745*
Y02611D02*
X0319Y02651D01*
X0323*
X0321Y02611*
X0374Y03126D02*
X0372Y03166D01*
X0376*
X0374Y03126*
Y02992D02*
X0372Y03032D01*
X0376*
X0374Y02992*
X0321Y03126D02*
X0319Y03166D01*
X0323*
X0321Y03126*
Y02992D02*
X0319Y03032D01*
X0323*
X0321Y02992*
X04263Y03455D02*
X04273Y03465D01*
X04283*
X04273Y03475*
X04283Y03485*
X04273*
X04263Y03495*
X04253Y03485*
X04243*
X04253Y03475*
X04243Y03465*
X04253*
X04263Y03455*
Y0308D02*
X04273Y0309D01*
X04283*
X04273Y031*
X04283Y0311*
X04273*
X04263Y0312*
X04253Y0311*
X04243*
X04253Y031*
X04243Y0309*
X04253*
X04263Y0308*
Y02705D02*
X04273Y02715D01*
X04283*
X04273Y02725*
X04283Y02735*
X04273*
X04263Y02745*
X04253Y02735*
X04243*
X04253Y02725*
X04243Y02715*
X04253*
X04263Y02705*
Y0233D02*
X04273Y0234D01*
X04283*
X04273Y0235*
X04283Y0236*
X04273*
X04263Y0237*
X04253Y0236*
X04243*
X04253Y0235*
X04243Y0234*
X04253*
X04263Y0233*
Y01204D02*
X04273Y01214D01*
X04283*
X04273Y01224*
X04283Y01234*
X04273*
X04263Y01244*
X04253Y01234*
X04243*
X04253Y01224*
X04243Y01214*
X04253*
X04263Y01204*
Y01579D02*
X04273Y01589D01*
X04283*
X04273Y01599*
X04283Y01609*
X04273*
X04263Y01619*
X04253Y01609*
X04243*
X04253Y01599*
X04243Y01589*
X04253*
X04263Y01579*
Y01954D02*
X04273Y01964D01*
X04283*
X04273Y01974*
X04283Y01984*
X04273*
X04263Y01994*
X04253Y01984*
X04243*
X04253Y01974*
X04243Y01964*
X04253*
X04263Y01954*
X0321Y03373D02*
X0319Y03413D01*
X0323*
X0321Y03373*
Y03507D02*
X0319Y03547D01*
X0323*
X0321Y03507*
X0374Y03373D02*
X0372Y03413D01*
X0376*
X0374Y03373*
Y03507D02*
X0372Y03547D01*
X0376*
X0374Y03507*
X01387Y01228D02*
X01397Y01248D01*
X01387Y01268*
X01407Y01258*
X01427Y01268*
X01417Y01248*
X01427Y01228*
X01407Y01238*
X01387Y01228*
X01787D02*
X01797Y01248D01*
X01787Y01268*
X01807Y01258*
X01827Y01268*
X01817Y01248*
X01827Y01228*
X01807Y01238*
X01787Y01228*
X01587D02*
X01597Y01248D01*
X01587Y01268*
X01607Y01258*
X01627Y01268*
X01617Y01248*
X01627Y01228*
X01607Y01238*
X01587Y01228*
X01387Y00933D02*
X01397Y00953D01*
X01387Y00973*
X01407Y00963*
X01427Y00973*
X01417Y00953*
X01427Y00933*
X01407Y00943*
X01387Y00933*
X01787D02*
X01797Y00953D01*
X01787Y00973*
X01807Y00963*
X01827Y00973*
X01817Y00953*
X01827Y00933*
X01807Y00943*
X01787Y00933*
X01587D02*
X01597Y00953D01*
X01587Y00973*
X01607Y00963*
X01627Y00973*
X01617Y00953*
X01627Y00933*
X01607Y00943*
X01587Y00933*
X02387Y01228D02*
X02397Y01248D01*
X02387Y01268*
X02407Y01258*
X02427Y01268*
X02417Y01248*
X02427Y01228*
X02407Y01238*
X02387Y01228*
Y00933D02*
X02397Y00953D01*
X02387Y00973*
X02407Y00963*
X02427Y00973*
X02417Y00953*
X02427Y00933*
X02407Y00943*
X02387Y00933*
X02333Y0464D02*
Y0463D01*
X02353*
Y0464*
X02363*
Y0466*
X02353*
Y0467*
X02333*
Y0466*
X02323*
Y0464*
X02333*
X02633D02*
Y0463D01*
X02653*
Y0464*
X02663*
Y0466*
X02653*
Y0467*
X02633*
Y0466*
X02623*
Y0464*
X02633*
X02173Y0463D02*
X02183D01*
X02193Y0464*
X02203Y0463*
X02213*
Y0464*
X02203Y0465*
X02213Y0466*
Y0467*
X02203*
X02193Y0466*
X02183Y0467*
X02173*
Y0466*
X02183Y0465*
X02173Y0464*
Y0463*
X02483Y0464D02*
Y0463D01*
X02503*
Y0464*
X02513*
Y0466*
X02503*
Y0467*
X02483*
Y0466*
X02473*
Y0464*
X02483*
X02773Y0463D02*
X02783D01*
X02793Y0464*
X02803Y0463*
X02813*
Y0464*
X02803Y0465*
X02813Y0466*
Y0467*
X02803*
X02793Y0466*
X02783Y0467*
X02773*
Y0466*
X02783Y0465*
X02773Y0464*
Y0463*
X02783Y0264D02*
Y0263D01*
X02803*
Y0264*
X02813*
Y0266*
X02803*
Y0267*
X02783*
Y0266*
X02773*
Y0264*
X02783*
X02483D02*
Y0263D01*
X02503*
Y0264*
X02513*
Y0266*
X02503*
Y0267*
X02483*
Y0266*
X02473*
Y0264*
X02483*
X02183D02*
Y0263D01*
X02203*
Y0264*
X02213*
Y0266*
X02203*
Y0267*
X02183*
Y0266*
X02173*
Y0264*
X02183*
X00731Y05752D02*
X00751Y05772D01*
X00771Y05752*
X00751Y05732*
X00731Y05752*
X01546Y05932D02*
Y05972D01*
X01586*
Y05932*
X01546*
X01554Y0594D02*
Y05964D01*
X01578*
Y0594*
X01554*
X01546Y05532D02*
Y05572D01*
X01586*
Y05532*
X01546*
X01554Y0554D02*
Y05564D01*
X01578*
Y0554*
X01554*
X04519Y05255D02*
X04499Y05295D01*
X04539*
X04519Y05255*
Y05263D02*
X04507Y05287D01*
X04531*
X04519Y05263*
X04322Y05255D02*
X04302Y05295D01*
X04342*
X04322Y05255*
Y05263D02*
X0431Y05287D01*
X04334*
X04322Y05263*
X04125Y05255D02*
X04105Y05295D01*
X04145*
X04125Y05255*
Y05263D02*
X04113Y05287D01*
X04137*
X04125Y05263*
Y05531D02*
X04105Y05571D01*
X04145*
X04125Y05531*
Y05539D02*
X04113Y05563D01*
X04137*
X04125Y05539*
X04322Y05531D02*
X04302Y05571D01*
X04342*
X04322Y05531*
Y05539D02*
X0431Y05563D01*
X04334*
X04322Y05539*
X04519Y05531D02*
X04499Y05571D01*
X04539*
X04519Y05531*
Y05539D02*
X04507Y05563D01*
X04531*
X04519Y05539*
X04232Y05696D02*
X04212Y05736D01*
X04252*
X04232Y05696*
Y05704D02*
X0422Y05728D01*
X04244*
X04232Y05704*
X04035Y05696D02*
X04015Y05736D01*
X04055*
X04035Y05696*
Y05704D02*
X04023Y05728D01*
X04047*
X04035Y05704*
X03838Y05696D02*
X03818Y05736D01*
X03858*
X03838Y05696*
Y05704D02*
X03826Y05728D01*
X0385*
X03838Y05704*
Y05972D02*
X03818Y06012D01*
X03858*
X03838Y05972*
Y0598D02*
X03826Y06004D01*
X0385*
X03838Y0598*
X04035Y05972D02*
X04015Y06012D01*
X04055*
X04035Y05972*
Y0598D02*
X04023Y06004D01*
X04047*
X04035Y0598*
X04232Y05972D02*
X04212Y06012D01*
X04252*
X04232Y05972*
Y0598D02*
X0422Y06004D01*
X04244*
X04232Y0598*
X04Y05255D02*
X0398Y05295D01*
X0402*
X04Y05255*
Y05263D02*
X03988Y05287D01*
X04012*
X04Y05263*
X03803Y05255D02*
X03783Y05295D01*
X03823*
X03803Y05255*
Y05263D02*
X03791Y05287D01*
X03815*
X03803Y05263*
X03606Y05255D02*
X03586Y05295D01*
X03626*
X03606Y05255*
Y05263D02*
X03594Y05287D01*
X03618*
X03606Y05263*
Y05531D02*
X03586Y05571D01*
X03626*
X03606Y05531*
Y05539D02*
X03594Y05563D01*
X03618*
X03606Y05539*
X03803Y05531D02*
X03783Y05571D01*
X03823*
X03803Y05531*
Y05539D02*
X03791Y05563D01*
X03815*
X03803Y05539*
X04Y05531D02*
X0398Y05571D01*
X0402*
X04Y05531*
Y05539D02*
X03988Y05563D01*
X04012*
X04Y05539*
X03712Y05696D02*
X03692Y05736D01*
X03732*
X03712Y05696*
Y05704D02*
X037Y05728D01*
X03724*
X03712Y05704*
X03515Y05696D02*
X03495Y05736D01*
X03535*
X03515Y05696*
Y05704D02*
X03503Y05728D01*
X03527*
X03515Y05704*
X03318Y05696D02*
X03298Y05736D01*
X03338*
X03318Y05696*
Y05704D02*
X03306Y05728D01*
X0333*
X03318Y05704*
Y05972D02*
X03298Y06012D01*
X03338*
X03318Y05972*
Y0598D02*
X03306Y06004D01*
X0333*
X03318Y0598*
X03515Y05972D02*
X03495Y06012D01*
X03535*
X03515Y05972*
Y0598D02*
X03503Y06004D01*
X03527*
X03515Y0598*
X03712Y05972D02*
X03692Y06012D01*
X03732*
X03712Y05972*
Y0598D02*
X037Y06004D01*
X03724*
X03712Y0598*
X0348Y05255D02*
X0346Y05295D01*
X035*
X0348Y05255*
Y05263D02*
X03468Y05287D01*
X03492*
X0348Y05263*
X03283Y05255D02*
X03263Y05295D01*
X03303*
X03283Y05255*
Y05263D02*
X03271Y05287D01*
X03295*
X03283Y05263*
X03086Y05255D02*
X03066Y05295D01*
X03106*
X03086Y05255*
Y05263D02*
X03074Y05287D01*
X03098*
X03086Y05263*
Y05531D02*
X03066Y05571D01*
X03106*
X03086Y05531*
Y05539D02*
X03074Y05563D01*
X03098*
X03086Y05539*
X03283Y05531D02*
X03263Y05571D01*
X03303*
X03283Y05531*
Y05539D02*
X03271Y05563D01*
X03295*
X03283Y05539*
X0348Y05531D02*
X0346Y05571D01*
X035*
X0348Y05531*
Y05539D02*
X03468Y05563D01*
X03492*
X0348Y05539*
X03192Y05696D02*
X03172Y05736D01*
X03212*
X03192Y05696*
Y05704D02*
X0318Y05728D01*
X03204*
X03192Y05704*
X02996Y05696D02*
X02976Y05736D01*
X03016*
X02996Y05696*
Y05704D02*
X02984Y05728D01*
X03008*
X02996Y05704*
X02799Y05696D02*
X02779Y05736D01*
X02819*
X02799Y05696*
Y05704D02*
X02787Y05728D01*
X02811*
X02799Y05704*
Y05972D02*
X02779Y06012D01*
X02819*
X02799Y05972*
Y0598D02*
X02787Y06004D01*
X02811*
X02799Y0598*
X02996Y05972D02*
X02976Y06012D01*
X03016*
X02996Y05972*
Y0598D02*
X02984Y06004D01*
X03008*
X02996Y0598*
X03192Y05972D02*
X03172Y06012D01*
X03212*
X03192Y05972*
Y0598D02*
X0318Y06004D01*
X03204*
X03192Y0598*
X0296Y05255D02*
X0294Y05295D01*
X0298*
X0296Y05255*
Y05263D02*
X02948Y05287D01*
X02972*
X0296Y05263*
X02763Y05255D02*
X02743Y05295D01*
X02783*
X02763Y05255*
Y05263D02*
X02751Y05287D01*
X02775*
X02763Y05263*
X02566Y05255D02*
X02546Y05295D01*
X02586*
X02566Y05255*
Y05263D02*
X02554Y05287D01*
X02578*
X02566Y05263*
Y05531D02*
X02546Y05571D01*
X02586*
X02566Y05531*
Y05539D02*
X02554Y05563D01*
X02578*
X02566Y05539*
X02763Y05531D02*
X02743Y05571D01*
X02783*
X02763Y05531*
Y05539D02*
X02751Y05563D01*
X02775*
X02763Y05539*
X0296Y05531D02*
X0294Y05571D01*
X0298*
X0296Y05531*
Y05539D02*
X02948Y05563D01*
X02972*
X0296Y05539*
X02673Y05696D02*
X02653Y05736D01*
X02693*
X02673Y05696*
Y05704D02*
X02661Y05728D01*
X02685*
X02673Y05704*
X02476Y05696D02*
X02456Y05736D01*
X02496*
X02476Y05696*
Y05704D02*
X02464Y05728D01*
X02488*
X02476Y05704*
X02279Y05696D02*
X02259Y05736D01*
X02299*
X02279Y05696*
Y05704D02*
X02267Y05728D01*
X02291*
X02279Y05704*
Y05972D02*
X02259Y06012D01*
X02299*
X02279Y05972*
Y0598D02*
X02267Y06004D01*
X02291*
X02279Y0598*
X02476Y05972D02*
X02456Y06012D01*
X02496*
X02476Y05972*
Y0598D02*
X02464Y06004D01*
X02488*
X02476Y0598*
X02673Y05972D02*
X02653Y06012D01*
X02693*
X02673Y05972*
Y0598D02*
X02661Y06004D01*
X02685*
X02673Y0598*
X0244Y05255D02*
X0242Y05295D01*
X0246*
X0244Y05255*
Y05263D02*
X02428Y05287D01*
X02452*
X0244Y05263*
X02244Y05255D02*
X02224Y05295D01*
X02264*
X02244Y05255*
Y05263D02*
X02232Y05287D01*
X02256*
X02244Y05263*
X02047Y05255D02*
X02027Y05295D01*
X02067*
X02047Y05255*
Y05263D02*
X02035Y05287D01*
X02059*
X02047Y05263*
Y05531D02*
X02027Y05571D01*
X02067*
X02047Y05531*
Y05539D02*
X02035Y05563D01*
X02059*
X02047Y05539*
X02244Y05531D02*
X02224Y05571D01*
X02264*
X02244Y05531*
Y05539D02*
X02232Y05563D01*
X02256*
X02244Y05539*
X0244Y05531D02*
X0242Y05571D01*
X0246*
X0244Y05531*
Y05539D02*
X02428Y05563D01*
X02452*
X0244Y05539*
X02153Y05696D02*
X02133Y05736D01*
X02173*
X02153Y05696*
Y05704D02*
X02141Y05728D01*
X02165*
X02153Y05704*
X01956Y05696D02*
X01936Y05736D01*
X01976*
X01956Y05696*
Y05704D02*
X01944Y05728D01*
X01968*
X01956Y05704*
X01759Y05696D02*
X01739Y05736D01*
X01779*
X01759Y05696*
Y05704D02*
X01747Y05728D01*
X01771*
X01759Y05704*
Y05972D02*
X01739Y06012D01*
X01779*
X01759Y05972*
Y0598D02*
X01747Y06004D01*
X01771*
X01759Y0598*
X01956Y05972D02*
X01936Y06012D01*
X01976*
X01956Y05972*
Y0598D02*
X01944Y06004D01*
X01968*
X01956Y0598*
X02153Y05972D02*
X02133Y06012D01*
X02173*
X02153Y05972*
Y0598D02*
X02141Y06004D01*
X02165*
X02153Y0598*
X0321Y01848D02*
X0319Y01888D01*
X0323*
X0321Y01848*
Y01982D02*
X0319Y02022D01*
X0323*
X0321Y01982*
X0374Y01848D02*
X0372Y01888D01*
X0376*
X0374Y01848*
Y01982D02*
X0372Y02022D01*
X0376*
X0374Y01982*
X00749Y03878D02*
X00759Y03888D01*
X00769*
X00759Y03898*
X00769Y03908*
X00759*
X00749Y03918*
X00739Y03908*
X00729*
X00739Y03898*
X00729Y03888*
X00739*
X00749Y03878*
Y03886D02*
X00755Y03892D01*
X00761*
X00755Y03898*
X00761Y03904*
X00755*
X00749Y0391*
X00743Y03904*
X00737*
X00743Y03898*
X00737Y03892*
X00743*
X00749Y03886*
X00237Y03378D02*
X00247Y03388D01*
X00257*
X00247Y03398*
X00257Y03408*
X00247*
X00237Y03418*
X00227Y03408*
X00217*
X00227Y03398*
X00217Y03388*
X00227*
X00237Y03378*
Y03386D02*
X00243Y03392D01*
X00249*
X00243Y03398*
X00249Y03404*
X00243*
X00237Y0341*
X00231Y03404*
X00225*
X00231Y03398*
X00225Y03392*
X00231*
X00237Y03386*
X00748Y05015D02*
X00758Y05025D01*
X00768*
X00758Y05035*
X00768Y05045*
X00758*
X00748Y05055*
X00738Y05045*
X00728*
X00738Y05035*
X00728Y05025*
X00738*
X00748Y05015*
Y05023D02*
X00754Y05029D01*
X0076*
X00754Y05035*
X0076Y05041*
X00754*
X00748Y05047*
X00742Y05041*
X00736*
X00742Y05035*
X00736Y05029*
X00742*
X00748Y05023*
X00236Y04515D02*
X00246Y04525D01*
X00256*
X00246Y04535*
X00256Y04545*
X00246*
X00236Y04555*
X00226Y04545*
X00216*
X00226Y04535*
X00216Y04525*
X00226*
X00236Y04515*
Y04523D02*
X00242Y04529D01*
X00248*
X00242Y04535*
X00248Y04541*
X00242*
X00236Y04547*
X0023Y04541*
X00224*
X0023Y04535*
X00224Y04529*
X0023*
X00236Y04523*
X01134Y01417D02*
X01144Y01427D01*
X01154*
X01144Y01437*
X01154Y01447*
X01144*
X01134Y01457*
X01124Y01447*
X01114*
X01124Y01437*
X01114Y01427*
X01124*
X01134Y01417*
Y01425D02*
X0114Y01431D01*
X01146*
X0114Y01437*
X01146Y01443*
X0114*
X01134Y01449*
X01128Y01443*
X01122*
X01128Y01437*
X01122Y01431*
X01128*
X01134Y01425*
X00622Y00917D02*
X00632Y00927D01*
X00642*
X00632Y00937*
X00642Y00947*
X00632*
X00622Y00957*
X00612Y00947*
X00602*
X00612Y00937*
X00602Y00927*
X00612*
X00622Y00917*
Y00925D02*
X00628Y00931D01*
X00634*
X00628Y00937*
X00634Y00943*
X00628*
X00622Y00949*
X00616Y00943*
X0061*
X00616Y00937*
X0061Y00931*
X00616*
X00622Y00925*
X00748Y02735D02*
X00758Y02745D01*
X00768*
X00758Y02755*
X00768Y02765*
X00758*
X00748Y02775*
X00738Y02765*
X00728*
X00738Y02755*
X00728Y02745*
X00738*
X00748Y02735*
Y02743D02*
X00754Y02749D01*
X0076*
X00754Y02755*
X0076Y02761*
X00754*
X00748Y02767*
X00742Y02761*
X00736*
X00742Y02755*
X00736Y02749*
X00742*
X00748Y02743*
X00236Y02235D02*
X00246Y02245D01*
X00256*
X00246Y02255*
X00256Y02265*
X00246*
X00236Y02275*
X00226Y02265*
X00216*
X00226Y02255*
X00216Y02245*
X00226*
X00236Y02235*
Y02243D02*
X00242Y02249D01*
X00248*
X00242Y02255*
X00248Y02261*
X00242*
X00236Y02267*
X0023Y02261*
X00224*
X0023Y02255*
X00224Y02249*
X0023*
X00236Y02243*
X01747Y04716D02*
X01757Y04736D01*
X01747Y04756*
X01767Y04746*
X01787Y04756*
X01777Y04736*
X01787Y04716*
X01767Y04726*
X01747Y04716*
X01755Y04724D02*
X01761Y04736D01*
X01755Y04748*
X01767Y04742*
X01779Y04748*
X01773Y04736*
X01779Y04724*
X01767Y0473*
X01755Y04724*
X01747Y04617D02*
X01757Y04637D01*
X01747Y04657*
X01767Y04647*
X01787Y04657*
X01777Y04637*
X01787Y04617*
X01767Y04627*
X01747Y04617*
X01755Y04625D02*
X01761Y04637D01*
X01755Y04649*
X01767Y04643*
X01779Y04649*
X01773Y04637*
X01779Y04625*
X01767Y04631*
X01755Y04625*
X01747Y04519D02*
X01757Y04539D01*
X01747Y04559*
X01767Y04549*
X01787Y04559*
X01777Y04539*
X01787Y04519*
X01767Y04529*
X01747Y04519*
X01755Y04527D02*
X01761Y04539D01*
X01755Y04551*
X01767Y04545*
X01779Y04551*
X01773Y04539*
X01779Y04527*
X01767Y04533*
X01755Y04527*
X01747Y04814D02*
X01757Y04834D01*
X01747Y04854*
X01767Y04844*
X01787Y04854*
X01777Y04834*
X01787Y04814*
X01767Y04824*
X01747Y04814*
X01755Y04822D02*
X01761Y04834D01*
X01755Y04846*
X01767Y0484*
X01779Y04846*
X01773Y04834*
X01779Y04822*
X01767Y04828*
X01755Y04822*
X01747Y04913D02*
X01757Y04933D01*
X01747Y04953*
X01767Y04943*
X01787Y04953*
X01777Y04933*
X01787Y04913*
X01767Y04923*
X01747Y04913*
X01755Y04921D02*
X01761Y04933D01*
X01755Y04945*
X01767Y04939*
X01779Y04945*
X01773Y04933*
X01779Y04921*
X01767Y04927*
X01755Y04921*
X01747Y05011D02*
X01757Y05031D01*
X01747Y05051*
X01767Y05041*
X01787Y05051*
X01777Y05031*
X01787Y05011*
X01767Y05021*
X01747Y05011*
X01755Y05019D02*
X01761Y05031D01*
X01755Y05043*
X01767Y05037*
X01779Y05043*
X01773Y05031*
X01779Y05019*
X01767Y05025*
X01755Y05019*
X01747Y05109D02*
X01757Y05129D01*
X01747Y05149*
X01767Y05139*
X01787Y05149*
X01777Y05129*
X01787Y05109*
X01767Y05119*
X01747Y05109*
X01755Y05117D02*
X01761Y05129D01*
X01755Y05141*
X01767Y05135*
X01779Y05141*
X01773Y05129*
X01779Y05117*
X01767Y05123*
X01755Y05117*
X01848Y03497D02*
X01858Y03517D01*
X01848Y03537*
X01868Y03527*
X01888Y03537*
X01878Y03517*
X01888Y03497*
X01868Y03507*
X01848Y03497*
X01856Y03505D02*
X01862Y03517D01*
X01856Y03529*
X01868Y03523*
X0188Y03529*
X01874Y03517*
X0188Y03505*
X01868Y03511*
X01856Y03505*
X01848Y03398D02*
X01858Y03418D01*
X01848Y03438*
X01868Y03428*
X01888Y03438*
X01878Y03418*
X01888Y03398*
X01868Y03408*
X01848Y03398*
X01856Y03406D02*
X01862Y03418D01*
X01856Y0343*
X01868Y03424*
X0188Y0343*
X01874Y03418*
X0188Y03406*
X01868Y03412*
X01856Y03406*
X01848Y033D02*
X01858Y0332D01*
X01848Y0334*
X01868Y0333*
X01888Y0334*
X01878Y0332*
X01888Y033*
X01868Y0331*
X01848Y033*
X01856Y03308D02*
X01862Y0332D01*
X01856Y03332*
X01868Y03326*
X0188Y03332*
X01874Y0332*
X0188Y03308*
X01868Y03314*
X01856Y03308*
X01848Y03595D02*
X01858Y03615D01*
X01848Y03635*
X01868Y03625*
X01888Y03635*
X01878Y03615*
X01888Y03595*
X01868Y03605*
X01848Y03595*
X01856Y03603D02*
X01862Y03615D01*
X01856Y03627*
X01868Y03621*
X0188Y03627*
X01874Y03615*
X0188Y03603*
X01868Y03609*
X01856Y03603*
X01848Y03694D02*
X01858Y03714D01*
X01848Y03734*
X01868Y03724*
X01888Y03734*
X01878Y03714*
X01888Y03694*
X01868Y03704*
X01848Y03694*
X01856Y03702D02*
X01862Y03714D01*
X01856Y03726*
X01868Y0372*
X0188Y03726*
X01874Y03714*
X0188Y03702*
X01868Y03708*
X01856Y03702*
X01848Y03792D02*
X01858Y03812D01*
X01848Y03832*
X01868Y03822*
X01888Y03832*
X01878Y03812*
X01888Y03792*
X01868Y03802*
X01848Y03792*
X01856Y038D02*
X01862Y03812D01*
X01856Y03824*
X01868Y03818*
X0188Y03824*
X01874Y03812*
X0188Y038*
X01868Y03806*
X01856Y038*
X01848Y03891D02*
X01858Y03911D01*
X01848Y03931*
X01868Y03921*
X01888Y03931*
X01878Y03911*
X01888Y03891*
X01868Y03901*
X01848Y03891*
X01856Y03899D02*
X01862Y03911D01*
X01856Y03923*
X01868Y03917*
X0188Y03923*
X01874Y03911*
X0188Y03899*
X01868Y03905*
X01856Y03899*
X04474Y05895D02*
Y05885D01*
X04494*
Y05895*
X04504*
Y05915*
X04494*
Y05925*
X04474*
Y05915*
X04464*
Y05895*
X04474*
X04478Y05899D02*
Y05893D01*
X0449*
Y05899*
X04496*
Y05911*
X0449*
Y05917*
X04478*
Y05911*
X04472*
Y05899*
X04478*
X04474Y00777D02*
Y00767D01*
X04494*
Y00777*
X04504*
Y00797*
X04494*
Y00807*
X04474*
Y00797*
X04464*
Y00777*
X04474*
X04478Y00781D02*
Y00775D01*
X0449*
Y00781*
X04496*
Y00793*
X0449*
Y00799*
X04478*
Y00793*
X04472*
Y00781*
X04478*
X00186Y00777D02*
Y00767D01*
X00206*
Y00777*
X00216*
Y00797*
X00206*
Y00807*
X00186*
Y00797*
X00176*
Y00777*
X00186*
X0019Y00781D02*
Y00775D01*
X00202*
Y00781*
X00208*
Y00793*
X00202*
Y00799*
X0019*
Y00793*
X00184*
Y00781*
X0019*
X00186Y05895D02*
Y05885D01*
X00206*
Y05895*
X00216*
Y05915*
X00206*
Y05925*
X00186*
Y05915*
X00176*
Y05895*
X00186*
X0019Y05899D02*
Y05893D01*
X00202*
Y05899*
X00208*
Y05911*
X00202*
Y05917*
X0019*
Y05911*
X00184*
Y05899*
X0019*
X02582Y01861D02*
X02592D01*
X02602Y01871*
X02612Y01861*
X02622*
Y01871*
X02612Y01881*
X02622Y01891*
Y01901*
X02612*
X02602Y01891*
X02592Y01901*
X02582*
Y01891*
X02592Y01881*
X02582Y01871*
Y01861*
X0259Y01869D02*
X02596D01*
X02602Y01875*
X02608Y01869*
X02614*
Y01875*
X02608Y01881*
X02614Y01887*
Y01893*
X02608*
X02602Y01887*
X02596Y01893*
X0259*
Y01887*
X02596Y01881*
X0259Y01875*
Y01869*
X01314Y01444D02*
X01324D01*
X01334Y01454*
X01344Y01444*
X01354*
Y01454*
X01344Y01464*
X01354Y01474*
Y01484*
X01344*
X01334Y01474*
X01324Y01484*
X01314*
Y01474*
X01324Y01464*
X01314Y01454*
Y01444*
X01322Y01452D02*
X01328D01*
X01334Y01458*
X0134Y01452*
X01346*
Y01458*
X0134Y01464*
X01346Y0147*
Y01476*
X0134*
X01334Y0147*
X01328Y01476*
X01322*
Y0147*
X01328Y01464*
X01322Y01458*
Y01452*
X00141Y01542D02*
X00151D01*
X00161Y01552*
X00171Y01542*
X00181*
Y01552*
X00171Y01562*
X00181Y01572*
Y01582*
X00171*
X00161Y01572*
X00151Y01582*
X00141*
Y01572*
X00151Y01562*
X00141Y01552*
Y01542*
X00149Y0155D02*
X00155D01*
X00161Y01556*
X00167Y0155*
X00173*
Y01556*
X00167Y01562*
X00173Y01568*
Y01574*
X00167*
X00161Y01568*
X00155Y01574*
X00149*
Y01568*
X00155Y01562*
X00149Y01556*
Y0155*
X02452Y01417D02*
X02462D01*
X02472Y01427*
X02482Y01417*
X02492*
Y01427*
X02482Y01437*
X02492Y01447*
Y01457*
X02482*
X02472Y01447*
X02462Y01457*
X02452*
Y01447*
X02462Y01437*
X02452Y01427*
Y01417*
X0246Y01425D02*
X02466D01*
X02472Y01431*
X02478Y01425*
X02484*
Y01431*
X02478Y01437*
X02484Y01443*
Y01449*
X02478*
X02472Y01443*
X02466Y01449*
X0246*
Y01443*
X02466Y01437*
X0246Y01431*
Y01425*
X01314Y0246D02*
X01324D01*
X01334Y0247*
X01344Y0246*
X01354*
Y0247*
X01344Y0248*
X01354Y0249*
Y025*
X01344*
X01334Y0249*
X01324Y025*
X01314*
Y0249*
X01324Y0248*
X01314Y0247*
Y0246*
X01322Y02468D02*
X01328D01*
X01334Y02474*
X0134Y02468*
X01346*
Y02474*
X0134Y0248*
X01346Y02486*
Y02492*
X0134*
X01334Y02486*
X01328Y02492*
X01322*
Y02486*
X01328Y0248*
X01322Y02474*
Y02468*
X01877Y02098D02*
X01887D01*
X01897Y02108*
X01907Y02098*
X01917*
Y02108*
X01907Y02118*
X01917Y02128*
Y02138*
X01907*
X01897Y02128*
X01887Y02138*
X01877*
Y02128*
X01887Y02118*
X01877Y02108*
Y02098*
X01885Y02106D02*
X01891D01*
X01897Y02112*
X01903Y02106*
X01909*
Y02112*
X01903Y02118*
X01909Y02124*
Y0213*
X01903*
X01897Y02124*
X01891Y0213*
X01885*
Y02124*
X01891Y02118*
X01885Y02112*
Y02106*
X01511Y02009D02*
X01521D01*
X01531Y02019*
X01541Y02009*
X01551*
Y02019*
X01541Y02029*
X01551Y02039*
Y02049*
X01541*
X01531Y02039*
X01521Y02049*
X01511*
Y02039*
X01521Y02029*
X01511Y02019*
Y02009*
X01519Y02017D02*
X01525D01*
X01531Y02023*
X01537Y02017*
X01543*
Y02023*
X01537Y02029*
X01543Y02035*
Y02041*
X01537*
X01531Y02035*
X01525Y02041*
X01519*
Y02035*
X01525Y02029*
X01519Y02023*
Y02017*
X01476Y01743D02*
X01486D01*
X01496Y01753*
X01506Y01743*
X01516*
Y01753*
X01506Y01763*
X01516Y01773*
Y01783*
X01506*
X01496Y01773*
X01486Y01783*
X01476*
Y01773*
X01486Y01763*
X01476Y01753*
Y01743*
X01484Y01751D02*
X0149D01*
X01496Y01757*
X01502Y01751*
X01508*
Y01757*
X01502Y01763*
X01508Y01769*
Y01775*
X01502*
X01496Y01769*
X0149Y01775*
X01484*
Y01769*
X0149Y01763*
X01484Y01757*
Y01751*
X01684Y01696D02*
X01694D01*
X01704Y01706*
X01714Y01696*
X01724*
Y01706*
X01714Y01716*
X01724Y01726*
Y01736*
X01714*
X01704Y01726*
X01694Y01736*
X01684*
Y01726*
X01694Y01716*
X01684Y01706*
Y01696*
X01692Y01704D02*
X01698D01*
X01704Y0171*
X0171Y01704*
X01716*
Y0171*
X0171Y01716*
X01716Y01722*
Y01728*
X0171*
X01704Y01722*
X01698Y01728*
X01692*
Y01722*
X01698Y01716*
X01692Y0171*
Y01704*
X01361Y01798D02*
X01371D01*
X01381Y01808*
X01391Y01798*
X01401*
Y01808*
X01391Y01818*
X01401Y01828*
Y01838*
X01391*
X01381Y01828*
X01371Y01838*
X01361*
Y01828*
X01371Y01818*
X01361Y01808*
Y01798*
X01369Y01806D02*
X01375D01*
X01381Y01812*
X01387Y01806*
X01393*
Y01812*
X01387Y01818*
X01393Y01824*
Y0183*
X01387*
X01381Y01824*
X01375Y0183*
X01369*
Y01824*
X01375Y01818*
X01369Y01812*
Y01806*
X02117Y02287D02*
X02127D01*
X02137Y02297*
X02147Y02287*
X02157*
Y02297*
X02147Y02307*
X02157Y02317*
Y02327*
X02147*
X02137Y02317*
X02127Y02327*
X02117*
Y02317*
X02127Y02307*
X02117Y02297*
Y02287*
X02125Y02295D02*
X02131D01*
X02137Y02301*
X02143Y02295*
X02149*
Y02301*
X02143Y02307*
X02149Y02313*
Y02319*
X02143*
X02137Y02313*
X02131Y02319*
X02125*
Y02313*
X02131Y02307*
X02125Y02301*
Y02295*
X00965Y03654D02*
X00975D01*
X00985Y03664*
X00995Y03654*
X01005*
Y03664*
X00995Y03674*
X01005Y03684*
Y03694*
X00995*
X00985Y03684*
X00975Y03694*
X00965*
Y03684*
X00975Y03674*
X00965Y03664*
Y03654*
X00973Y03662D02*
X00979D01*
X00985Y03668*
X00991Y03662*
X00997*
Y03668*
X00991Y03674*
X00997Y0368*
Y03686*
X00991*
X00985Y0368*
X00979Y03686*
X00973*
Y0368*
X00979Y03674*
X00973Y03668*
Y03662*
X01409Y02665D02*
Y02698D01*
X01426Y02715*
X01442Y02698*
Y02665*
Y0269*
X01409*
X00822Y04519D02*
X00832D01*
X00842Y04529*
X00852Y04519*
X00862*
Y04529*
X00852Y04539*
X00862Y04549*
Y04559*
X00852*
X00842Y04549*
X00832Y04559*
X00822*
Y04549*
X00832Y04539*
X00822Y04529*
Y04519*
X0083Y04527D02*
X00836D01*
X00842Y04533*
X00848Y04527*
X00854*
Y04533*
X00848Y04539*
X00854Y04545*
Y04551*
X00848*
X00842Y04545*
X00836Y04551*
X0083*
Y04545*
X00836Y04539*
X0083Y04533*
Y04527*
X00743Y04519D02*
X00753D01*
X00763Y04529*
X00773Y04519*
X00783*
Y04529*
X00773Y04539*
X00783Y04549*
Y04559*
X00773*
X00763Y04549*
X00753Y04559*
X00743*
Y04549*
X00753Y04539*
X00743Y04529*
Y04519*
X00751Y04527D02*
X00757D01*
X00763Y04533*
X00769Y04527*
X00775*
Y04533*
X00769Y04539*
X00775Y04545*
Y04551*
X00769*
X00763Y04545*
X00757Y04551*
X00751*
Y04545*
X00757Y04539*
X00751Y04533*
Y04527*
X00665Y04519D02*
X00675D01*
X00685Y04529*
X00695Y04519*
X00705*
Y04529*
X00695Y04539*
X00705Y04549*
Y04559*
X00695*
X00685Y04549*
X00675Y04559*
X00665*
Y04549*
X00675Y04539*
X00665Y04529*
Y04519*
X00673Y04527D02*
X00679D01*
X00685Y04533*
X00691Y04527*
X00697*
Y04533*
X00691Y04539*
X00697Y04545*
Y04551*
X00691*
X00685Y04545*
X00679Y04551*
X00673*
Y04545*
X00679Y04539*
X00673Y04533*
Y04527*
X00822Y04361D02*
X00832D01*
X00842Y04371*
X00852Y04361*
X00862*
Y04371*
X00852Y04381*
X00862Y04391*
Y04401*
X00852*
X00842Y04391*
X00832Y04401*
X00822*
Y04391*
X00832Y04381*
X00822Y04371*
Y04361*
X0083Y04369D02*
X00836D01*
X00842Y04375*
X00848Y04369*
X00854*
Y04375*
X00848Y04381*
X00854Y04387*
Y04393*
X00848*
X00842Y04387*
X00836Y04393*
X0083*
Y04387*
X00836Y04381*
X0083Y04375*
Y04369*
X00743Y04361D02*
X00753D01*
X00763Y04371*
X00773Y04361*
X00783*
Y04371*
X00773Y04381*
X00783Y04391*
Y04401*
X00773*
X00763Y04391*
X00753Y04401*
X00743*
Y04391*
X00753Y04381*
X00743Y04371*
Y04361*
X00751Y04369D02*
X00757D01*
X00763Y04375*
X00769Y04369*
X00775*
Y04375*
X00769Y04381*
X00775Y04387*
Y04393*
X00769*
X00763Y04387*
X00757Y04393*
X00751*
Y04387*
X00757Y04381*
X00751Y04375*
Y04369*
X00665Y04361D02*
X00675D01*
X00685Y04371*
X00695Y04361*
X00705*
Y04371*
X00695Y04381*
X00705Y04391*
Y04401*
X00695*
X00685Y04391*
X00675Y04401*
X00665*
Y04391*
X00675Y04381*
X00665Y04371*
Y04361*
X00673Y04369D02*
X00679D01*
X00685Y04375*
X00691Y04369*
X00697*
Y04375*
X00691Y04381*
X00697Y04387*
Y04393*
X00691*
X00685Y04387*
X00679Y04393*
X00673*
Y04387*
X00679Y04381*
X00673Y04375*
Y04369*
X00665Y04598D02*
X00675D01*
X00685Y04608*
X00695Y04598*
X00705*
Y04608*
X00695Y04618*
X00705Y04628*
Y04638*
X00695*
X00685Y04628*
X00675Y04638*
X00665*
Y04628*
X00675Y04618*
X00665Y04608*
Y04598*
X00673Y04606D02*
X00679D01*
X00685Y04612*
X00691Y04606*
X00697*
Y04612*
X00691Y04618*
X00697Y04624*
Y0463*
X00691*
X00685Y04624*
X00679Y0463*
X00673*
Y04624*
X00679Y04618*
X00673Y04612*
Y04606*
X00822Y04598D02*
X00832D01*
X00842Y04608*
X00852Y04598*
X00862*
Y04608*
X00852Y04618*
X00862Y04628*
Y04638*
X00852*
X00842Y04628*
X00832Y04638*
X00822*
Y04628*
X00832Y04618*
X00822Y04608*
Y04598*
X0083Y04606D02*
X00836D01*
X00842Y04612*
X00848Y04606*
X00854*
Y04612*
X00848Y04618*
X00854Y04624*
Y0463*
X00848*
X00842Y04624*
X00836Y0463*
X0083*
Y04624*
X00836Y04618*
X0083Y04612*
Y04606*
X00507Y04519D02*
X00517D01*
X00527Y04529*
X00537Y04519*
X00547*
Y04529*
X00537Y04539*
X00547Y04549*
Y04559*
X00537*
X00527Y04549*
X00517Y04559*
X00507*
Y04549*
X00517Y04539*
X00507Y04529*
Y04519*
X00515Y04527D02*
X00521D01*
X00527Y04533*
X00533Y04527*
X00539*
Y04533*
X00533Y04539*
X00539Y04545*
Y04551*
X00533*
X00527Y04545*
X00521Y04551*
X00515*
Y04545*
X00521Y04539*
X00515Y04533*
Y04527*
X00586Y04519D02*
X00596D01*
X00606Y04529*
X00616Y04519*
X00626*
Y04529*
X00616Y04539*
X00626Y04549*
Y04559*
X00616*
X00606Y04549*
X00596Y04559*
X00586*
Y04549*
X00596Y04539*
X00586Y04529*
Y04519*
X00594Y04527D02*
X006D01*
X00606Y04533*
X00612Y04527*
X00618*
Y04533*
X00612Y04539*
X00618Y04545*
Y04551*
X00612*
X00606Y04545*
X006Y04551*
X00594*
Y04545*
X006Y04539*
X00594Y04533*
Y04527*
X00586Y04361D02*
X00596D01*
X00606Y04371*
X00616Y04361*
X00626*
Y04371*
X00616Y04381*
X00626Y04391*
Y04401*
X00616*
X00606Y04391*
X00596Y04401*
X00586*
Y04391*
X00596Y04381*
X00586Y04371*
Y04361*
X00594Y04369D02*
X006D01*
X00606Y04375*
X00612Y04369*
X00618*
Y04375*
X00612Y04381*
X00618Y04387*
Y04393*
X00612*
X00606Y04387*
X006Y04393*
X00594*
Y04387*
X006Y04381*
X00594Y04375*
Y04369*
X00507Y04283D02*
X00517D01*
X00527Y04293*
X00537Y04283*
X00547*
Y04293*
X00537Y04303*
X00547Y04313*
Y04323*
X00537*
X00527Y04313*
X00517Y04323*
X00507*
Y04313*
X00517Y04303*
X00507Y04293*
Y04283*
X00515Y04291D02*
X00521D01*
X00527Y04297*
X00533Y04291*
X00539*
Y04297*
X00533Y04303*
X00539Y04309*
Y04315*
X00533*
X00527Y04309*
X00521Y04315*
X00515*
Y04309*
X00521Y04303*
X00515Y04297*
Y04291*
X00507Y04598D02*
X00517D01*
X00527Y04608*
X00537Y04598*
X00547*
Y04608*
X00537Y04618*
X00547Y04628*
Y04638*
X00537*
X00527Y04628*
X00517Y04638*
X00507*
Y04628*
X00517Y04618*
X00507Y04608*
Y04598*
X00515Y04606D02*
X00521D01*
X00527Y04612*
X00533Y04606*
X00539*
Y04612*
X00533Y04618*
X00539Y04624*
Y0463*
X00533*
X00527Y04624*
X00521Y0463*
X00515*
Y04624*
X00521Y04618*
X00515Y04612*
Y04606*
X00743Y0444D02*
X00753D01*
X00763Y0445*
X00773Y0444*
X00783*
Y0445*
X00773Y0446*
X00783Y0447*
Y0448*
X00773*
X00763Y0447*
X00753Y0448*
X00743*
Y0447*
X00753Y0446*
X00743Y0445*
Y0444*
X00751Y04448D02*
X00757D01*
X00763Y04454*
X00769Y04448*
X00775*
Y04454*
X00769Y0446*
X00775Y04466*
Y04472*
X00769*
X00763Y04466*
X00757Y04472*
X00751*
Y04466*
X00757Y0446*
X00751Y04454*
Y04448*
X00822Y04283D02*
X00832D01*
X00842Y04293*
X00852Y04283*
X00862*
Y04293*
X00852Y04303*
X00862Y04313*
Y04323*
X00852*
X00842Y04313*
X00832Y04323*
X00822*
Y04313*
X00832Y04303*
X00822Y04293*
Y04283*
X0083Y04291D02*
X00836D01*
X00842Y04297*
X00848Y04291*
X00854*
Y04297*
X00848Y04303*
X00854Y04309*
Y04315*
X00848*
X00842Y04309*
X00836Y04315*
X0083*
Y04309*
X00836Y04303*
X0083Y04297*
Y04291*
X00743Y04283D02*
X00753D01*
X00763Y04293*
X00773Y04283*
X00783*
Y04293*
X00773Y04303*
X00783Y04313*
Y04323*
X00773*
X00763Y04313*
X00753Y04323*
X00743*
Y04313*
X00753Y04303*
X00743Y04293*
Y04283*
X00751Y04291D02*
X00757D01*
X00763Y04297*
X00769Y04291*
X00775*
Y04297*
X00769Y04303*
X00775Y04309*
Y04315*
X00769*
X00763Y04309*
X00757Y04315*
X00751*
Y04309*
X00757Y04303*
X00751Y04297*
Y04291*
X00586Y04598D02*
X00596D01*
X00606Y04608*
X00616Y04598*
X00626*
Y04608*
X00616Y04618*
X00626Y04628*
Y04638*
X00616*
X00606Y04628*
X00596Y04638*
X00586*
Y04628*
X00596Y04618*
X00586Y04608*
Y04598*
X00594Y04606D02*
X006D01*
X00606Y04612*
X00612Y04606*
X00618*
Y04612*
X00612Y04618*
X00618Y04624*
Y0463*
X00612*
X00606Y04624*
X006Y0463*
X00594*
Y04624*
X006Y04618*
X00594Y04612*
Y04606*
X00586Y0444D02*
X00596D01*
X00606Y0445*
X00616Y0444*
X00626*
Y0445*
X00616Y0446*
X00626Y0447*
Y0448*
X00616*
X00606Y0447*
X00596Y0448*
X00586*
Y0447*
X00596Y0446*
X00586Y0445*
Y0444*
X00594Y04448D02*
X006D01*
X00606Y04454*
X00612Y04448*
X00618*
Y04454*
X00612Y0446*
X00618Y04466*
Y04472*
X00612*
X00606Y04466*
X006Y04472*
X00594*
Y04466*
X006Y0446*
X00594Y04454*
Y04448*
X00507Y04361D02*
X00517D01*
X00527Y04371*
X00537Y04361*
X00547*
Y04371*
X00537Y04381*
X00547Y04391*
Y04401*
X00537*
X00527Y04391*
X00517Y04401*
X00507*
Y04391*
X00517Y04381*
X00507Y04371*
Y04361*
X00515Y04369D02*
X00521D01*
X00527Y04375*
X00533Y04369*
X00539*
Y04375*
X00533Y04381*
X00539Y04387*
Y04393*
X00533*
X00527Y04387*
X00521Y04393*
X00515*
Y04387*
X00521Y04381*
X00515Y04375*
Y04369*
X00586Y04283D02*
X00596D01*
X00606Y04293*
X00616Y04283*
X00626*
Y04293*
X00616Y04303*
X00626Y04313*
Y04323*
X00616*
X00606Y04313*
X00596Y04323*
X00586*
Y04313*
X00596Y04303*
X00586Y04293*
Y04283*
X00594Y04291D02*
X006D01*
X00606Y04297*
X00612Y04291*
X00618*
Y04297*
X00612Y04303*
X00618Y04309*
Y04315*
X00612*
X00606Y04309*
X006Y04315*
X00594*
Y04309*
X006Y04303*
X00594Y04297*
Y04291*
X00665Y04283D02*
X00675D01*
X00685Y04293*
X00695Y04283*
X00705*
Y04293*
X00695Y04303*
X00705Y04313*
Y04323*
X00695*
X00685Y04313*
X00675Y04323*
X00665*
Y04313*
X00675Y04303*
X00665Y04293*
Y04283*
X00673Y04291D02*
X00679D01*
X00685Y04297*
X00691Y04291*
X00697*
Y04297*
X00691Y04303*
X00697Y04309*
Y04315*
X00691*
X00685Y04309*
X00679Y04315*
X00673*
Y04309*
X00679Y04303*
X00673Y04297*
Y04291*
X00822Y0444D02*
X00832D01*
X00842Y0445*
X00852Y0444*
X00862*
Y0445*
X00852Y0446*
X00862Y0447*
Y0448*
X00852*
X00842Y0447*
X00832Y0448*
X00822*
Y0447*
X00832Y0446*
X00822Y0445*
Y0444*
X0083Y04448D02*
X00836D01*
X00842Y04454*
X00848Y04448*
X00854*
Y04454*
X00848Y0446*
X00854Y04466*
Y04472*
X00848*
X00842Y04466*
X00836Y04472*
X0083*
Y04466*
X00836Y0446*
X0083Y04454*
Y04448*
X00507Y0444D02*
X00517D01*
X00527Y0445*
X00537Y0444*
X00547*
Y0445*
X00537Y0446*
X00547Y0447*
Y0448*
X00537*
X00527Y0447*
X00517Y0448*
X00507*
Y0447*
X00517Y0446*
X00507Y0445*
Y0444*
X00515Y04448D02*
X00521D01*
X00527Y04454*
X00533Y04448*
X00539*
Y04454*
X00533Y0446*
X00539Y04466*
Y04472*
X00533*
X00527Y04466*
X00521Y04472*
X00515*
Y04466*
X00521Y0446*
X00515Y04454*
Y04448*
X00743Y04598D02*
X00753D01*
X00763Y04608*
X00773Y04598*
X00783*
Y04608*
X00773Y04618*
X00783Y04628*
Y04638*
X00773*
X00763Y04628*
X00753Y04638*
X00743*
Y04628*
X00753Y04618*
X00743Y04608*
Y04598*
X00751Y04606D02*
X00757D01*
X00763Y04612*
X00769Y04606*
X00775*
Y04612*
X00769Y04618*
X00775Y04624*
Y0463*
X00769*
X00763Y04624*
X00757Y0463*
X00751*
Y04624*
X00757Y04618*
X00751Y04612*
Y04606*
X00665Y0444D02*
X00675D01*
X00685Y0445*
X00695Y0444*
X00705*
Y0445*
X00695Y0446*
X00705Y0447*
Y0448*
X00695*
X00685Y0447*
X00675Y0448*
X00665*
Y0447*
X00675Y0446*
X00665Y0445*
Y0444*
X00673Y04448D02*
X00679D01*
X00685Y04454*
X00691Y04448*
X00697*
Y04454*
X00691Y0446*
X00697Y04466*
Y04472*
X00691*
X00685Y04466*
X00679Y04472*
X00673*
Y04466*
X00679Y0446*
X00673Y04454*
Y04448*
X00869Y03275D02*
X00879D01*
X00889Y03285*
X00899Y03275*
X00909*
Y03285*
X00899Y03295*
X00909Y03305*
Y03315*
X00899*
X00889Y03305*
X00879Y03315*
X00869*
Y03305*
X00879Y03295*
X00869Y03285*
Y03275*
X00877Y03283D02*
X00883D01*
X00889Y03289*
X00895Y03283*
X00901*
Y03289*
X00895Y03295*
X00901Y03301*
Y03307*
X00895*
X00889Y03301*
X00883Y03307*
X00877*
Y03301*
X00883Y03295*
X00877Y03289*
Y03283*
X00712Y03196D02*
X00722D01*
X00732Y03206*
X00742Y03196*
X00752*
Y03206*
X00742Y03216*
X00752Y03226*
Y03236*
X00742*
X00732Y03226*
X00722Y03236*
X00712*
Y03226*
X00722Y03216*
X00712Y03206*
Y03196*
X0072Y03204D02*
X00726D01*
X00732Y0321*
X00738Y03204*
X00744*
Y0321*
X00738Y03216*
X00744Y03222*
Y03228*
X00738*
X00732Y03222*
X00726Y03228*
X0072*
Y03222*
X00726Y03216*
X0072Y0321*
Y03204*
X00712Y03275D02*
X00722D01*
X00732Y03285*
X00742Y03275*
X00752*
Y03285*
X00742Y03295*
X00752Y03305*
Y03315*
X00742*
X00732Y03305*
X00722Y03315*
X00712*
Y03305*
X00722Y03295*
X00712Y03285*
Y03275*
X0072Y03283D02*
X00726D01*
X00732Y03289*
X00738Y03283*
X00744*
Y03289*
X00738Y03295*
X00744Y03301*
Y03307*
X00738*
X00732Y03301*
X00726Y03307*
X0072*
Y03301*
X00726Y03295*
X0072Y03289*
Y03283*
X00554Y03196D02*
X00564D01*
X00574Y03206*
X00584Y03196*
X00594*
Y03206*
X00584Y03216*
X00594Y03226*
Y03236*
X00584*
X00574Y03226*
X00564Y03236*
X00554*
Y03226*
X00564Y03216*
X00554Y03206*
Y03196*
X00562Y03204D02*
X00568D01*
X00574Y0321*
X0058Y03204*
X00586*
Y0321*
X0058Y03216*
X00586Y03222*
Y03228*
X0058*
X00574Y03222*
X00568Y03228*
X00562*
Y03222*
X00568Y03216*
X00562Y0321*
Y03204*
X00554Y03275D02*
X00564D01*
X00574Y03285*
X00584Y03275*
X00594*
Y03285*
X00584Y03295*
X00594Y03305*
Y03315*
X00584*
X00574Y03305*
X00564Y03315*
X00554*
Y03305*
X00564Y03295*
X00554Y03285*
Y03275*
X00562Y03283D02*
X00568D01*
X00574Y03289*
X0058Y03283*
X00586*
Y03289*
X0058Y03295*
X00586Y03301*
Y03307*
X0058*
X00574Y03301*
X00568Y03307*
X00562*
Y03301*
X00568Y03295*
X00562Y03289*
Y03283*
X00633Y03275D02*
X00643D01*
X00653Y03285*
X00663Y03275*
X00673*
Y03285*
X00663Y03295*
X00673Y03305*
Y03315*
X00663*
X00653Y03305*
X00643Y03315*
X00633*
Y03305*
X00643Y03295*
X00633Y03285*
Y03275*
X00641Y03283D02*
X00647D01*
X00653Y03289*
X00659Y03283*
X00665*
Y03289*
X00659Y03295*
X00665Y03301*
Y03307*
X00659*
X00653Y03301*
X00647Y03307*
X00641*
Y03301*
X00647Y03295*
X00641Y03289*
Y03283*
X00633Y03196D02*
X00643D01*
X00653Y03206*
X00663Y03196*
X00673*
Y03206*
X00663Y03216*
X00673Y03226*
Y03236*
X00663*
X00653Y03226*
X00643Y03236*
X00633*
Y03226*
X00643Y03216*
X00633Y03206*
Y03196*
X00641Y03204D02*
X00647D01*
X00653Y0321*
X00659Y03204*
X00665*
Y0321*
X00659Y03216*
X00665Y03222*
Y03228*
X00659*
X00653Y03222*
X00647Y03228*
X00641*
Y03222*
X00647Y03216*
X00641Y0321*
Y03204*
X00869Y03196D02*
X00879D01*
X00889Y03206*
X00899Y03196*
X00909*
Y03206*
X00899Y03216*
X00909Y03226*
Y03236*
X00899*
X00889Y03226*
X00879Y03236*
X00869*
Y03226*
X00879Y03216*
X00869Y03206*
Y03196*
X00877Y03204D02*
X00883D01*
X00889Y0321*
X00895Y03204*
X00901*
Y0321*
X00895Y03216*
X00901Y03222*
Y03228*
X00895*
X00889Y03222*
X00883Y03228*
X00877*
Y03222*
X00883Y03216*
X00877Y0321*
Y03204*
X00791Y03196D02*
X00801D01*
X00811Y03206*
X00821Y03196*
X00831*
Y03206*
X00821Y03216*
X00831Y03226*
Y03236*
X00821*
X00811Y03226*
X00801Y03236*
X00791*
Y03226*
X00801Y03216*
X00791Y03206*
Y03196*
X00799Y03204D02*
X00805D01*
X00811Y0321*
X00817Y03204*
X00823*
Y0321*
X00817Y03216*
X00823Y03222*
Y03228*
X00817*
X00811Y03222*
X00805Y03228*
X00799*
Y03222*
X00805Y03216*
X00799Y0321*
Y03204*
X00791Y03275D02*
X00801D01*
X00811Y03285*
X00821Y03275*
X00831*
Y03285*
X00821Y03295*
X00831Y03305*
Y03315*
X00821*
X00811Y03305*
X00801Y03315*
X00791*
Y03305*
X00801Y03295*
X00791Y03285*
Y03275*
X00799Y03283D02*
X00805D01*
X00811Y03289*
X00817Y03283*
X00823*
Y03289*
X00817Y03295*
X00823Y03301*
Y03307*
X00817*
X00811Y03301*
X00805Y03307*
X00799*
Y03301*
X00805Y03295*
X00799Y03289*
Y03283*
X00909Y02995D02*
X00919D01*
X00929Y03005*
X00939Y02995*
X00949*
Y03005*
X00939Y03015*
X00949Y03025*
Y03035*
X00939*
X00929Y03025*
X00919Y03035*
X00909*
Y03025*
X00919Y03015*
X00909Y03005*
Y02995*
X00917Y03003D02*
X00923D01*
X00929Y03009*
X00935Y03003*
X00941*
Y03009*
X00935Y03015*
X00941Y03021*
Y03027*
X00935*
X00929Y03021*
X00923Y03027*
X00917*
Y03021*
X00923Y03015*
X00917Y03009*
Y03003*
X02846Y02125D02*
X02856D01*
X02866Y02135*
X02876Y02125*
X02886*
Y02135*
X02876Y02145*
X02886Y02155*
Y02165*
X02876*
X02866Y02155*
X02856Y02165*
X02846*
Y02155*
X02856Y02145*
X02846Y02135*
Y02125*
X02854Y02133D02*
X0286D01*
X02866Y02139*
X02872Y02133*
X02878*
Y02139*
X02872Y02145*
X02878Y02151*
Y02157*
X02872*
X02866Y02151*
X0286Y02157*
X02854*
Y02151*
X0286Y02145*
X02854Y02139*
Y02133*
X02846Y02393D02*
X02856D01*
X02866Y02403*
X02876Y02393*
X02886*
Y02403*
X02876Y02413*
X02886Y02423*
Y02433*
X02876*
X02866Y02423*
X02856Y02433*
X02846*
Y02423*
X02856Y02413*
X02846Y02403*
Y02393*
X02854Y02401D02*
X0286D01*
X02866Y02407*
X02872Y02401*
X02878*
Y02407*
X02872Y02413*
X02878Y02419*
Y02425*
X02872*
X02866Y02419*
X0286Y02425*
X02854*
Y02419*
X0286Y02413*
X02854Y02407*
Y02401*
X02846Y02338D02*
X02856D01*
X02866Y02348*
X02876Y02338*
X02886*
Y02348*
X02876Y02358*
X02886Y02368*
Y02378*
X02876*
X02866Y02368*
X02856Y02378*
X02846*
Y02368*
X02856Y02358*
X02846Y02348*
Y02338*
X02854Y02346D02*
X0286D01*
X02866Y02352*
X02872Y02346*
X02878*
Y02352*
X02872Y02358*
X02878Y02364*
Y0237*
X02872*
X02866Y02364*
X0286Y0237*
X02854*
Y02364*
X0286Y02358*
X02854Y02352*
Y02346*
X02058Y01932D02*
X02068D01*
X02078Y01942*
X02088Y01932*
X02098*
Y01942*
X02088Y01952*
X02098Y01962*
Y01972*
X02088*
X02078Y01962*
X02068Y01972*
X02058*
Y01962*
X02068Y01952*
X02058Y01942*
Y01932*
X02066Y0194D02*
X02072D01*
X02078Y01946*
X02084Y0194*
X0209*
Y01946*
X02084Y01952*
X0209Y01958*
Y01964*
X02084*
X02078Y01958*
X02072Y01964*
X02066*
Y01958*
X02072Y01952*
X02066Y01946*
Y0194*
X01618Y032D02*
Y03234D01*
X01634Y0325*
X01651Y03234*
Y032*
Y03225*
X01618*
X01357Y0157D02*
X01367D01*
X01377Y0158*
X01387Y0157*
X01397*
Y0158*
X01387Y0159*
X01397Y016*
Y0161*
X01387*
X01377Y016*
X01367Y0161*
X01357*
Y016*
X01367Y0159*
X01357Y0158*
Y0157*
X01365Y01578D02*
X01371D01*
X01377Y01584*
X01383Y01578*
X01389*
Y01584*
X01383Y0159*
X01389Y01596*
Y01602*
X01383*
X01377Y01596*
X01371Y01602*
X01365*
Y01596*
X01371Y0159*
X01365Y01584*
Y01578*
X01584Y02822D02*
Y02856D01*
X01601Y02872*
X01617Y02856*
Y02822*
Y02847*
X01584*
X02846Y0218D02*
X02856D01*
X02866Y0219*
X02876Y0218*
X02886*
Y0219*
X02876Y022*
X02886Y0221*
Y0222*
X02876*
X02866Y0221*
X02856Y0222*
X02846*
Y0221*
X02856Y022*
X02846Y0219*
Y0218*
X02854Y02188D02*
X0286D01*
X02866Y02194*
X02872Y02188*
X02878*
Y02194*
X02872Y022*
X02878Y02206*
Y02212*
X02872*
X02866Y02206*
X0286Y02212*
X02854*
Y02206*
X0286Y022*
X02854Y02194*
Y02188*
X01661Y01991D02*
X01671D01*
X01681Y02001*
X01691Y01991*
X01701*
Y02001*
X01691Y02011*
X01701Y02021*
Y02031*
X01691*
X01681Y02021*
X01671Y02031*
X01661*
Y02021*
X01671Y02011*
X01661Y02001*
Y01991*
X01669Y01999D02*
X01675D01*
X01681Y02005*
X01687Y01999*
X01693*
Y02005*
X01687Y02011*
X01693Y02017*
Y02023*
X01687*
X01681Y02017*
X01675Y02023*
X01669*
Y02017*
X01675Y02011*
X01669Y02005*
Y01999*
X00869Y03511D02*
X00879D01*
X00889Y03521*
X00899Y03511*
X00909*
Y03521*
X00899Y03531*
X00909Y03541*
Y03551*
X00899*
X00889Y03541*
X00879Y03551*
X00869*
Y03541*
X00879Y03531*
X00869Y03521*
Y03511*
X00877Y03519D02*
X00883D01*
X00889Y03525*
X00895Y03519*
X00901*
Y03525*
X00895Y03531*
X00901Y03537*
Y03543*
X00895*
X00889Y03537*
X00883Y03543*
X00877*
Y03537*
X00883Y03531*
X00877Y03525*
Y03519*
X00869Y03432D02*
X00879D01*
X00889Y03442*
X00899Y03432*
X00909*
Y03442*
X00899Y03452*
X00909Y03462*
Y03472*
X00899*
X00889Y03462*
X00879Y03472*
X00869*
Y03462*
X00879Y03452*
X00869Y03442*
Y03432*
X00877Y0344D02*
X00883D01*
X00889Y03446*
X00895Y0344*
X00901*
Y03446*
X00895Y03452*
X00901Y03458*
Y03464*
X00895*
X00889Y03458*
X00883Y03464*
X00877*
Y03458*
X00883Y03452*
X00877Y03446*
Y0344*
X00869Y03354D02*
X00879D01*
X00889Y03364*
X00899Y03354*
X00909*
Y03364*
X00899Y03374*
X00909Y03384*
Y03394*
X00899*
X00889Y03384*
X00879Y03394*
X00869*
Y03384*
X00879Y03374*
X00869Y03364*
Y03354*
X00877Y03362D02*
X00883D01*
X00889Y03368*
X00895Y03362*
X00901*
Y03368*
X00895Y03374*
X00901Y0338*
Y03386*
X00895*
X00889Y0338*
X00883Y03386*
X00877*
Y0338*
X00883Y03374*
X00877Y03368*
Y03362*
X00554Y03354D02*
X00564D01*
X00574Y03364*
X00584Y03354*
X00594*
Y03364*
X00584Y03374*
X00594Y03384*
Y03394*
X00584*
X00574Y03384*
X00564Y03394*
X00554*
Y03384*
X00564Y03374*
X00554Y03364*
Y03354*
X00562Y03362D02*
X00568D01*
X00574Y03368*
X0058Y03362*
X00586*
Y03368*
X0058Y03374*
X00586Y0338*
Y03386*
X0058*
X00574Y0338*
X00568Y03386*
X00562*
Y0338*
X00568Y03374*
X00562Y03368*
Y03362*
X00633Y03354D02*
X00643D01*
X00653Y03364*
X00663Y03354*
X00673*
Y03364*
X00663Y03374*
X00673Y03384*
Y03394*
X00663*
X00653Y03384*
X00643Y03394*
X00633*
Y03384*
X00643Y03374*
X00633Y03364*
Y03354*
X00641Y03362D02*
X00647D01*
X00653Y03368*
X00659Y03362*
X00665*
Y03368*
X00659Y03374*
X00665Y0338*
Y03386*
X00659*
X00653Y0338*
X00647Y03386*
X00641*
Y0338*
X00647Y03374*
X00641Y03368*
Y03362*
X00712Y03354D02*
X00722D01*
X00732Y03364*
X00742Y03354*
X00752*
Y03364*
X00742Y03374*
X00752Y03384*
Y03394*
X00742*
X00732Y03384*
X00722Y03394*
X00712*
Y03384*
X00722Y03374*
X00712Y03364*
Y03354*
X0072Y03362D02*
X00726D01*
X00732Y03368*
X00738Y03362*
X00744*
Y03368*
X00738Y03374*
X00744Y0338*
Y03386*
X00738*
X00732Y0338*
X00726Y03386*
X0072*
Y0338*
X00726Y03374*
X0072Y03368*
Y03362*
X00791Y03354D02*
X00801D01*
X00811Y03364*
X00821Y03354*
X00831*
Y03364*
X00821Y03374*
X00831Y03384*
Y03394*
X00821*
X00811Y03384*
X00801Y03394*
X00791*
Y03384*
X00801Y03374*
X00791Y03364*
Y03354*
X00799Y03362D02*
X00805D01*
X00811Y03368*
X00817Y03362*
X00823*
Y03368*
X00817Y03374*
X00823Y0338*
Y03386*
X00817*
X00811Y0338*
X00805Y03386*
X00799*
Y0338*
X00805Y03374*
X00799Y03368*
Y03362*
X00712Y03432D02*
X00722D01*
X00732Y03442*
X00742Y03432*
X00752*
Y03442*
X00742Y03452*
X00752Y03462*
Y03472*
X00742*
X00732Y03462*
X00722Y03472*
X00712*
Y03462*
X00722Y03452*
X00712Y03442*
Y03432*
X0072Y0344D02*
X00726D01*
X00732Y03446*
X00738Y0344*
X00744*
Y03446*
X00738Y03452*
X00744Y03458*
Y03464*
X00738*
X00732Y03458*
X00726Y03464*
X0072*
Y03458*
X00726Y03452*
X0072Y03446*
Y0344*
X00791Y03432D02*
X00801D01*
X00811Y03442*
X00821Y03432*
X00831*
Y03442*
X00821Y03452*
X00831Y03462*
Y03472*
X00821*
X00811Y03462*
X00801Y03472*
X00791*
Y03462*
X00801Y03452*
X00791Y03442*
Y03432*
X00799Y0344D02*
X00805D01*
X00811Y03446*
X00817Y0344*
X00823*
Y03446*
X00817Y03452*
X00823Y03458*
Y03464*
X00817*
X00811Y03458*
X00805Y03464*
X00799*
Y03458*
X00805Y03452*
X00799Y03446*
Y0344*
X00712Y03511D02*
X00722D01*
X00732Y03521*
X00742Y03511*
X00752*
Y03521*
X00742Y03531*
X00752Y03541*
Y03551*
X00742*
X00732Y03541*
X00722Y03551*
X00712*
Y03541*
X00722Y03531*
X00712Y03521*
Y03511*
X0072Y03519D02*
X00726D01*
X00732Y03525*
X00738Y03519*
X00744*
Y03525*
X00738Y03531*
X00744Y03537*
Y03543*
X00738*
X00732Y03537*
X00726Y03543*
X0072*
Y03537*
X00726Y03531*
X0072Y03525*
Y03519*
X00791Y03511D02*
X00801D01*
X00811Y03521*
X00821Y03511*
X00831*
Y03521*
X00821Y03531*
X00831Y03541*
Y03551*
X00821*
X00811Y03541*
X00801Y03551*
X00791*
Y03541*
X00801Y03531*
X00791Y03521*
Y03511*
X00799Y03519D02*
X00805D01*
X00811Y03525*
X00817Y03519*
X00823*
Y03525*
X00817Y03531*
X00823Y03537*
Y03543*
X00817*
X00811Y03537*
X00805Y03543*
X00799*
Y03537*
X00805Y03531*
X00799Y03525*
Y03519*
X00554Y03432D02*
X00564D01*
X00574Y03442*
X00584Y03432*
X00594*
Y03442*
X00584Y03452*
X00594Y03462*
Y03472*
X00584*
X00574Y03462*
X00564Y03472*
X00554*
Y03462*
X00564Y03452*
X00554Y03442*
Y03432*
X00562Y0344D02*
X00568D01*
X00574Y03446*
X0058Y0344*
X00586*
Y03446*
X0058Y03452*
X00586Y03458*
Y03464*
X0058*
X00574Y03458*
X00568Y03464*
X00562*
Y03458*
X00568Y03452*
X00562Y03446*
Y0344*
X00633Y03432D02*
X00643D01*
X00653Y03442*
X00663Y03432*
X00673*
Y03442*
X00663Y03452*
X00673Y03462*
Y03472*
X00663*
X00653Y03462*
X00643Y03472*
X00633*
Y03462*
X00643Y03452*
X00633Y03442*
Y03432*
X00641Y0344D02*
X00647D01*
X00653Y03446*
X00659Y0344*
X00665*
Y03446*
X00659Y03452*
X00665Y03458*
Y03464*
X00659*
X00653Y03458*
X00647Y03464*
X00641*
Y03458*
X00647Y03452*
X00641Y03446*
Y0344*
X00633Y03511D02*
X00643D01*
X00653Y03521*
X00663Y03511*
X00673*
Y03521*
X00663Y03531*
X00673Y03541*
Y03551*
X00663*
X00653Y03541*
X00643Y03551*
X00633*
Y03541*
X00643Y03531*
X00633Y03521*
Y03511*
X00641Y03519D02*
X00647D01*
X00653Y03525*
X00659Y03519*
X00665*
Y03525*
X00659Y03531*
X00665Y03537*
Y03543*
X00659*
X00653Y03537*
X00647Y03543*
X00641*
Y03537*
X00647Y03531*
X00641Y03525*
Y03519*
X00554Y03511D02*
X00564D01*
X00574Y03521*
X00584Y03511*
X00594*
Y03521*
X00584Y03531*
X00594Y03541*
Y03551*
X00584*
X00574Y03541*
X00564Y03551*
X00554*
Y03541*
X00564Y03531*
X00554Y03521*
Y03511*
X00562Y03519D02*
X00568D01*
X00574Y03525*
X0058Y03519*
X00586*
Y03525*
X0058Y03531*
X00586Y03537*
Y03543*
X0058*
X00574Y03537*
X00568Y03543*
X00562*
Y03537*
X00568Y03531*
X00562Y03525*
Y03519*
X01602Y0205D02*
X01612D01*
X01622Y0206*
X01632Y0205*
X01642*
Y0206*
X01632Y0207*
X01642Y0208*
Y0209*
X01632*
X01622Y0208*
X01612Y0209*
X01602*
Y0208*
X01612Y0207*
X01602Y0206*
Y0205*
X0161Y02058D02*
X01616D01*
X01622Y02064*
X01628Y02058*
X01634*
Y02064*
X01628Y0207*
X01634Y02076*
Y02082*
X01628*
X01622Y02076*
X01616Y02082*
X0161*
Y02076*
X01616Y0207*
X0161Y02064*
Y02058*
X03409Y05042D02*
X03419D01*
X03429Y05052*
X03439Y05042*
X03449*
Y05052*
X03439Y05062*
X03449Y05072*
Y05082*
X03439*
X03429Y05072*
X03419Y05082*
X03409*
Y05072*
X03419Y05062*
X03409Y05052*
Y05042*
X03417Y0505D02*
X03423D01*
X03429Y05056*
X03435Y0505*
X03441*
Y05056*
X03435Y05062*
X03441Y05068*
Y05074*
X03435*
X03429Y05068*
X03423Y05074*
X03417*
Y05068*
X03423Y05062*
X03417Y05056*
Y0505*
X03487Y05042D02*
X03497D01*
X03507Y05052*
X03517Y05042*
X03527*
Y05052*
X03517Y05062*
X03527Y05072*
Y05082*
X03517*
X03507Y05072*
X03497Y05082*
X03487*
Y05072*
X03497Y05062*
X03487Y05052*
Y05042*
X03495Y0505D02*
X03501D01*
X03507Y05056*
X03513Y0505*
X03519*
Y05056*
X03513Y05062*
X03519Y05068*
Y05074*
X03513*
X03507Y05068*
X03501Y05074*
X03495*
Y05068*
X03501Y05062*
X03495Y05056*
Y0505*
X03645Y05042D02*
X03655D01*
X03665Y05052*
X03675Y05042*
X03685*
Y05052*
X03675Y05062*
X03685Y05072*
Y05082*
X03675*
X03665Y05072*
X03655Y05082*
X03645*
Y05072*
X03655Y05062*
X03645Y05052*
Y05042*
X03653Y0505D02*
X03659D01*
X03665Y05056*
X03671Y0505*
X03677*
Y05056*
X03671Y05062*
X03677Y05068*
Y05074*
X03671*
X03665Y05068*
X03659Y05074*
X03653*
Y05068*
X03659Y05062*
X03653Y05056*
Y0505*
X03566Y05042D02*
X03576D01*
X03586Y05052*
X03596Y05042*
X03606*
Y05052*
X03596Y05062*
X03606Y05072*
Y05082*
X03596*
X03586Y05072*
X03576Y05082*
X03566*
Y05072*
X03576Y05062*
X03566Y05052*
Y05042*
X03574Y0505D02*
X0358D01*
X03586Y05056*
X03592Y0505*
X03598*
Y05056*
X03592Y05062*
X03598Y05068*
Y05074*
X03592*
X03586Y05068*
X0358Y05074*
X03574*
Y05068*
X0358Y05062*
X03574Y05056*
Y0505*
X03251Y05042D02*
X03261D01*
X03271Y05052*
X03281Y05042*
X03291*
Y05052*
X03281Y05062*
X03291Y05072*
Y05082*
X03281*
X03271Y05072*
X03261Y05082*
X03251*
Y05072*
X03261Y05062*
X03251Y05052*
Y05042*
X03259Y0505D02*
X03265D01*
X03271Y05056*
X03277Y0505*
X03283*
Y05056*
X03277Y05062*
X03283Y05068*
Y05074*
X03277*
X03271Y05068*
X03265Y05074*
X03259*
Y05068*
X03265Y05062*
X03259Y05056*
Y0505*
X0333Y05042D02*
X0334D01*
X0335Y05052*
X0336Y05042*
X0337*
Y05052*
X0336Y05062*
X0337Y05072*
Y05082*
X0336*
X0335Y05072*
X0334Y05082*
X0333*
Y05072*
X0334Y05062*
X0333Y05052*
Y05042*
X03338Y0505D02*
X03344D01*
X0335Y05056*
X03356Y0505*
X03362*
Y05056*
X03356Y05062*
X03362Y05068*
Y05074*
X03356*
X0335Y05068*
X03344Y05074*
X03338*
Y05068*
X03344Y05062*
X03338Y05056*
Y0505*
X03172Y05042D02*
X03182D01*
X03192Y05052*
X03202Y05042*
X03212*
Y05052*
X03202Y05062*
X03212Y05072*
Y05082*
X03202*
X03192Y05072*
X03182Y05082*
X03172*
Y05072*
X03182Y05062*
X03172Y05052*
Y05042*
X0318Y0505D02*
X03186D01*
X03192Y05056*
X03198Y0505*
X03204*
Y05056*
X03198Y05062*
X03204Y05068*
Y05074*
X03198*
X03192Y05068*
X03186Y05074*
X0318*
Y05068*
X03186Y05062*
X0318Y05056*
Y0505*
X03094Y05042D02*
X03104D01*
X03114Y05052*
X03124Y05042*
X03134*
Y05052*
X03124Y05062*
X03134Y05072*
Y05082*
X03124*
X03114Y05072*
X03104Y05082*
X03094*
Y05072*
X03104Y05062*
X03094Y05052*
Y05042*
X03102Y0505D02*
X03108D01*
X03114Y05056*
X0312Y0505*
X03126*
Y05056*
X0312Y05062*
X03126Y05068*
Y05074*
X0312*
X03114Y05068*
X03108Y05074*
X03102*
Y05068*
X03108Y05062*
X03102Y05056*
Y0505*
X01905Y04114D02*
Y04147D01*
X01922Y04164*
X01938Y04147*
Y04114*
Y04139*
X01905*
X01826Y04114D02*
Y04147D01*
X01843Y04164*
X0186Y04147*
Y04114*
Y04139*
X01826*
X01748Y04114D02*
Y04147D01*
X01764Y04164*
X01781Y04147*
Y04114*
Y04139*
X01748*
X01669Y04114D02*
Y04147D01*
X01685Y04164*
X01702Y04147*
Y04114*
Y04139*
X01669*
X0159Y04114D02*
Y04147D01*
X01607Y04164*
X01623Y04147*
Y04114*
Y04139*
X0159*
X01553Y03372D02*
Y03405D01*
X01569Y03422*
X01586Y03405*
Y03372*
Y03397*
X01553*
X01554Y03495D02*
Y03528D01*
X0157Y03545*
X01587Y03528*
Y03495*
Y0352*
X01554*
X01553Y03616D02*
Y03649D01*
X01569Y03666*
X01586Y03649*
Y03616*
Y03641*
X01553*
X01554Y03739D02*
Y03772D01*
X0157Y03789*
X01587Y03772*
Y03739*
Y03764*
X01554*
Y03861D02*
Y03894D01*
X0157Y03911*
X01587Y03894*
Y03861*
Y03886*
X01554*
X01553Y03988D02*
Y04021D01*
X01569Y04038*
X01586Y04021*
Y03988*
Y04013*
X01553*
X01584Y0274D02*
Y02773D01*
X01601Y0279*
X01617Y02773*
Y0274*
Y02765*
X01584*
Y02781D02*
Y02814D01*
X01601Y02831*
X01617Y02814*
Y02781*
Y02806*
X01584*
Y02698D02*
Y02732D01*
X01601Y02748*
X01617Y02732*
Y02698*
Y02723*
X01584*
Y02657D02*
Y0269D01*
X01601Y02707*
X01617Y0269*
Y02657*
Y02682*
X01584*
Y02614D02*
Y02647D01*
X01601Y02664*
X01617Y02647*
Y02614*
Y02639*
X01584*
Y02572D02*
Y02606D01*
X01601Y02622*
X01617Y02606*
Y02572*
Y02597*
X01584*
X01357Y01676D02*
X01367D01*
X01377Y01686*
X01387Y01676*
X01397*
Y01686*
X01387Y01696*
X01397Y01706*
Y01716*
X01387*
X01377Y01706*
X01367Y01716*
X01357*
Y01706*
X01367Y01696*
X01357Y01686*
Y01676*
X01365Y01684D02*
X01371D01*
X01377Y0169*
X01383Y01684*
X01389*
Y0169*
X01383Y01696*
X01389Y01702*
Y01708*
X01383*
X01377Y01702*
X01371Y01708*
X01365*
Y01702*
X01371Y01696*
X01365Y0169*
Y01684*
X02523Y01771D02*
X02533D01*
X02543Y01781*
X02553Y01771*
X02563*
Y01781*
X02553Y01791*
X02563Y01801*
Y01811*
X02553*
X02543Y01801*
X02533Y01811*
X02523*
Y01801*
X02533Y01791*
X02523Y01781*
Y01771*
X02531Y01779D02*
X02537D01*
X02543Y01785*
X02549Y01779*
X02555*
Y01785*
X02549Y01791*
X02555Y01797*
Y01803*
X02549*
X02543Y01797*
X02537Y01803*
X02531*
Y01797*
X02537Y01791*
X02531Y01785*
Y01779*
X01566Y0144D02*
X01576D01*
X01586Y0145*
X01596Y0144*
X01606*
Y0145*
X01596Y0146*
X01606Y0147*
Y0148*
X01596*
X01586Y0147*
X01576Y0148*
X01566*
Y0147*
X01576Y0146*
X01566Y0145*
Y0144*
X01574Y01448D02*
X0158D01*
X01586Y01454*
X01592Y01448*
X01598*
Y01454*
X01592Y0146*
X01598Y01466*
Y01472*
X01592*
X01586Y01466*
X0158Y01472*
X01574*
Y01466*
X0158Y0146*
X01574Y01454*
Y01448*
X02578Y01629D02*
X02588D01*
X02598Y01639*
X02608Y01629*
X02618*
Y01639*
X02608Y01649*
X02618Y01659*
Y01669*
X02608*
X02598Y01659*
X02588Y01669*
X02578*
Y01659*
X02588Y01649*
X02578Y01639*
Y01629*
X02586Y01637D02*
X02592D01*
X02598Y01643*
X02604Y01637*
X0261*
Y01643*
X02604Y01649*
X0261Y01655*
Y01661*
X02604*
X02598Y01655*
X02592Y01661*
X02586*
Y01655*
X02592Y01649*
X02586Y01643*
Y01637*
X02133Y01913D02*
X02143D01*
X02153Y01923*
X02163Y01913*
X02173*
Y01923*
X02163Y01933*
X02173Y01943*
Y01953*
X02163*
X02153Y01943*
X02143Y01953*
X02133*
Y01943*
X02143Y01933*
X02133Y01923*
Y01913*
X02141Y01921D02*
X02147D01*
X02153Y01927*
X02159Y01921*
X02165*
Y01927*
X02159Y01933*
X02165Y01939*
Y01945*
X02159*
X02153Y01939*
X02147Y01945*
X02141*
Y01939*
X02147Y01933*
X02141Y01927*
Y01921*
X0207Y0172D02*
X0208D01*
X0209Y0173*
X021Y0172*
X0211*
Y0173*
X021Y0174*
X0211Y0175*
Y0176*
X021*
X0209Y0175*
X0208Y0176*
X0207*
Y0175*
X0208Y0174*
X0207Y0173*
Y0172*
X02078Y01728D02*
X02084D01*
X0209Y01734*
X02096Y01728*
X02102*
Y01734*
X02096Y0174*
X02102Y01746*
Y01752*
X02096*
X0209Y01746*
X02084Y01752*
X02078*
Y01746*
X02084Y0174*
X02078Y01734*
Y01728*
X02259Y0135D02*
X02269D01*
X02279Y0136*
X02289Y0135*
X02299*
Y0136*
X02289Y0137*
X02299Y0138*
Y0139*
X02289*
X02279Y0138*
X02269Y0139*
X02259*
Y0138*
X02269Y0137*
X02259Y0136*
Y0135*
X02267Y01358D02*
X02273D01*
X02279Y01364*
X02285Y01358*
X02291*
Y01364*
X02285Y0137*
X02291Y01376*
Y01382*
X02285*
X02279Y01376*
X02273Y01382*
X02267*
Y01376*
X02273Y0137*
X02267Y01364*
Y01358*
X0244Y01617D02*
X0245D01*
X0246Y01627*
X0247Y01617*
X0248*
Y01627*
X0247Y01637*
X0248Y01647*
Y01657*
X0247*
X0246Y01647*
X0245Y01657*
X0244*
Y01647*
X0245Y01637*
X0244Y01627*
Y01617*
X02448Y01625D02*
X02454D01*
X0246Y01631*
X02466Y01625*
X02472*
Y01631*
X02466Y01637*
X02472Y01643*
Y01649*
X02466*
X0246Y01643*
X02454Y01649*
X02448*
Y01643*
X02454Y01637*
X02448Y01631*
Y01625*
X02188Y01739D02*
X02198D01*
X02208Y01749*
X02218Y01739*
X02228*
Y01749*
X02218Y01759*
X02228Y01769*
Y01779*
X02218*
X02208Y01769*
X02198Y01779*
X02188*
Y01769*
X02198Y01759*
X02188Y01749*
Y01739*
X02196Y01747D02*
X02202D01*
X02208Y01753*
X02214Y01747*
X0222*
Y01753*
X02214Y01759*
X0222Y01765*
Y01771*
X02214*
X02208Y01765*
X02202Y01771*
X02196*
Y01765*
X02202Y01759*
X02196Y01753*
Y01747*
X01684Y01747D02*
X01694D01*
X01704Y01757*
X01714Y01747*
X01724*
Y01757*
X01714Y01767*
X01724Y01777*
Y01787*
X01714*
X01704Y01777*
X01694Y01787*
X01684*
Y01777*
X01694Y01767*
X01684Y01757*
Y01747*
X01692Y01755D02*
X01698D01*
X01704Y01761*
X0171Y01755*
X01716*
Y01761*
X0171Y01767*
X01716Y01773*
Y01779*
X0171*
X01704Y01773*
X01698Y01779*
X01692*
Y01773*
X01698Y01767*
X01692Y01761*
Y01755*
X01857Y01747D02*
X01867D01*
X01877Y01757*
X01887Y01747*
X01897*
Y01757*
X01887Y01767*
X01897Y01777*
Y01787*
X01887*
X01877Y01777*
X01867Y01787*
X01857*
Y01777*
X01867Y01767*
X01857Y01757*
Y01747*
X01865Y01755D02*
X01871D01*
X01877Y01761*
X01883Y01755*
X01889*
Y01761*
X01883Y01767*
X01889Y01773*
Y01779*
X01883*
X01877Y01773*
X01871Y01779*
X01865*
Y01773*
X01871Y01767*
X01865Y01761*
Y01755*
G54D133*
X02795Y01748D02*
D01*
X02795Y01749*
X02795Y0175*
X02795Y01752*
X02794Y01753*
X02794Y01754*
X02793Y01756*
X02793Y01757*
X02792Y01758*
X02791Y01759*
X0279Y0176*
X02789Y01761*
X02788Y01762*
X02787Y01763*
X02786Y01764*
X02785Y01765*
X02784Y01766*
X02783Y01766*
X02781Y01767*
X0278Y01767*
X02779Y01767*
X02777Y01767*
X02776Y01768*
X02774*
X02773Y01767*
X02772Y01767*
X0277Y01767*
X02769Y01767*
X02768Y01766*
X02766Y01766*
X02765Y01765*
X02764Y01764*
X02763Y01763*
X02762Y01762*
X02761Y01761*
X0276Y0176*
X02759Y01759*
X02758Y01758*
X02757Y01757*
X02757Y01756*
X02756Y01754*
X02756Y01753*
X02756Y01752*
X02755Y0175*
X02755Y01749*
X02755Y01748*
X02755Y01746*
X02755Y01745*
X02756Y01743*
X02756Y01742*
X02756Y01741*
X02757Y01739*
X02757Y01738*
X02758Y01737*
X02759Y01736*
X0276Y01735*
X02761Y01734*
X02762Y01733*
X02763Y01732*
X02764Y01731*
X02765Y0173*
X02766Y0173*
X02768Y01729*
X02769Y01729*
X0277Y01728*
X02772Y01728*
X02773Y01728*
X02774Y01728*
X02776*
X02777Y01728*
X02779Y01728*
X0278Y01728*
X02781Y01729*
X02783Y01729*
X02784Y0173*
X02785Y0173*
X02786Y01731*
X02787Y01732*
X02788Y01733*
X02789Y01734*
X0279Y01735*
X02791Y01736*
X02792Y01737*
X02793Y01738*
X02793Y01739*
X02794Y01741*
X02794Y01742*
X02795Y01743*
X02795Y01745*
X02795Y01746*
X02795Y01748*
Y01826D02*
D01*
X02795Y01828*
X02795Y01829*
X02795Y0183*
X02794Y01832*
X02794Y01833*
X02793Y01834*
X02793Y01836*
X02792Y01837*
X02791Y01838*
X0279Y01839*
X02789Y0184*
X02788Y01841*
X02787Y01842*
X02786Y01843*
X02785Y01844*
X02784Y01844*
X02783Y01845*
X02781Y01845*
X0278Y01846*
X02779Y01846*
X02777Y01846*
X02776Y01846*
X02774*
X02773Y01846*
X02772Y01846*
X0277Y01846*
X02769Y01845*
X02768Y01845*
X02766Y01844*
X02765Y01844*
X02764Y01843*
X02763Y01842*
X02762Y01841*
X02761Y0184*
X0276Y01839*
X02759Y01838*
X02758Y01837*
X02757Y01836*
X02757Y01834*
X02756Y01833*
X02756Y01832*
X02756Y0183*
X02755Y01829*
X02755Y01828*
X02755Y01826*
X02755Y01825*
X02755Y01823*
X02756Y01822*
X02756Y01821*
X02756Y01819*
X02757Y01818*
X02757Y01817*
X02758Y01816*
X02759Y01815*
X0276Y01813*
X02761Y01812*
X02762Y01811*
X02763Y01811*
X02764Y0181*
X02765Y01809*
X02766Y01808*
X02768Y01808*
X02769Y01807*
X0277Y01807*
X02772Y01807*
X02773Y01806*
X02774Y01806*
X02776*
X02777Y01806*
X02779Y01807*
X0278Y01807*
X02781Y01807*
X02783Y01808*
X02784Y01808*
X02785Y01809*
X02786Y0181*
X02787Y01811*
X02788Y01811*
X02789Y01812*
X0279Y01813*
X02791Y01815*
X02792Y01816*
X02793Y01817*
X02793Y01818*
X02794Y01819*
X02794Y01821*
X02795Y01822*
X02795Y01823*
X02795Y01825*
X02795Y01826*
X02795Y01452D02*
D01*
X02795Y01454*
X02795Y01455*
X02795Y01456*
X02794Y01458*
X02794Y01459*
X02793Y0146*
X02793Y01462*
X02792Y01463*
X02791Y01464*
X0279Y01465*
X02789Y01466*
X02788Y01467*
X02787Y01468*
X02786Y01469*
X02785Y0147*
X02784Y0147*
X02783Y01471*
X02781Y01471*
X0278Y01472*
X02779Y01472*
X02777Y01472*
X02776Y01472*
X02774*
X02773Y01472*
X02772Y01472*
X0277Y01472*
X02769Y01471*
X02768Y01471*
X02766Y0147*
X02765Y0147*
X02764Y01469*
X02763Y01468*
X02762Y01467*
X02761Y01466*
X0276Y01465*
X02759Y01464*
X02758Y01463*
X02757Y01462*
X02757Y0146*
X02756Y01459*
X02756Y01458*
X02756Y01456*
X02755Y01455*
X02755Y01454*
X02755Y01452*
X02755Y01451*
X02755Y01449*
X02756Y01448*
X02756Y01447*
X02756Y01445*
X02757Y01444*
X02757Y01443*
X02758Y01442*
X02759Y01441*
X0276Y01439*
X02761Y01438*
X02762Y01437*
X02763Y01436*
X02764Y01436*
X02765Y01435*
X02766Y01434*
X02768Y01434*
X02769Y01433*
X0277Y01433*
X02772Y01433*
X02773Y01432*
X02774Y01432*
X02776*
X02777Y01432*
X02779Y01433*
X0278Y01433*
X02781Y01433*
X02783Y01434*
X02784Y01434*
X02785Y01435*
X02786Y01436*
X02787Y01436*
X02788Y01437*
X02789Y01438*
X0279Y01439*
X02791Y01441*
X02792Y01442*
X02793Y01443*
X02793Y01444*
X02794Y01445*
X02794Y01447*
X02795Y01448*
X02795Y01449*
X02795Y01451*
X02795Y01452*
X02795Y01531D02*
D01*
X02795Y01532*
X02795Y01534*
X02795Y01535*
X02794Y01537*
X02794Y01538*
X02793Y01539*
X02793Y0154*
X02792Y01542*
X02791Y01543*
X0279Y01544*
X02789Y01545*
X02788Y01546*
X02787Y01547*
X02786Y01548*
X02785Y01548*
X02784Y01549*
X02783Y0155*
X02781Y0155*
X0278Y0155*
X02779Y01551*
X02777Y01551*
X02776Y01551*
X02774*
X02773Y01551*
X02772Y01551*
X0277Y0155*
X02769Y0155*
X02768Y0155*
X02766Y01549*
X02765Y01548*
X02764Y01548*
X02763Y01547*
X02762Y01546*
X02761Y01545*
X0276Y01544*
X02759Y01543*
X02758Y01542*
X02757Y0154*
X02757Y01539*
X02756Y01538*
X02756Y01537*
X02756Y01535*
X02755Y01534*
X02755Y01532*
X02755Y01531*
X02755Y0153*
X02755Y01528*
X02756Y01527*
X02756Y01525*
X02756Y01524*
X02757Y01523*
X02757Y01522*
X02758Y0152*
X02759Y01519*
X0276Y01518*
X02761Y01517*
X02762Y01516*
X02763Y01515*
X02764Y01514*
X02765Y01514*
X02766Y01513*
X02768Y01512*
X02769Y01512*
X0277Y01512*
X02772Y01511*
X02773Y01511*
X02774Y01511*
X02776*
X02777Y01511*
X02779Y01511*
X0278Y01512*
X02781Y01512*
X02783Y01512*
X02784Y01513*
X02785Y01514*
X02786Y01514*
X02787Y01515*
X02788Y01516*
X02789Y01517*
X0279Y01518*
X02791Y01519*
X02792Y0152*
X02793Y01522*
X02793Y01523*
X02794Y01524*
X02794Y01525*
X02795Y01527*
X02795Y01528*
X02795Y0153*
X02795Y01531*
X02797Y02007D02*
D01*
X02797Y02009*
X02796Y0201*
X02796Y02012*
X02796Y02013*
X02795Y02014*
X02795Y02016*
X02794Y02017*
X02794Y02018*
X02793Y02019*
X02792Y0202*
X02791Y02021*
X0279Y02022*
X02789Y02023*
X02788Y02024*
X02787Y02025*
X02785Y02025*
X02784Y02026*
X02783Y02026*
X02782Y02027*
X0278Y02027*
X02779Y02027*
X02777Y02027*
X02776*
X02775Y02027*
X02773Y02027*
X02772Y02027*
X0277Y02026*
X02769Y02026*
X02768Y02025*
X02767Y02025*
X02765Y02024*
X02764Y02023*
X02763Y02022*
X02762Y02021*
X02761Y0202*
X0276Y02019*
X0276Y02018*
X02759Y02017*
X02758Y02016*
X02758Y02014*
X02757Y02013*
X02757Y02012*
X02757Y0201*
X02757Y02009*
X02757Y02007*
X02757Y02006*
X02757Y02005*
X02757Y02003*
X02757Y02002*
X02758Y02001*
X02758Y01999*
X02759Y01998*
X0276Y01997*
X0276Y01996*
X02761Y01995*
X02762Y01993*
X02763Y01993*
X02764Y01992*
X02765Y01991*
X02767Y0199*
X02768Y01989*
X02769Y01989*
X0277Y01988*
X02772Y01988*
X02773Y01988*
X02775Y01987*
X02776Y01987*
X02777*
X02779Y01987*
X0278Y01988*
X02782Y01988*
X02783Y01988*
X02784Y01989*
X02785Y01989*
X02787Y0199*
X02788Y01991*
X02789Y01992*
X0279Y01993*
X02791Y01993*
X02792Y01995*
X02793Y01996*
X02794Y01997*
X02794Y01998*
X02795Y01999*
X02795Y02001*
X02796Y02002*
X02796Y02003*
X02796Y02005*
X02797Y02006*
X02797Y02007*
X02597D02*
D01*
X02597Y02009*
X02596Y0201*
X02596Y02012*
X02596Y02013*
X02595Y02014*
X02595Y02016*
X02594Y02017*
X02594Y02018*
X02593Y02019*
X02592Y0202*
X02591Y02021*
X0259Y02022*
X02589Y02023*
X02588Y02024*
X02587Y02025*
X02585Y02025*
X02584Y02026*
X02583Y02026*
X02582Y02027*
X0258Y02027*
X02579Y02027*
X02577Y02027*
X02576*
X02575Y02027*
X02573Y02027*
X02572Y02027*
X0257Y02026*
X02569Y02026*
X02568Y02025*
X02567Y02025*
X02565Y02024*
X02564Y02023*
X02563Y02022*
X02562Y02021*
X02561Y0202*
X0256Y02019*
X0256Y02018*
X02559Y02017*
X02558Y02016*
X02558Y02014*
X02557Y02013*
X02557Y02012*
X02557Y0201*
X02557Y02009*
X02557Y02007*
X02557Y02006*
X02557Y02005*
X02557Y02003*
X02557Y02002*
X02558Y02001*
X02558Y01999*
X02559Y01998*
X0256Y01997*
X0256Y01996*
X02561Y01995*
X02562Y01993*
X02563Y01993*
X02564Y01992*
X02565Y01991*
X02567Y0199*
X02568Y01989*
X02569Y01989*
X0257Y01988*
X02572Y01988*
X02573Y01988*
X02575Y01987*
X02576Y01987*
X02577*
X02579Y01987*
X0258Y01988*
X02582Y01988*
X02583Y01988*
X02584Y01989*
X02585Y01989*
X02587Y0199*
X02588Y01991*
X02589Y01992*
X0259Y01993*
X02591Y01993*
X02592Y01995*
X02593Y01996*
X02594Y01997*
X02594Y01998*
X02595Y01999*
X02595Y02001*
X02596Y02002*
X02596Y02003*
X02596Y02005*
X02597Y02006*
X02597Y02007*
X02697D02*
D01*
X02697Y02009*
X02696Y0201*
X02696Y02012*
X02696Y02013*
X02695Y02014*
X02695Y02016*
X02694Y02017*
X02694Y02018*
X02693Y02019*
X02692Y0202*
X02691Y02021*
X0269Y02022*
X02689Y02023*
X02688Y02024*
X02687Y02025*
X02685Y02025*
X02684Y02026*
X02683Y02026*
X02682Y02027*
X0268Y02027*
X02679Y02027*
X02677Y02027*
X02676*
X02675Y02027*
X02673Y02027*
X02672Y02027*
X0267Y02026*
X02669Y02026*
X02668Y02025*
X02667Y02025*
X02665Y02024*
X02664Y02023*
X02663Y02022*
X02662Y02021*
X02661Y0202*
X0266Y02019*
X0266Y02018*
X02659Y02017*
X02658Y02016*
X02658Y02014*
X02657Y02013*
X02657Y02012*
X02657Y0201*
X02657Y02009*
X02657Y02007*
X02657Y02006*
X02657Y02005*
X02657Y02003*
X02657Y02002*
X02658Y02001*
X02658Y01999*
X02659Y01998*
X0266Y01997*
X0266Y01996*
X02661Y01995*
X02662Y01993*
X02663Y01993*
X02664Y01992*
X02665Y01991*
X02667Y0199*
X02668Y01989*
X02669Y01989*
X0267Y01988*
X02672Y01988*
X02673Y01988*
X02675Y01987*
X02676Y01987*
X02677*
X02679Y01987*
X0268Y01988*
X02682Y01988*
X02683Y01988*
X02684Y01989*
X02685Y01989*
X02687Y0199*
X02688Y01991*
X02689Y01992*
X0269Y01993*
X02691Y01993*
X02692Y01995*
X02693Y01996*
X02694Y01997*
X02694Y01998*
X02695Y01999*
X02695Y02001*
X02696Y02002*
X02696Y02003*
X02696Y02005*
X02697Y02006*
X02697Y02007*
X00126Y05472D02*
D01*
X00126Y05473*
X00126Y05475*
X00125Y05476*
X00125Y05477*
X00125Y05479*
X00124Y0548*
X00123Y05481*
X00123Y05483*
X00122Y05484*
X00121Y05485*
X0012Y05486*
X00119Y05487*
X00118Y05488*
X00117Y05489*
X00116Y05489*
X00115Y0549*
X00113Y0549*
X00112Y05491*
X00111Y05491*
X00109Y05492*
X00108Y05492*
X00106Y05492*
X00105*
X00104Y05492*
X00102Y05492*
X00101Y05491*
X001Y05491*
X00098Y0549*
X00097Y0549*
X00096Y05489*
X00095Y05489*
X00093Y05488*
X00092Y05487*
X00091Y05486*
X0009Y05485*
X0009Y05484*
X00089Y05483*
X00088Y05481*
X00088Y0548*
X00087Y05479*
X00087Y05477*
X00086Y05476*
X00086Y05475*
X00086Y05473*
X00086Y05472*
X00086Y05471*
X00086Y05469*
X00086Y05468*
X00087Y05466*
X00087Y05465*
X00088Y05464*
X00088Y05463*
X00089Y05461*
X0009Y0546*
X0009Y05459*
X00091Y05458*
X00092Y05457*
X00093Y05456*
X00095Y05455*
X00096Y05455*
X00097Y05454*
X00098Y05453*
X001Y05453*
X00101Y05453*
X00102Y05452*
X00104Y05452*
X00105Y05452*
X00106*
X00108Y05452*
X00109Y05452*
X00111Y05453*
X00112Y05453*
X00113Y05453*
X00115Y05454*
X00116Y05455*
X00117Y05455*
X00118Y05456*
X00119Y05457*
X0012Y05458*
X00121Y05459*
X00122Y0546*
X00123Y05461*
X00123Y05463*
X00124Y05464*
X00125Y05465*
X00125Y05466*
X00125Y05468*
X00126Y05469*
X00126Y05471*
X00126Y05472*
Y05551D02*
D01*
X00126Y05552*
X00126Y05553*
X00125Y05555*
X00125Y05556*
X00125Y05558*
X00124Y05559*
X00123Y0556*
X00123Y05561*
X00122Y05562*
X00121Y05564*
X0012Y05565*
X00119Y05566*
X00118Y05566*
X00117Y05567*
X00116Y05568*
X00115Y05569*
X00113Y05569*
X00112Y0557*
X00111Y0557*
X00109Y0557*
X00108Y05571*
X00106Y05571*
X00105*
X00104Y05571*
X00102Y0557*
X00101Y0557*
X001Y0557*
X00098Y05569*
X00097Y05569*
X00096Y05568*
X00095Y05567*
X00093Y05566*
X00092Y05566*
X00091Y05565*
X0009Y05564*
X0009Y05562*
X00089Y05561*
X00088Y0556*
X00088Y05559*
X00087Y05558*
X00087Y05556*
X00086Y05555*
X00086Y05553*
X00086Y05552*
X00086Y05551*
X00086Y05549*
X00086Y05548*
X00086Y05547*
X00087Y05545*
X00087Y05544*
X00088Y05543*
X00088Y05541*
X00089Y0554*
X0009Y05539*
X0009Y05538*
X00091Y05537*
X00092Y05536*
X00093Y05535*
X00095Y05534*
X00096Y05533*
X00097Y05533*
X00098Y05532*
X001Y05532*
X00101Y05531*
X00102Y05531*
X00104Y05531*
X00105Y05531*
X00106*
X00108Y05531*
X00109Y05531*
X00111Y05531*
X00112Y05532*
X00113Y05532*
X00115Y05533*
X00116Y05533*
X00117Y05534*
X00118Y05535*
X00119Y05536*
X0012Y05537*
X00121Y05538*
X00122Y05539*
X00123Y0554*
X00123Y05541*
X00124Y05543*
X00125Y05544*
X00125Y05545*
X00125Y05547*
X00126Y05548*
X00126Y05549*
X00126Y05551*
Y05629D02*
D01*
X00126Y05631*
X00126Y05632*
X00125Y05634*
X00125Y05635*
X00125Y05636*
X00124Y05638*
X00123Y05639*
X00123Y0564*
X00122Y05641*
X00121Y05642*
X0012Y05643*
X00119Y05644*
X00118Y05645*
X00117Y05646*
X00116Y05647*
X00115Y05647*
X00113Y05648*
X00112Y05648*
X00111Y05649*
X00109Y05649*
X00108Y05649*
X00106Y05649*
X00105*
X00104Y05649*
X00102Y05649*
X00101Y05649*
X001Y05648*
X00098Y05648*
X00097Y05647*
X00096Y05647*
X00095Y05646*
X00093Y05645*
X00092Y05644*
X00091Y05643*
X0009Y05642*
X0009Y05641*
X00089Y0564*
X00088Y05639*
X00088Y05638*
X00087Y05636*
X00087Y05635*
X00086Y05634*
X00086Y05632*
X00086Y05631*
X00086Y05629*
X00086Y05628*
X00086Y05627*
X00086Y05625*
X00087Y05624*
X00087Y05623*
X00088Y05621*
X00088Y0562*
X00089Y05619*
X0009Y05618*
X0009Y05617*
X00091Y05616*
X00092Y05615*
X00093Y05614*
X00095Y05613*
X00096Y05612*
X00097Y05611*
X00098Y05611*
X001Y0561*
X00101Y0561*
X00102Y0561*
X00104Y0561*
X00105Y05609*
X00106*
X00108Y0561*
X00109Y0561*
X00111Y0561*
X00112Y0561*
X00113Y05611*
X00115Y05611*
X00116Y05612*
X00117Y05613*
X00118Y05614*
X00119Y05615*
X0012Y05616*
X00121Y05617*
X00122Y05618*
X00123Y05619*
X00123Y0562*
X00124Y05621*
X00125Y05623*
X00125Y05624*
X00125Y05625*
X00126Y05627*
X00126Y05628*
X00126Y05629*
X00118Y01803D02*
D01*
X00118Y01804*
X00118Y01805*
X00117Y01807*
X00117Y01808*
X00117Y01809*
X00116Y01811*
X00116Y01812*
X00115Y01813*
X00114Y01814*
X00113Y01816*
X00112Y01817*
X00111Y01818*
X0011Y01818*
X00109Y01819*
X00108Y0182*
X00107Y01821*
X00105Y01821*
X00104Y01822*
X00103Y01822*
X00101Y01822*
X001Y01823*
X00099Y01823*
X00097*
X00096Y01823*
X00094Y01822*
X00093Y01822*
X00092Y01822*
X0009Y01821*
X00089Y01821*
X00088Y0182*
X00087Y01819*
X00086Y01818*
X00085Y01818*
X00084Y01817*
X00083Y01816*
X00082Y01814*
X00081Y01813*
X0008Y01812*
X0008Y01811*
X00079Y01809*
X00079Y01808*
X00078Y01807*
X00078Y01805*
X00078Y01804*
X00078Y01803*
X00078Y01801*
X00078Y018*
X00078Y01798*
X00079Y01797*
X00079Y01796*
X0008Y01795*
X0008Y01793*
X00081Y01792*
X00082Y01791*
X00083Y0179*
X00084Y01789*
X00085Y01788*
X00086Y01787*
X00087Y01786*
X00088Y01785*
X00089Y01785*
X0009Y01784*
X00092Y01784*
X00093Y01783*
X00094Y01783*
X00096Y01783*
X00097Y01783*
X00099*
X001Y01783*
X00101Y01783*
X00103Y01783*
X00104Y01784*
X00105Y01784*
X00107Y01785*
X00108Y01785*
X00109Y01786*
X0011Y01787*
X00111Y01788*
X00112Y01789*
X00113Y0179*
X00114Y01791*
X00115Y01792*
X00116Y01793*
X00116Y01795*
X00117Y01796*
X00117Y01797*
X00117Y01798*
X00118Y018*
X00118Y01801*
X00118Y01803*
Y01724D02*
D01*
X00118Y01725*
X00118Y01727*
X00117Y01728*
X00117Y01729*
X00117Y01731*
X00116Y01732*
X00116Y01733*
X00115Y01735*
X00114Y01736*
X00113Y01737*
X00112Y01738*
X00111Y01739*
X0011Y0174*
X00109Y0174*
X00108Y01741*
X00107Y01742*
X00105Y01742*
X00104Y01743*
X00103Y01743*
X00101Y01744*
X001Y01744*
X00099Y01744*
X00097*
X00096Y01744*
X00094Y01744*
X00093Y01743*
X00092Y01743*
X0009Y01742*
X00089Y01742*
X00088Y01741*
X00087Y0174*
X00086Y0174*
X00085Y01739*
X00084Y01738*
X00083Y01737*
X00082Y01736*
X00081Y01735*
X0008Y01733*
X0008Y01732*
X00079Y01731*
X00079Y01729*
X00078Y01728*
X00078Y01727*
X00078Y01725*
X00078Y01724*
X00078Y01723*
X00078Y01721*
X00078Y0172*
X00079Y01718*
X00079Y01717*
X0008Y01716*
X0008Y01715*
X00081Y01713*
X00082Y01712*
X00083Y01711*
X00084Y0171*
X00085Y01709*
X00086Y01708*
X00087Y01707*
X00088Y01707*
X00089Y01706*
X0009Y01705*
X00092Y01705*
X00093Y01705*
X00094Y01704*
X00096Y01704*
X00097Y01704*
X00099*
X001Y01704*
X00101Y01704*
X00103Y01705*
X00104Y01705*
X00105Y01705*
X00107Y01706*
X00108Y01707*
X00109Y01707*
X0011Y01708*
X00111Y01709*
X00112Y0171*
X00113Y01711*
X00114Y01712*
X00115Y01713*
X00116Y01715*
X00116Y01716*
X00117Y01717*
X00117Y01718*
X00117Y0172*
X00118Y01721*
X00118Y01723*
X00118Y01724*
G54D134*
X02789Y02007D02*
D01*
X02789Y02008*
X02789Y02009*
X02788Y0201*
X02788Y02011*
X02788Y02011*
X02788Y02012*
X02787Y02013*
X02787Y02014*
X02786Y02014*
X02786Y02015*
X02785Y02016*
X02785Y02016*
X02784Y02017*
X02783Y02017*
X02783Y02018*
X02782Y02018*
X02781Y02019*
X0278Y02019*
X0278Y02019*
X02779Y02019*
X02778Y02019*
X02777Y02019*
X02776*
X02775Y02019*
X02775Y02019*
X02774Y02019*
X02773Y02019*
X02772Y02019*
X02771Y02018*
X02771Y02018*
X0277Y02017*
X02769Y02017*
X02769Y02016*
X02768Y02016*
X02767Y02015*
X02767Y02014*
X02766Y02014*
X02766Y02013*
X02766Y02012*
X02765Y02011*
X02765Y02011*
X02765Y0201*
X02765Y02009*
X02765Y02008*
X02765Y02007*
X02765Y02007*
X02765Y02006*
X02765Y02005*
X02765Y02004*
X02765Y02003*
X02766Y02002*
X02766Y02002*
X02766Y02001*
X02767Y02*
X02767Y02*
X02768Y01999*
X02769Y01998*
X02769Y01998*
X0277Y01997*
X02771Y01997*
X02771Y01997*
X02772Y01996*
X02773Y01996*
X02774Y01996*
X02775Y01996*
X02775Y01995*
X02776Y01995*
X02777*
X02778Y01995*
X02779Y01996*
X0278Y01996*
X0278Y01996*
X02781Y01996*
X02782Y01997*
X02783Y01997*
X02783Y01997*
X02784Y01998*
X02785Y01998*
X02785Y01999*
X02786Y02*
X02786Y02*
X02787Y02001*
X02787Y02002*
X02788Y02002*
X02788Y02003*
X02788Y02004*
X02788Y02005*
X02789Y02006*
X02789Y02007*
X02789Y02007*
X02589D02*
D01*
X02589Y02008*
X02589Y02009*
X02588Y0201*
X02588Y02011*
X02588Y02011*
X02588Y02012*
X02587Y02013*
X02587Y02014*
X02586Y02014*
X02586Y02015*
X02585Y02016*
X02585Y02016*
X02584Y02017*
X02583Y02017*
X02583Y02018*
X02582Y02018*
X02581Y02019*
X0258Y02019*
X0258Y02019*
X02579Y02019*
X02578Y02019*
X02577Y02019*
X02576*
X02575Y02019*
X02575Y02019*
X02574Y02019*
X02573Y02019*
X02572Y02019*
X02571Y02018*
X02571Y02018*
X0257Y02017*
X02569Y02017*
X02569Y02016*
X02568Y02016*
X02567Y02015*
X02567Y02014*
X02566Y02014*
X02566Y02013*
X02566Y02012*
X02565Y02011*
X02565Y02011*
X02565Y0201*
X02565Y02009*
X02565Y02008*
X02565Y02007*
X02565Y02007*
X02565Y02006*
X02565Y02005*
X02565Y02004*
X02565Y02003*
X02566Y02002*
X02566Y02002*
X02566Y02001*
X02567Y02*
X02567Y02*
X02568Y01999*
X02569Y01998*
X02569Y01998*
X0257Y01997*
X02571Y01997*
X02571Y01997*
X02572Y01996*
X02573Y01996*
X02574Y01996*
X02575Y01996*
X02575Y01995*
X02576Y01995*
X02577*
X02578Y01995*
X02579Y01996*
X0258Y01996*
X0258Y01996*
X02581Y01996*
X02582Y01997*
X02583Y01997*
X02583Y01997*
X02584Y01998*
X02585Y01998*
X02585Y01999*
X02586Y02*
X02586Y02*
X02587Y02001*
X02587Y02002*
X02588Y02002*
X02588Y02003*
X02588Y02004*
X02588Y02005*
X02589Y02006*
X02589Y02007*
X02589Y02007*
X02689D02*
D01*
X02689Y02008*
X02689Y02009*
X02688Y0201*
X02688Y02011*
X02688Y02011*
X02688Y02012*
X02687Y02013*
X02687Y02014*
X02686Y02014*
X02686Y02015*
X02685Y02016*
X02685Y02016*
X02684Y02017*
X02683Y02017*
X02683Y02018*
X02682Y02018*
X02681Y02019*
X0268Y02019*
X0268Y02019*
X02679Y02019*
X02678Y02019*
X02677Y02019*
X02676*
X02675Y02019*
X02675Y02019*
X02674Y02019*
X02673Y02019*
X02672Y02019*
X02671Y02018*
X02671Y02018*
X0267Y02017*
X02669Y02017*
X02669Y02016*
X02668Y02016*
X02667Y02015*
X02667Y02014*
X02666Y02014*
X02666Y02013*
X02666Y02012*
X02665Y02011*
X02665Y02011*
X02665Y0201*
X02665Y02009*
X02665Y02008*
X02665Y02007*
X02665Y02007*
X02665Y02006*
X02665Y02005*
X02665Y02004*
X02665Y02003*
X02666Y02002*
X02666Y02002*
X02666Y02001*
X02667Y02*
X02667Y02*
X02668Y01999*
X02669Y01998*
X02669Y01998*
X0267Y01997*
X02671Y01997*
X02671Y01997*
X02672Y01996*
X02673Y01996*
X02674Y01996*
X02675Y01996*
X02675Y01995*
X02676Y01995*
X02677*
X02678Y01995*
X02679Y01996*
X0268Y01996*
X0268Y01996*
X02681Y01996*
X02682Y01997*
X02683Y01997*
X02683Y01997*
X02684Y01998*
X02685Y01998*
X02685Y01999*
X02686Y02*
X02686Y02*
X02687Y02001*
X02687Y02002*
X02688Y02002*
X02688Y02003*
X02688Y02004*
X02688Y02005*
X02689Y02006*
X02689Y02007*
X02689Y02007*
M02*