%FSTAX23Y23*%
%MOIN*%
%SFA1B1*%

%IPPOS*%
%ADD113C,0.050000*%
%ADD114C,0.030000*%
%ADD115C,0.065000*%
%ADD116O,0.082677X0.039370*%
%ADD117C,0.051181*%
%ADD118C,0.049213*%
%ADD119C,0.074803*%
%ADD120C,0.145669*%
%ADD121C,0.068898*%
%ADD122C,0.040000*%
%ADD123C,0.075984*%
%ADD124C,0.155905*%
%ADD125C,0.041339*%
%ADD126C,0.164000*%
%ADD127C,0.164000*%
%ADD128C,0.164000*%
%ADD129C,0.164000*%
%ADD130C,0.019685*%
%ADD131C,0.015748*%
%LNpms_board_pth_drill-1*%
%LPD*%
G54D113*
X04406Y04735D03*
Y04535D03*
Y04935D03*
X04409Y04058D03*
Y03858D03*
Y04258D03*
G54D114*
X02775Y01748D03*
Y01826D03*
X02775Y01452D03*
X02775Y01531D03*
X00106Y05472D03*
Y05551D03*
Y05629D03*
X00098Y01803D03*
Y01724D03*
G54D115*
X03232Y04428D03*
Y04562D03*
X03762Y04428D03*
Y04562D03*
X03232Y04084D03*
Y04218D03*
X03762Y04084D03*
Y04218D03*
X03232Y03738D03*
Y03872D03*
X03762Y03738D03*
Y03872D03*
X0374Y0124D03*
Y01106D03*
X0321Y0124D03*
Y01106D03*
X0374Y01621D03*
Y01487D03*
X0321Y01621D03*
Y01487D03*
X0374Y02383D03*
Y02249D03*
X0321Y02383D03*
Y02249D03*
X0374Y02765D03*
Y02631D03*
X0321Y02765D03*
Y02631D03*
X0374Y03146D03*
Y03012D03*
X0321Y03146D03*
Y03012D03*
Y03393D03*
Y03527D03*
X0374Y03393D03*
Y03527D03*
X0321Y01868D03*
Y02002D03*
X0374Y01868D03*
Y02002D03*
G54D116*
X04263Y03475D03*
Y031D03*
Y02725D03*
Y0235D03*
Y01224D03*
Y01599D03*
Y01974D03*
G54D117*
X01407Y01248D03*
X01807D03*
X01607D03*
X01407Y00953D03*
X01807D03*
X01607D03*
X02407Y01248D03*
Y00953D03*
G54D118*
X02343Y0465D03*
X02643D03*
X02493D03*
X02793Y0265D03*
X02493D03*
X02193D03*
G54D119*
X02193Y0465D03*
X02793D03*
G54D120*
X00751Y05752D03*
G54D121*
X01566Y05952D03*
Y05552D03*
G54D122*
X02777Y02007D03*
X02577D03*
X02677D03*
G54D123*
X04519Y05275D03*
X04322D03*
X04125D03*
Y05551D03*
X04322D03*
X04519D03*
X04232Y05716D03*
X04035D03*
X03838D03*
Y05992D03*
X04035D03*
X04232D03*
X04Y05275D03*
X03803D03*
X03606D03*
Y05551D03*
X03803D03*
X04D03*
X03712Y05716D03*
X03515D03*
X03318D03*
Y05992D03*
X03515D03*
X03712D03*
X0348Y05275D03*
X03283D03*
X03086D03*
Y05551D03*
X03283D03*
X0348D03*
X03192Y05716D03*
X02996D03*
X02799D03*
Y05992D03*
X02996D03*
X03192D03*
X0296Y05275D03*
X02763D03*
X02566D03*
Y05551D03*
X02763D03*
X0296D03*
X02673Y05716D03*
X02476D03*
X02279D03*
Y05992D03*
X02476D03*
X02673D03*
X0244Y05275D03*
X02244D03*
X02047D03*
Y05551D03*
X02244D03*
X0244D03*
X02153Y05716D03*
X01956D03*
X01759D03*
Y05992D03*
X01956D03*
X02153D03*
G54D124*
X00749Y03898D03*
X00237Y03398D03*
X00748Y05035D03*
X00236Y04535D03*
X01134Y01437D03*
X00622Y00937D03*
X00748Y02755D03*
X00236Y02255D03*
G54D125*
X01767Y04736D03*
Y04637D03*
Y04539D03*
Y04834D03*
Y04933D03*
Y05031D03*
Y05129D03*
X01868Y03517D03*
Y03418D03*
Y0332D03*
Y03615D03*
Y03714D03*
Y03812D03*
Y03911D03*
G54D126*
X04484Y05905D03*
G54D127*
X04484Y00787D03*
G54D128*
X00196Y00787D03*
G54D129*
X00196Y05905D03*
G54D130*
X02602Y01881D03*
X01334Y01464D03*
X00161Y01562D03*
X02472Y01437D03*
X01334Y0248D03*
X01897Y02118D03*
X01531Y02029D03*
X01496Y01763D03*
X01704Y01716D03*
X01381Y01818D03*
X02137Y02307D03*
X00985Y03674D03*
X00842Y04539D03*
X00763D03*
X00685D03*
X00842Y04381D03*
X00763D03*
X00685D03*
Y04618D03*
X00842D03*
X00527Y04539D03*
X00606D03*
Y04381D03*
X00527Y04303D03*
Y04618D03*
X00763Y0446D03*
X00842Y04303D03*
X00763D03*
X00606Y04618D03*
Y0446D03*
X00527Y04381D03*
X00606Y04303D03*
X00685D03*
X00842Y0446D03*
X00527D03*
X00763Y04618D03*
X00685Y0446D03*
X00889Y03295D03*
X00732Y03216D03*
Y03295D03*
X00574Y03216D03*
Y03295D03*
X00653D03*
Y03216D03*
X00889D03*
X00811D03*
Y03295D03*
X00929Y03015D03*
X02866Y02145D03*
Y02413D03*
Y02358D03*
X02078Y01952D03*
X01377Y0159D03*
X02866Y022D03*
X01681Y02011D03*
X00889Y03531D03*
Y03452D03*
Y03374D03*
X00574D03*
X00653D03*
X00732D03*
X00811D03*
X00732Y03452D03*
X00811D03*
X00732Y03531D03*
X00811D03*
X00574Y03452D03*
X00653D03*
Y03531D03*
X00574D03*
X01622Y0207D03*
X03429Y05062D03*
X03507D03*
X03665D03*
X03586D03*
X03271D03*
X0335D03*
X03192D03*
X03114D03*
X01377Y01696D03*
X02543Y01791D03*
X01586Y0146D03*
X02598Y01649D03*
X02153Y01933D03*
X0209Y0174D03*
X02279Y0137D03*
X0246Y01637D03*
X02208Y01759D03*
X01704Y01767D03*
X01877D03*
G54D131*
X01409Y02665D03*
X01618Y032D03*
X01584Y02822D03*
X01905Y04114D03*
X01826D03*
X01748D03*
X01669D03*
X0159D03*
X01553Y03372D03*
X01554Y03495D03*
X01553Y03616D03*
X01554Y03739D03*
Y03861D03*
X01553Y03988D03*
X01584Y0274D03*
Y02781D03*
Y02698D03*
Y02657D03*
Y02614D03*
Y02572D03*
M02*