%FSTAX23Y23*%
%MOIN*%
%SFA1B1*%

%IPPOS*%
%ADD93C,0.010000*%
%ADD94C,0.005000*%
%ADD110C,0.006000*%
%LNpms_board_mechanical_1-1*%
%LPD*%
G54D93*
X-00185Y0065D02*
X-00165Y0059D01*
X-00145Y0065*
X-00165Y06102D02*
X-00145Y06042D01*
X-00185D02*
X-00165Y06102D01*
Y0059D02*
Y03154D01*
Y03506D02*
Y06102D01*
X-00175Y0059D02*
X-00015D01*
X-00175Y06102D02*
X-00015D01*
X04621Y00499D02*
X04681Y00519D01*
X04621Y00539D02*
X04681Y00519D01*
X-00015D02*
X00044Y00539D01*
X-00015Y00519D02*
X00044Y00499D01*
X02487Y00519D02*
X04681D01*
X-00015D02*
X02145D01*
X04681Y00509D02*
Y0072D01*
X-00015Y00509D02*
Y0059D01*
G54D94*
X04484Y0059D02*
D01*
X04497Y00591*
X04511Y00592*
X04525Y00594*
X04538Y00598*
X04551Y00602*
X04564Y00607*
X04576Y00613*
X04588Y0062*
X04599Y00628*
X0461Y00636*
X0462Y00645*
X0463Y00655*
X04639Y00666*
X04647Y00677*
X04654Y00688*
X04661Y00701*
X04666Y00713*
X04671Y00726*
X04675Y00739*
X04678Y00753*
X0468Y00766*
X0468Y0078*
X04681Y00787*
Y05905D02*
D01*
X0468Y05919*
X04679Y05932*
X04676Y05946*
X04673Y05959*
X04669Y05972*
X04664Y05985*
X04658Y05997*
X04651Y06009*
X04643Y06021*
X04635Y06032*
X04625Y06042*
X04615Y06051*
X04605Y0606*
X04594Y06068*
X04582Y06075*
X0457Y06082*
X04557Y06088*
X04545Y06092*
X04531Y06096*
X04518Y06099*
X04504Y06101*
X04491Y06102*
X04484Y06102*
X00196D02*
D01*
X00183Y06101*
X00169Y061*
X00155Y06098*
X00142Y06094*
X00129Y0609*
X00116Y06085*
X00104Y06079*
X00092Y06072*
X00081Y06064*
X0007Y06056*
X0006Y06047*
X0005Y06037*
X00041Y06026*
X00033Y06015*
X00026Y06003*
X00019Y05991*
X00014Y05979*
X00009Y05966*
X00005Y05953*
X00002Y05939*
X00001Y05926*
X0Y05912*
X0Y05905*
Y00787D02*
D01*
X0Y00773*
X00001Y0076*
X00004Y00746*
X00007Y00733*
X00011Y0072*
X00017Y00707*
X00023Y00694*
X00029Y00683*
X00037Y00671*
X00046Y0066*
X00055Y0065*
X00065Y00641*
X00075Y00632*
X00086Y00624*
X00098Y00616*
X0011Y0061*
X00123Y00604*
X00136Y006*
X00149Y00596*
X00162Y00593*
X00176Y00591*
X00189Y0059*
X00196Y0059*
X04484*
X00196Y06102D02*
X04484D01*
X04681Y00787D02*
Y05905D01*
X0Y00787D02*
X0Y05905D01*
G54D110*
X-00129Y0317D02*
Y0319D01*
Y0318*
X-00189*
X-00179Y0317*
X-00129Y0325D02*
X-00189D01*
X-00159Y0322*
Y0326*
X-00179Y0328D02*
X-00189Y0329D01*
Y0331*
X-00179Y0332*
X-00139*
X-00129Y0331*
Y0329*
X-00139Y0328*
X-00179*
X-00129Y0334D02*
X-00139D01*
Y0335*
X-00129*
Y0334*
X-00179Y0339D02*
X-00189Y034D01*
Y0342*
X-00179Y0343*
X-00139*
X-00129Y0342*
Y034*
X-00139Y0339*
X-00179*
Y0345D02*
X-00189Y0346D01*
Y0348*
X-00179Y0349*
X-00139*
X-00129Y0348*
Y0346*
X-00139Y0345*
X-00179*
X02161Y00483D02*
X02181D01*
X02171*
Y00543*
X02161Y00533*
X02211Y00483D02*
X02231D01*
X02221*
Y00543*
X02211Y00533*
X02261Y00493D02*
X02271Y00483D01*
X02291*
X02301Y00493*
Y00533*
X02291Y00543*
X02271*
X02261Y00533*
Y00523*
X02271Y00513*
X02301*
X02321Y00483D02*
Y00493D01*
X02331*
Y00483*
X02321*
X02371Y00533D02*
X02381Y00543D01*
X02401*
X02411Y00533*
Y00523*
X02401Y00513*
X02391*
X02401*
X02411Y00503*
Y00493*
X02401Y00483*
X02381*
X02371Y00493*
X02431Y00533D02*
X02441Y00543D01*
X02461*
X02471Y00533*
Y00493*
X02461Y00483*
X02441*
X02431Y00493*
Y00533*
M02*