%FSTAX23Y23*%
%MOIN*%
%SFA1B1*%

%IPPOS*%
%ADD94C,0.005000*%
%ADD109C,0.003937*%
%LNpms_board_mechanical_13-1*%
%LPD*%
G54D94*
X01355Y00853D02*
X02506D01*
X01355D02*
Y01354D01*
X02505*
X02506Y01353*
Y00853D02*
Y01353D01*
G54D109*
X02019Y01854D02*
D01*
X02019Y01855*
X02019Y01857*
X02019Y01858*
X02018Y01859*
X02018Y01861*
X02017Y01862*
X02017Y01863*
X02016Y01864*
X02015Y01865*
X02015Y01866*
X02014Y01868*
X02013Y01868*
X02012Y01869*
X02011Y0187*
X02009Y01871*
X02008Y01872*
X02007Y01872*
X02006Y01873*
X02004Y01873*
X02003Y01873*
X02002Y01873*
X02Y01874*
X01999*
X01997Y01873*
X01996Y01873*
X01995Y01873*
X01993Y01873*
X01992Y01872*
X01991Y01872*
X0199Y01871*
X01988Y0187*
X01987Y01869*
X01986Y01868*
X01985Y01868*
X01984Y01866*
X01984Y01865*
X01983Y01864*
X01982Y01863*
X01982Y01862*
X01981Y01861*
X01981Y01859*
X0198Y01858*
X0198Y01857*
X0198Y01855*
X0198Y01854*
X0198Y01852*
X0198Y01851*
X0198Y0185*
X01981Y01848*
X01981Y01847*
X01982Y01846*
X01982Y01845*
X01983Y01843*
X01984Y01842*
X01984Y01841*
X01985Y0184*
X01986Y01839*
X01987Y01838*
X01988Y01838*
X0199Y01837*
X01991Y01836*
X01992Y01836*
X01993Y01835*
X01995Y01835*
X01996Y01834*
X01997Y01834*
X01999Y01834*
X02*
X02002Y01834*
X02003Y01834*
X02004Y01835*
X02006Y01835*
X02007Y01836*
X02008Y01836*
X02009Y01837*
X02011Y01838*
X02012Y01838*
X02013Y01839*
X02014Y0184*
X02015Y01841*
X02015Y01842*
X02016Y01843*
X02017Y01845*
X02017Y01846*
X02018Y01847*
X02018Y01848*
X02019Y0185*
X02019Y01851*
X02019Y01852*
X02019Y01854*
X02592Y01254D02*
Y01337D01*
X02643Y01254D02*
Y01337D01*
X02592Y01254D02*
X02643D01*
X02592Y01337D02*
X02643D01*
X02543Y01037D02*
Y01151D01*
X02614Y01037D02*
Y01151D01*
X02543Y01037D02*
X02614D01*
X02543Y01151D02*
X02614D01*
X0262Y01033D02*
Y01163D01*
X02687Y01033D02*
Y01163D01*
X0262D02*
X02687D01*
X0262Y01033D02*
X02687D01*
X02477Y01033D02*
Y01163D01*
X02544Y01033D02*
Y01163D01*
X02477D02*
X02544D01*
X02477Y01033D02*
X02544D01*
X02334D02*
Y01163D01*
X02401Y01033D02*
Y01163D01*
X02334D02*
X02401D01*
X02334Y01033D02*
X02401D01*
X02192D02*
Y01163D01*
X02259Y01033D02*
Y01163D01*
X02192D02*
X02259D01*
X02192Y01033D02*
X02259D01*
X02049Y01034D02*
Y01164D01*
X02116Y01034D02*
Y01164D01*
X02049D02*
X02116D01*
X02049Y01034D02*
X02116D01*
X01907Y01033D02*
Y01163D01*
X01973Y01033D02*
Y01163D01*
X01907D02*
X01973D01*
X01907Y01033D02*
X01973D01*
X01764D02*
Y01163D01*
X01831Y01033D02*
Y01163D01*
X01764D02*
X01831D01*
X01764Y01033D02*
X01831D01*
X01621D02*
Y01163D01*
X01688Y01033D02*
Y01163D01*
X01621D02*
X01688D01*
X01621Y01033D02*
X01688D01*
X01479D02*
Y01163D01*
X01546Y01033D02*
Y01163D01*
X01479D02*
X01546D01*
X01479Y01033D02*
X01546D01*
X01336Y01033D02*
Y01163D01*
X01403Y01033D02*
Y01163D01*
X01336D02*
X01403D01*
X01336Y01033D02*
X01403D01*
X01964Y01543D02*
Y01889D01*
X02122Y01543D02*
Y01889D01*
X01964D02*
X02122D01*
X01964Y01543D02*
X02122D01*
X02415Y01958D02*
X02498D01*
X02415Y01907D02*
X02498D01*
X02415D02*
Y01958D01*
X02498Y01907D02*
Y01958D01*
X02348Y01928D02*
Y0201D01*
X02297Y01928D02*
Y0201D01*
X02348*
X02297Y01928D02*
X02348D01*
X02305Y04879D02*
X02387D01*
X02305Y04828D02*
X02387D01*
X02305D02*
Y04879D01*
X02387Y04828D02*
Y04879D01*
X01888Y01383D02*
X01971D01*
X01888Y01435D02*
X01971D01*
Y01383D02*
Y01435D01*
X01888Y01383D02*
Y01435D01*
X01896Y01513D02*
X01979D01*
X01896Y01462D02*
X01979D01*
X01896D02*
Y01513D01*
X01979Y01462D02*
Y01513D01*
X01659Y01683D02*
X01742D01*
X01659Y01631D02*
X01742D01*
X01659D02*
Y01683D01*
X01742Y01631D02*
Y01683D01*
X0184Y01587D02*
Y0167D01*
X01789Y01587D02*
Y0167D01*
X0184*
X01789Y01587D02*
X0184D01*
X01752Y01848D02*
X01835D01*
X01752Y01899D02*
X01835D01*
Y01848D02*
Y01899D01*
X01752Y01848D02*
Y01899D01*
Y01923D02*
X01835D01*
X01752Y01974D02*
X01835D01*
Y01923D02*
Y01974D01*
X01752Y01923D02*
Y01974D01*
X01355Y02049D02*
X01437D01*
X01355Y021D02*
X01437D01*
Y02049D02*
Y021D01*
X01355Y02049D02*
Y021D01*
X02333Y01379D02*
X02416D01*
X02333Y01431D02*
X02416D01*
Y01379D02*
Y01431D01*
X02333Y01379D02*
Y01431D01*
Y01509D02*
X02416D01*
X02333Y01458D02*
X02416D01*
X02333D02*
Y01509D01*
X02416Y01458D02*
Y01509D01*
X00789Y01813D02*
Y01896D01*
X00738Y01813D02*
Y01896D01*
X00789*
X00738Y01813D02*
X00789D01*
X01805Y0204D02*
Y02123D01*
X01856Y0204D02*
Y02123D01*
X01805Y0204D02*
X01856D01*
X01805Y02123D02*
X01856D01*
X00888Y01848D02*
X00971D01*
X00888Y01797D02*
X00971D01*
X00888D02*
Y01848D01*
X00971Y01797D02*
Y01848D01*
X02198Y01394D02*
Y01477D01*
X0225Y01394D02*
Y01477D01*
X02198Y01394D02*
X0225D01*
X02198Y01477D02*
X0225D01*
X01418Y01616D02*
X015D01*
X01418Y01564D02*
X015D01*
X01418D02*
Y01616D01*
X015Y01564D02*
Y01616D01*
X01356Y0223D02*
X01438D01*
X01356Y02179D02*
X01438D01*
X01356D02*
Y0223D01*
X01438Y02179D02*
Y0223D01*
X02297Y02189D02*
Y02272D01*
X02246Y02189D02*
Y02272D01*
X02297*
X02246Y02189D02*
X02297D01*
X02332Y0169D02*
X02415D01*
X02332Y01742D02*
X02415D01*
Y0169D02*
Y01742D01*
X02332Y0169D02*
Y01742D01*
X02261Y01928D02*
Y0201D01*
X0221Y01928D02*
Y0201D01*
X02261*
X0221Y01928D02*
X02261D01*
X0226Y01816D02*
X02343D01*
X0226Y01765D02*
X02343D01*
X0226D02*
Y01816D01*
X02343Y01765D02*
Y01816D01*
X02171Y01394D02*
Y01477D01*
X0212Y01394D02*
Y01477D01*
X02171*
X0212Y01394D02*
X02171D01*
X02416Y01816D02*
X02499D01*
X02416Y01765D02*
X02499D01*
X02416D02*
Y01816D01*
X02499Y01765D02*
Y01816D01*
X01627Y01486D02*
X0171D01*
X01627Y01435D02*
X0171D01*
X01627D02*
Y01486D01*
X0171Y01435D02*
Y01486D01*
X01434Y01438D02*
X01516D01*
X01434Y0149D02*
X01516D01*
Y01438D02*
Y0149D01*
X01434Y01438D02*
Y0149D01*
X02333Y01612D02*
X02416D01*
X02333Y01663D02*
X02416D01*
Y01612D02*
Y01663D01*
X02333Y01612D02*
Y01663D01*
X01462Y01898D02*
Y01981D01*
X01513Y01898D02*
Y01981D01*
X01462Y01898D02*
X01513D01*
X01462Y01981D02*
X01513D01*
X01418Y01671D02*
X015D01*
X01418Y01722D02*
X015D01*
Y01671D02*
Y01722D01*
X01418Y01671D02*
Y01722D01*
X01611Y03226D02*
X01693D01*
X01611Y03277D02*
X01693D01*
Y03226D02*
Y03277D01*
X01611Y03226D02*
Y03277D01*
X01942Y02666D02*
Y02749D01*
X01994Y02666D02*
Y02749D01*
X01942Y02666D02*
X01994D01*
X01942Y02749D02*
X01994D01*
X01811Y02464D02*
X01893D01*
X01811Y02413D02*
X01893D01*
X01811D02*
Y02464D01*
X01893Y02413D02*
Y02464D01*
X01942Y02532D02*
Y02615D01*
X01994Y02532D02*
Y02615D01*
X01942Y02532D02*
X01994D01*
X01942Y02615D02*
X01994D01*
X01613Y03348D02*
X01695D01*
X01613Y03399D02*
X01695D01*
Y03348D02*
Y03399D01*
X01613Y03348D02*
Y03399D01*
Y0347D02*
X01695D01*
X01613Y03521D02*
X01695D01*
Y0347D02*
Y03521D01*
X01613Y0347D02*
Y03521D01*
Y03592D02*
X01695D01*
X01613Y03643D02*
X01695D01*
Y03592D02*
Y03643D01*
X01613Y03592D02*
Y03643D01*
X01264Y02751D02*
X01347D01*
X01264Y027D02*
X01347D01*
X01264D02*
Y02751D01*
X01347Y027D02*
Y02751D01*
X02009Y04155D02*
Y04238D01*
X01958Y04155D02*
Y04238D01*
X02009*
X01958Y04155D02*
X02009D01*
X01931Y04156D02*
Y04239D01*
X01879Y04156D02*
Y04239D01*
X01931*
X01879Y04156D02*
X01931D01*
X01852D02*
Y04239D01*
X01801Y04156D02*
Y04239D01*
X01852*
X01801Y04156D02*
X01852D01*
X01773D02*
Y04239D01*
X01722Y04156D02*
Y04239D01*
X01773*
X01722Y04156D02*
X01773D01*
X01694D02*
Y04239D01*
X01643Y04156D02*
Y04239D01*
X01694*
X01643Y04156D02*
X01694D01*
X01616D02*
Y04239D01*
X01564Y04156D02*
Y04239D01*
X01616*
X01564Y04156D02*
X01616D01*
X01613Y03714D02*
X01695D01*
X01613Y03765D02*
X01695D01*
Y03714D02*
Y03765D01*
X01613Y03714D02*
Y03765D01*
Y03836D02*
X01695D01*
X01613Y03887D02*
X01695D01*
Y03836D02*
Y03887D01*
X01613Y03836D02*
Y03887D01*
X01614Y03958D02*
X01696D01*
X01614Y04009D02*
X01696D01*
Y03958D02*
Y04009D01*
X01614Y03958D02*
Y04009D01*
X02763Y01207D02*
Y01327D01*
X02708Y01207D02*
Y01327D01*
Y01207D02*
X02763D01*
X02708Y01327D02*
X02763D01*
X00653Y01794D02*
Y01914D01*
X00598Y01794D02*
Y01914D01*
Y01794D02*
X00653D01*
X00598Y01914D02*
X00653D01*
X01242Y01978D02*
X01277D01*
X01242Y02045D02*
X01277D01*
X01242Y01978D02*
Y02045D01*
X01277Y01978D02*
Y02045D01*
X01112Y01978D02*
X01147D01*
X01112Y02045D02*
X01147D01*
X01112Y01978D02*
Y02045D01*
X01147Y01978D02*
Y02045D01*
X021Y02163D02*
X02135D01*
X021Y0223D02*
X02135D01*
X021Y02163D02*
Y0223D01*
X02135Y02163D02*
Y0223D01*
X01721Y02031D02*
X01774D01*
X01721Y02102D02*
X01774D01*
X01721Y02031D02*
Y02102D01*
X01774Y02031D02*
Y02102D01*
X00276Y0183D02*
Y01901D01*
X0039Y0183D02*
Y01901D01*
X00276D02*
X0039D01*
X00276Y0183D02*
X0039D01*
X02342Y01536D02*
Y01589D01*
X02413Y01536D02*
Y01589D01*
X02342D02*
X02413D01*
X02342Y01536D02*
X02413D01*
X01544Y01889D02*
X01597D01*
X01544Y0196D02*
X01597D01*
X01544Y01889D02*
Y0196D01*
X01597Y01889D02*
Y0196D01*
X01382Y02771D02*
Y02842D01*
X01268Y02771D02*
Y02842D01*
Y02771D02*
X01382D01*
X01268Y02842D02*
X01382D01*
X01749Y01742D02*
X01831D01*
X01749Y01793D02*
X01831D01*
Y01742D02*
Y01793D01*
X01749Y01742D02*
Y01793D01*
X02564Y01477D02*
X02631D01*
X02564Y01607D02*
X02631D01*
X02564Y01477D02*
Y01607D01*
X02631Y01477D02*
Y01607D01*
X01535Y03344D02*
X0157D01*
X01535Y03277D02*
X0157D01*
Y03344*
X01535Y03277D02*
Y03344D01*
X01942Y028D02*
Y02882D01*
X01994Y028D02*
Y02882D01*
X01942Y028D02*
X01994D01*
X01942Y02882D02*
X01994D01*
Y02941D02*
Y03024D01*
X01942Y02941D02*
Y03024D01*
X01994*
X01942Y02941D02*
X01994D01*
X01535Y03466D02*
X0157D01*
X01535Y03399D02*
X0157D01*
Y03466*
X01535Y03399D02*
Y03466D01*
Y03588D02*
X0157D01*
X01535Y03521D02*
X0157D01*
Y03588*
X01535Y03521D02*
Y03588D01*
X01322Y02882D02*
Y02965D01*
X01374Y02882D02*
Y02965D01*
X01322Y02882D02*
X01374D01*
X01322Y02965D02*
X01374D01*
X01535Y0371D02*
X0157D01*
X01535Y03643D02*
X0157D01*
Y0371*
X01535Y03643D02*
Y0371D01*
X01304Y03005D02*
X01386D01*
X01304Y03057D02*
X01386D01*
Y03005D02*
Y03057D01*
X01304Y03005D02*
Y03057D01*
Y03135D02*
X01386D01*
X01304Y03084D02*
X01386D01*
X01304D02*
Y03135D01*
X01386Y03084D02*
Y03135D01*
X01535Y03832D02*
X0157D01*
X01535Y03765D02*
X0157D01*
Y03832*
X01535Y03765D02*
Y03832D01*
Y03954D02*
X0157D01*
X01535Y03887D02*
X0157D01*
Y03954*
X01535Y03887D02*
Y03954D01*
M02*