%FSTAX23Y23*%
%MOIN*%
%SFA1B1*%

%IPPOS*%
%ADD23R,0.066929X0.041339*%
%ADD30C,0.100000*%
%ADD31R,0.100000X0.100000*%
%ADD32C,0.050000*%
%ADD33R,0.050000X0.050000*%
%ADD34O,0.130000X0.100000*%
%ADD35R,0.129921X0.086614*%
%ADD36O,0.129921X0.086614*%
%ADD37C,0.094488*%
%ADD38C,0.088583*%
%ADD39C,0.137795*%
%ADD40C,0.098425*%
%ADD41O,0.157480X0.108268*%
%ADD42C,0.060000*%
%ADD43R,0.060000X0.060000*%
%ADD44O,0.118110X0.167323*%
%ADD45C,0.300000*%
%ADD46C,0.068898*%
%ADD47R,0.068898X0.068898*%
%ADD48C,0.275591*%
%ADD51R,0.031496X0.181102*%
%ADD52R,0.425197X0.370079*%
%ADD53R,0.181102X0.031496*%
%ADD54R,0.370079X0.425197*%
%LNpms_board_pads_bot-1*%
%LPD*%
G54D23*
X02653Y01156D03*
Y0104D03*
X0251Y01156D03*
Y0104D03*
X02368Y01156D03*
Y0104D03*
X02225Y01156D03*
Y0104D03*
X02083Y01157D03*
Y01041D03*
X0194Y01156D03*
Y0104D03*
X01797Y01156D03*
Y0104D03*
X01655Y01156D03*
Y0104D03*
X01512Y01156D03*
Y0104D03*
X0137Y01156D03*
Y0104D03*
G54D30*
X04406Y04735D03*
Y04935D03*
X04409Y04058D03*
Y04258D03*
G54D31*
X04406Y04535D03*
X04409Y03858D03*
G54D32*
X02775Y01748D03*
X02775Y01452D03*
X00106Y05472D03*
Y05551D03*
X00098Y01724D03*
G54D33*
X02775Y01826D03*
Y01531D03*
X00106Y05629D03*
X00098Y01803D03*
G54D34*
X03232Y04428D03*
Y04562D03*
X03762Y04428D03*
Y04562D03*
X03232Y04084D03*
Y04218D03*
X03762Y04084D03*
Y04218D03*
X03232Y03738D03*
Y03872D03*
X03762Y03738D03*
Y03872D03*
X0374Y0124D03*
Y01106D03*
X0321Y0124D03*
Y01106D03*
X0374Y01621D03*
Y01487D03*
X0321Y01621D03*
Y01487D03*
X0374Y02383D03*
Y02249D03*
X0321Y02383D03*
Y02249D03*
X0374Y02765D03*
Y02631D03*
X0321Y02765D03*
Y02631D03*
X0374Y03146D03*
Y03012D03*
X0321Y03146D03*
Y03012D03*
Y03393D03*
Y03527D03*
X0374Y03393D03*
Y03527D03*
X0321Y01868D03*
Y02002D03*
X0374Y01868D03*
Y02002D03*
G54D35*
X04263Y03475D03*
G54D36*
X04263Y031D03*
Y02725D03*
Y0235D03*
Y01224D03*
Y01599D03*
Y01974D03*
G54D37*
X01407Y01248D03*
X01807D03*
X01607D03*
X01407Y00953D03*
X01807D03*
X01607D03*
X02407Y01248D03*
Y00953D03*
G54D38*
X02343Y0465D03*
X02643D03*
X02493D03*
Y0265D03*
G54D39*
X02193Y0465D03*
X02793D03*
G54D40*
X02793Y0265D03*
X02193D03*
G54D41*
X01566Y05952D03*
Y05552D03*
G54D42*
X02777Y02007D03*
X02677D03*
G54D43*
X02577Y02007D03*
G54D44*
X04519Y05275D03*
X04322D03*
X04125D03*
Y05551D03*
X04322D03*
X04519D03*
X04232Y05716D03*
X04035D03*
X03838D03*
Y05992D03*
X04035D03*
X04232D03*
X04Y05275D03*
X03803D03*
X03606D03*
Y05551D03*
X03803D03*
X04D03*
X03712Y05716D03*
X03515D03*
X03318D03*
Y05992D03*
X03515D03*
X03712D03*
X0348Y05275D03*
X03283D03*
X03086D03*
Y05551D03*
X03283D03*
X0348D03*
X03192Y05716D03*
X02996D03*
X02799D03*
Y05992D03*
X02996D03*
X03192D03*
X0296Y05275D03*
X02763D03*
X02566D03*
Y05551D03*
X02763D03*
X0296D03*
X02673Y05716D03*
X02476D03*
X02279D03*
Y05992D03*
X02476D03*
X02673D03*
X0244Y05275D03*
X02244D03*
X02047D03*
Y05551D03*
X02244D03*
X0244D03*
X02153Y05716D03*
X01956D03*
X01759D03*
Y05992D03*
X01956D03*
X02153D03*
G54D45*
X00749Y03898D03*
X00237Y03398D03*
X00748Y05035D03*
X00236Y04535D03*
X01134Y01437D03*
X00622Y00937D03*
X00748Y02755D03*
X00236Y02255D03*
G54D46*
X01767Y04736D03*
Y04637D03*
Y04834D03*
Y04933D03*
Y05031D03*
Y05129D03*
X01868Y03517D03*
Y03418D03*
Y03615D03*
Y03714D03*
Y03812D03*
Y03911D03*
G54D47*
X01767Y04539D03*
X01868Y0332D03*
G54D48*
X04484Y05905D03*
Y00787D03*
X00196D03*
Y05905D03*
G54D51*
X00882Y03013D03*
X00832D03*
X00782D03*
X00682D03*
X00632D03*
X00582D03*
G54D52*
X00732Y03374D03*
G54D53*
X01045Y0461D03*
Y0456D03*
Y0451D03*
Y0441D03*
Y0436D03*
Y0431D03*
G54D54*
X00685Y0446D03*
M02*