%FSTAX23Y23*%
%MOIN*%
%SFA1B1*%

%IPPOS*%
%ADD59C,0.157480*%
%ADD60C,0.167323*%
%ADD62R,0.074929X0.049339*%
%ADD67C,0.108000*%
%ADD68R,0.108000X0.108000*%
%ADD69C,0.058000*%
%ADD70R,0.058000X0.058000*%
%ADD71O,0.138000X0.108000*%
%ADD72R,0.137921X0.094614*%
%ADD73O,0.137921X0.094614*%
%ADD74C,0.102488*%
%ADD75C,0.096583*%
%ADD76C,0.145795*%
%ADD77C,0.106425*%
%ADD78C,0.008000*%
%ADD79O,0.165480X0.116268*%
%ADD80C,0.068000*%
%ADD81R,0.068000X0.068000*%
%ADD82O,0.126110X0.175323*%
%ADD83C,0.308000*%
%ADD84C,0.076898*%
%ADD85R,0.076898X0.076898*%
%ADD86C,0.283591*%
%ADD96R,0.059181X0.045402*%
%ADD97R,0.051307X0.061150*%
%ADD98R,0.067055X0.019811*%
%ADD99O,0.067055X0.019811*%
%ADD100O,0.065087X0.031622*%
%ADD101R,0.045402X0.059181*%
%ADD102R,0.043433X0.031622*%
%ADD103R,0.043433X0.035559*%
%ADD104R,0.025716X0.029654*%
%ADD105R,0.061150X0.051307*%
%ADD106R,0.029654X0.025716*%
%ADD107R,0.106425X0.133000*%
%ADD108R,0.133000X0.106425*%
%LNpms_board_soldermask_top-1*%
%LPD*%
G36*
X03805Y02769D02*
X03806Y02769D01*
X03806Y02768*
X03807Y02768*
X03807Y02768*
X03807Y02767*
X03808Y02767*
X03808Y02767*
X03808Y02766*
X03809Y02766*
X03809Y02765*
X03809Y02765*
Y02631*
X03809Y0263*
X03809Y0263*
X03808Y02629*
X03808Y02629*
X03808Y02628*
X03807Y02628*
X03807Y02627*
X03807Y02627*
X03806Y02627*
X03806Y02627*
X03805Y02627*
X03805Y02627*
X03675*
X03674Y02627*
X03674Y02627*
X03673Y02627*
X03673Y02627*
X03672Y02627*
X03672Y02628*
X03671Y02628*
X03671Y02629*
X03671Y02629*
X03671Y0263*
X03671Y0263*
X03671Y02631*
Y02765*
X03671Y02765*
X03671Y02766*
X03671Y02766*
X03671Y02767*
X03671Y02767*
X03672Y02767*
X03672Y02768*
X03673Y02768*
X03673Y02768*
X03674Y02769*
X03674Y02769*
X03675Y02769*
X03805*
X03805Y02769*
G37*
G36*
X03275D02*
X03276Y02769D01*
X03276Y02768*
X03277Y02768*
X03277Y02768*
X03277Y02767*
X03278Y02767*
X03278Y02767*
X03278Y02766*
X03279Y02766*
X03279Y02765*
X03279Y02765*
Y02631*
X03279Y0263*
X03279Y0263*
X03278Y02629*
X03278Y02629*
X03278Y02628*
X03277Y02628*
X03277Y02627*
X03277Y02627*
X03276Y02627*
X03276Y02627*
X03275Y02627*
X03275Y02627*
X03145*
X03144Y02627*
X03144Y02627*
X03143Y02627*
X03143Y02627*
X03142Y02627*
X03142Y02628*
X03141Y02628*
X03141Y02629*
X03141Y02629*
X03141Y0263*
X03141Y0263*
X03141Y02631*
Y02765*
X03141Y02765*
X03141Y02766*
X03141Y02766*
X03141Y02767*
X03141Y02767*
X03142Y02767*
X03142Y02768*
X03143Y02768*
X03143Y02768*
X03144Y02769*
X03144Y02769*
X03145Y02769*
X03275*
X03275Y02769*
G37*
G36*
X03805Y02387D02*
X03806Y02387D01*
X03806Y02387*
X03807Y02387*
X03807Y02387*
X03807Y02386*
X03808Y02386*
X03808Y02385*
X03808Y02385*
X03809Y02384*
X03809Y02384*
X03809Y02383*
Y02249*
X03809Y02249*
X03809Y02248*
X03808Y02248*
X03808Y02247*
X03808Y02247*
X03807Y02247*
X03807Y02246*
X03807Y02246*
X03806Y02246*
X03806Y02246*
X03805Y02245*
X03805Y02245*
X03675*
X03674Y02245*
X03674Y02246*
X03673Y02246*
X03673Y02246*
X03672Y02246*
X03672Y02247*
X03671Y02247*
X03671Y02247*
X03671Y02248*
X03671Y02248*
X03671Y02249*
X03671Y02249*
Y02383*
X03671Y02384*
X03671Y02384*
X03671Y02385*
X03671Y02385*
X03671Y02386*
X03672Y02386*
X03672Y02387*
X03673Y02387*
X03673Y02387*
X03674Y02387*
X03674Y02387*
X03675Y02387*
X03805*
X03805Y02387*
G37*
G36*
X03275D02*
X03276Y02387D01*
X03276Y02387*
X03277Y02387*
X03277Y02387*
X03277Y02386*
X03278Y02386*
X03278Y02385*
X03278Y02385*
X03279Y02384*
X03279Y02384*
X03279Y02383*
Y02249*
X03279Y02249*
X03279Y02248*
X03278Y02248*
X03278Y02247*
X03278Y02247*
X03277Y02247*
X03277Y02246*
X03277Y02246*
X03276Y02246*
X03276Y02246*
X03275Y02245*
X03275Y02245*
X03145*
X03144Y02245*
X03144Y02246*
X03143Y02246*
X03143Y02246*
X03142Y02246*
X03142Y02247*
X03141Y02247*
X03141Y02247*
X03141Y02248*
X03141Y02248*
X03141Y02249*
X03141Y02249*
Y02383*
X03141Y02384*
X03141Y02384*
X03141Y02385*
X03141Y02385*
X03141Y02386*
X03142Y02386*
X03142Y02387*
X03143Y02387*
X03143Y02387*
X03144Y02387*
X03144Y02387*
X03145Y02387*
X03275*
X03275Y02387*
G37*
G36*
X03805Y02006D02*
X03806Y02006D01*
X03806Y02006*
X03807Y02006*
X03807Y02005*
X03807Y02005*
X03808Y02005*
X03808Y02004*
X03808Y02004*
X03809Y02003*
X03809Y02003*
X03809Y02002*
Y01868*
X03809Y01868*
X03809Y01867*
X03808Y01867*
X03808Y01866*
X03808Y01866*
X03807Y01865*
X03807Y01865*
X03807Y01865*
X03806Y01865*
X03806Y01864*
X03805Y01864*
X03805Y01864*
X03675*
X03674Y01864*
X03674Y01864*
X03673Y01865*
X03673Y01865*
X03672Y01865*
X03672Y01865*
X03671Y01866*
X03671Y01866*
X03671Y01867*
X03671Y01867*
X03671Y01868*
X03671Y01868*
Y02002*
X03671Y02003*
X03671Y02003*
X03671Y02004*
X03671Y02004*
X03671Y02005*
X03672Y02005*
X03672Y02005*
X03673Y02006*
X03673Y02006*
X03674Y02006*
X03674Y02006*
X03675Y02006*
X03805*
X03805Y02006*
G37*
G36*
X03275D02*
X03276Y02006D01*
X03276Y02006*
X03277Y02006*
X03277Y02005*
X03277Y02005*
X03278Y02005*
X03278Y02004*
X03278Y02004*
X03279Y02003*
X03279Y02003*
X03279Y02002*
Y01868*
X03279Y01868*
X03279Y01867*
X03278Y01867*
X03278Y01866*
X03278Y01866*
X03277Y01865*
X03277Y01865*
X03277Y01865*
X03276Y01865*
X03276Y01864*
X03275Y01864*
X03275Y01864*
X03145*
X03144Y01864*
X03144Y01864*
X03143Y01865*
X03143Y01865*
X03142Y01865*
X03142Y01865*
X03141Y01866*
X03141Y01866*
X03141Y01867*
X03141Y01867*
X03141Y01868*
X03141Y01868*
Y02002*
X03141Y02003*
X03141Y02003*
X03141Y02004*
X03141Y02004*
X03141Y02005*
X03142Y02005*
X03142Y02005*
X03143Y02006*
X03143Y02006*
X03144Y02006*
X03144Y02006*
X03145Y02006*
X03275*
X03275Y02006*
G37*
G36*
X03805Y01625D02*
X03806Y01625D01*
X03806Y01625*
X03807Y01624*
X03807Y01624*
X03807Y01624*
X03808Y01623*
X03808Y01623*
X03808Y01623*
X03809Y01622*
X03809Y01622*
X03809Y01621*
Y01487*
X03809Y01486*
X03809Y01486*
X03808Y01485*
X03808Y01485*
X03808Y01485*
X03807Y01484*
X03807Y01484*
X03807Y01484*
X03806Y01483*
X03806Y01483*
X03805Y01483*
X03805Y01483*
X03675*
X03674Y01483*
X03674Y01483*
X03673Y01483*
X03673Y01484*
X03672Y01484*
X03672Y01484*
X03671Y01485*
X03671Y01485*
X03671Y01485*
X03671Y01486*
X03671Y01486*
X03671Y01487*
Y01621*
X03671Y01622*
X03671Y01622*
X03671Y01623*
X03671Y01623*
X03671Y01623*
X03672Y01624*
X03672Y01624*
X03673Y01624*
X03673Y01625*
X03674Y01625*
X03674Y01625*
X03675Y01625*
X03805*
X03805Y01625*
G37*
G36*
X03275D02*
X03276Y01625D01*
X03276Y01625*
X03277Y01624*
X03277Y01624*
X03277Y01624*
X03278Y01623*
X03278Y01623*
X03278Y01623*
X03279Y01622*
X03279Y01622*
X03279Y01621*
Y01487*
X03279Y01486*
X03279Y01486*
X03278Y01485*
X03278Y01485*
X03278Y01485*
X03277Y01484*
X03277Y01484*
X03277Y01484*
X03276Y01483*
X03276Y01483*
X03275Y01483*
X03275Y01483*
X03145*
X03144Y01483*
X03144Y01483*
X03143Y01483*
X03143Y01484*
X03142Y01484*
X03142Y01484*
X03141Y01485*
X03141Y01485*
X03141Y01485*
X03141Y01486*
X03141Y01486*
X03141Y01487*
Y01621*
X03141Y01622*
X03141Y01622*
X03141Y01623*
X03141Y01623*
X03141Y01623*
X03142Y01624*
X03142Y01624*
X03143Y01624*
X03143Y01625*
X03144Y01625*
X03144Y01625*
X03145Y01625*
X03275*
X03275Y01625*
G37*
G36*
X03805Y01244D02*
X03806Y01244D01*
X03806Y01244*
X03807Y01243*
X03807Y01243*
X03807Y01243*
X03808Y01242*
X03808Y01242*
X03808Y01241*
X03809Y01241*
X03809Y0124*
X03809Y0124*
Y01106*
X03809Y01105*
X03809Y01105*
X03808Y01104*
X03808Y01104*
X03808Y01103*
X03807Y01103*
X03807Y01103*
X03807Y01102*
X03806Y01102*
X03806Y01102*
X03805Y01102*
X03805Y01102*
X03675*
X03674Y01102*
X03674Y01102*
X03673Y01102*
X03673Y01102*
X03672Y01103*
X03672Y01103*
X03671Y01103*
X03671Y01104*
X03671Y01104*
X03671Y01105*
X03671Y01105*
X03671Y01106*
Y0124*
X03671Y0124*
X03671Y01241*
X03671Y01241*
X03671Y01242*
X03671Y01242*
X03672Y01243*
X03672Y01243*
X03673Y01243*
X03673Y01244*
X03674Y01244*
X03674Y01244*
X03675Y01244*
X03805*
X03805Y01244*
G37*
G36*
X03275D02*
X03276Y01244D01*
X03276Y01244*
X03277Y01243*
X03277Y01243*
X03277Y01243*
X03278Y01242*
X03278Y01242*
X03278Y01241*
X03279Y01241*
X03279Y0124*
X03279Y0124*
Y01106*
X03279Y01105*
X03279Y01105*
X03278Y01104*
X03278Y01104*
X03278Y01103*
X03277Y01103*
X03277Y01103*
X03277Y01102*
X03276Y01102*
X03276Y01102*
X03275Y01102*
X03275Y01102*
X03145*
X03144Y01102*
X03144Y01102*
X03143Y01102*
X03143Y01102*
X03142Y01103*
X03142Y01103*
X03141Y01103*
X03141Y01104*
X03141Y01104*
X03141Y01105*
X03141Y01105*
X03141Y01106*
Y0124*
X03141Y0124*
X03141Y01241*
X03141Y01241*
X03141Y01242*
X03141Y01242*
X03142Y01243*
X03142Y01243*
X03143Y01243*
X03143Y01244*
X03144Y01244*
X03144Y01244*
X03145Y01244*
X03275*
X03275Y01244*
G37*
G36*
X03827Y04566D02*
X03828Y04566D01*
X03828Y04566*
X03829Y04566*
X03829Y04566*
X0383Y04565*
X0383Y04565*
X0383Y04564*
X0383Y04564*
X03831Y04564*
X03831Y04563*
X03831Y04562*
Y04428*
X03831Y04428*
X03831Y04427*
X0383Y04427*
X0383Y04426*
X0383Y04426*
X0383Y04426*
X03829Y04425*
X03829Y04425*
X03828Y04425*
X03828Y04425*
X03827Y04425*
X03827Y04424*
X03697*
X03696Y04425*
X03696Y04425*
X03695Y04425*
X03695Y04425*
X03694Y04425*
X03694Y04426*
X03694Y04426*
X03693Y04426*
X03693Y04427*
X03693Y04427*
X03693Y04428*
X03693Y04428*
Y04562*
X03693Y04563*
X03693Y04564*
X03693Y04564*
X03693Y04564*
X03694Y04565*
X03694Y04565*
X03694Y04566*
X03695Y04566*
X03695Y04566*
X03696Y04566*
X03696Y04566*
X03697Y04567*
X03827*
X03827Y04566*
G37*
G36*
X03297D02*
X03298Y04566D01*
X03298Y04566*
X03299Y04566*
X03299Y04566*
X033Y04565*
X033Y04565*
X033Y04564*
X033Y04564*
X03301Y04564*
X03301Y04563*
X03301Y04562*
Y04428*
X03301Y04428*
X03301Y04427*
X033Y04427*
X033Y04426*
X033Y04426*
X033Y04426*
X03299Y04425*
X03299Y04425*
X03298Y04425*
X03298Y04425*
X03297Y04425*
X03297Y04424*
X03167*
X03166Y04425*
X03166Y04425*
X03165Y04425*
X03165Y04425*
X03164Y04425*
X03164Y04426*
X03164Y04426*
X03163Y04426*
X03163Y04427*
X03163Y04427*
X03163Y04428*
X03163Y04428*
Y04562*
X03163Y04563*
X03163Y04564*
X03163Y04564*
X03163Y04564*
X03164Y04565*
X03164Y04565*
X03164Y04566*
X03165Y04566*
X03165Y04566*
X03166Y04566*
X03166Y04566*
X03167Y04567*
X03297*
X03297Y04566*
G37*
G36*
X03827Y04222D02*
X03828Y04222D01*
X03828Y04222*
X03829Y04222*
X03829Y04222*
X0383Y04221*
X0383Y04221*
X0383Y0422*
X0383Y0422*
X03831Y0422*
X03831Y04219*
X03831Y04218*
Y04084*
X03831Y04084*
X03831Y04083*
X0383Y04083*
X0383Y04082*
X0383Y04082*
X0383Y04082*
X03829Y04081*
X03829Y04081*
X03828Y04081*
X03828Y04081*
X03827Y04081*
X03827Y0408*
X03697*
X03696Y04081*
X03696Y04081*
X03695Y04081*
X03695Y04081*
X03694Y04081*
X03694Y04082*
X03694Y04082*
X03693Y04082*
X03693Y04083*
X03693Y04083*
X03693Y04084*
X03693Y04084*
Y04218*
X03693Y04219*
X03693Y0422*
X03693Y0422*
X03693Y0422*
X03694Y04221*
X03694Y04221*
X03694Y04222*
X03695Y04222*
X03695Y04222*
X03696Y04222*
X03696Y04222*
X03697Y04223*
X03827*
X03827Y04222*
G37*
G36*
X03297D02*
X03298Y04222D01*
X03298Y04222*
X03299Y04222*
X03299Y04222*
X033Y04221*
X033Y04221*
X033Y0422*
X033Y0422*
X03301Y0422*
X03301Y04219*
X03301Y04218*
Y04084*
X03301Y04084*
X03301Y04083*
X033Y04083*
X033Y04082*
X033Y04082*
X033Y04082*
X03299Y04081*
X03299Y04081*
X03298Y04081*
X03298Y04081*
X03297Y04081*
X03297Y0408*
X03167*
X03166Y04081*
X03166Y04081*
X03165Y04081*
X03165Y04081*
X03164Y04081*
X03164Y04082*
X03164Y04082*
X03163Y04082*
X03163Y04083*
X03163Y04083*
X03163Y04084*
X03163Y04084*
Y04218*
X03163Y04219*
X03163Y0422*
X03163Y0422*
X03163Y0422*
X03164Y04221*
X03164Y04221*
X03164Y04222*
X03165Y04222*
X03165Y04222*
X03166Y04222*
X03166Y04222*
X03167Y04223*
X03297*
X03297Y04222*
G37*
G36*
X03827Y03876D02*
X03828Y03876D01*
X03828Y03876*
X03829Y03876*
X03829Y03876*
X0383Y03875*
X0383Y03875*
X0383Y03874*
X0383Y03874*
X03831Y03874*
X03831Y03873*
X03831Y03872*
Y03738*
X03831Y03738*
X03831Y03737*
X0383Y03737*
X0383Y03736*
X0383Y03736*
X0383Y03736*
X03829Y03735*
X03829Y03735*
X03828Y03735*
X03828Y03735*
X03827Y03735*
X03827Y03734*
X03697*
X03696Y03735*
X03696Y03735*
X03695Y03735*
X03695Y03735*
X03694Y03735*
X03694Y03736*
X03694Y03736*
X03693Y03736*
X03693Y03737*
X03693Y03737*
X03693Y03738*
X03693Y03738*
Y03872*
X03693Y03873*
X03693Y03874*
X03693Y03874*
X03693Y03874*
X03694Y03875*
X03694Y03875*
X03694Y03876*
X03695Y03876*
X03695Y03876*
X03696Y03876*
X03696Y03876*
X03697Y03877*
X03827*
X03827Y03876*
G37*
G36*
X03297D02*
X03298Y03876D01*
X03298Y03876*
X03299Y03876*
X03299Y03876*
X033Y03875*
X033Y03875*
X033Y03874*
X033Y03874*
X03301Y03874*
X03301Y03873*
X03301Y03872*
Y03738*
X03301Y03738*
X03301Y03737*
X033Y03737*
X033Y03736*
X033Y03736*
X033Y03736*
X03299Y03735*
X03299Y03735*
X03298Y03735*
X03298Y03735*
X03297Y03735*
X03297Y03734*
X03167*
X03166Y03735*
X03166Y03735*
X03165Y03735*
X03165Y03735*
X03164Y03735*
X03164Y03736*
X03164Y03736*
X03163Y03736*
X03163Y03737*
X03163Y03737*
X03163Y03738*
X03163Y03738*
Y03872*
X03163Y03873*
X03163Y03874*
X03163Y03874*
X03163Y03874*
X03164Y03875*
X03164Y03875*
X03164Y03876*
X03165Y03876*
X03165Y03876*
X03166Y03876*
X03166Y03876*
X03167Y03877*
X03297*
X03297Y03876*
G37*
G36*
X03805Y03531D02*
X03806Y03531D01*
X03806Y03531*
X03807Y03531*
X03807Y0353*
X03807Y0353*
X03808Y03529*
X03808Y03529*
X03808Y03529*
X03809Y03528*
X03809Y03528*
X03809Y03527*
Y03393*
X03809Y03393*
X03809Y03392*
X03808Y03392*
X03808Y03391*
X03808Y03391*
X03807Y0339*
X03807Y0339*
X03807Y0339*
X03806Y03389*
X03806Y03389*
X03805Y03389*
X03805Y03389*
X03675*
X03674Y03389*
X03674Y03389*
X03673Y03389*
X03673Y0339*
X03672Y0339*
X03672Y0339*
X03671Y03391*
X03671Y03391*
X03671Y03392*
X03671Y03392*
X03671Y03393*
X03671Y03393*
Y03527*
X03671Y03528*
X03671Y03528*
X03671Y03529*
X03671Y03529*
X03671Y03529*
X03672Y0353*
X03672Y0353*
X03673Y03531*
X03673Y03531*
X03674Y03531*
X03674Y03531*
X03675Y03531*
X03805*
X03805Y03531*
G37*
G36*
X03275D02*
X03276Y03531D01*
X03276Y03531*
X03277Y03531*
X03277Y0353*
X03277Y0353*
X03278Y03529*
X03278Y03529*
X03278Y03529*
X03279Y03528*
X03279Y03528*
X03279Y03527*
Y03393*
X03279Y03393*
X03279Y03392*
X03278Y03392*
X03278Y03391*
X03278Y03391*
X03277Y0339*
X03277Y0339*
X03277Y0339*
X03276Y03389*
X03276Y03389*
X03275Y03389*
X03275Y03389*
X03145*
X03144Y03389*
X03144Y03389*
X03143Y03389*
X03143Y0339*
X03142Y0339*
X03142Y0339*
X03141Y03391*
X03141Y03391*
X03141Y03392*
X03141Y03392*
X03141Y03393*
X03141Y03393*
Y03527*
X03141Y03528*
X03141Y03528*
X03141Y03529*
X03141Y03529*
X03141Y03529*
X03142Y0353*
X03142Y0353*
X03143Y03531*
X03143Y03531*
X03144Y03531*
X03144Y03531*
X03145Y03531*
X03275*
X03275Y03531*
G37*
G36*
X03805Y0315D02*
X03806Y0315D01*
X03806Y0315*
X03807Y03149*
X03807Y03149*
X03807Y03149*
X03808Y03148*
X03808Y03148*
X03808Y03147*
X03809Y03147*
X03809Y03146*
X03809Y03146*
Y03012*
X03809Y03011*
X03809Y03011*
X03808Y0301*
X03808Y0301*
X03808Y03009*
X03807Y03009*
X03807Y03009*
X03807Y03008*
X03806Y03008*
X03806Y03008*
X03805Y03008*
X03805Y03008*
X03675*
X03674Y03008*
X03674Y03008*
X03673Y03008*
X03673Y03008*
X03672Y03009*
X03672Y03009*
X03671Y03009*
X03671Y0301*
X03671Y0301*
X03671Y03011*
X03671Y03011*
X03671Y03012*
Y03146*
X03671Y03146*
X03671Y03147*
X03671Y03147*
X03671Y03148*
X03671Y03148*
X03672Y03149*
X03672Y03149*
X03673Y03149*
X03673Y0315*
X03674Y0315*
X03674Y0315*
X03675Y0315*
X03805*
X03805Y0315*
G37*
G36*
X03275D02*
X03276Y0315D01*
X03276Y0315*
X03277Y03149*
X03277Y03149*
X03277Y03149*
X03278Y03148*
X03278Y03148*
X03278Y03147*
X03279Y03147*
X03279Y03146*
X03279Y03146*
Y03012*
X03279Y03011*
X03279Y03011*
X03278Y0301*
X03278Y0301*
X03278Y03009*
X03277Y03009*
X03277Y03009*
X03277Y03008*
X03276Y03008*
X03276Y03008*
X03275Y03008*
X03275Y03008*
X03145*
X03144Y03008*
X03144Y03008*
X03143Y03008*
X03143Y03008*
X03142Y03009*
X03142Y03009*
X03141Y03009*
X03141Y0301*
X03141Y0301*
X03141Y03011*
X03141Y03011*
X03141Y03012*
Y03146*
X03141Y03146*
X03141Y03147*
X03141Y03147*
X03141Y03148*
X03141Y03148*
X03142Y03149*
X03142Y03149*
X03143Y03149*
X03143Y0315*
X03144Y0315*
X03144Y0315*
X03145Y0315*
X03275*
X03275Y0315*
G37*
G54D59*
X01547Y05951D02*
X01603D01*
X01921Y05633*
X04535*
G54D60*
X00748Y05035D02*
X00795D01*
X01169Y0496D02*
Y05035D01*
X00795D02*
X00814Y05015D01*
X01169*
X00749Y03898D02*
X01076D01*
X01169Y03992*
X0157Y05437D02*
Y05562D01*
X01169Y05035D02*
X0157Y05437D01*
X01169Y03992D02*
Y05015D01*
G54D62*
X02598Y01484D03*
Y016D03*
G54D67*
X04406Y04735D03*
Y04935D03*
X04409Y04058D03*
Y04258D03*
G54D68*
X04406Y04535D03*
X04409Y03858D03*
G54D69*
X02775Y01748D03*
X02775Y01452D03*
X00106Y05472D03*
Y05551D03*
X00098Y01724D03*
G54D70*
X02775Y01826D03*
Y01531D03*
X00106Y05629D03*
X00098Y01803D03*
G54D71*
X03232Y04428D03*
Y04562D03*
X03762Y04428D03*
Y04562D03*
X03232Y04084D03*
Y04218D03*
X03762Y04084D03*
Y04218D03*
X03232Y03738D03*
Y03872D03*
X03762Y03738D03*
Y03872D03*
X0374Y0124D03*
Y01106D03*
X0321Y0124D03*
Y01106D03*
X0374Y01621D03*
Y01487D03*
X0321Y01621D03*
Y01487D03*
X0374Y02383D03*
Y02249D03*
X0321Y02383D03*
Y02249D03*
X0374Y02765D03*
Y02631D03*
X0321Y02765D03*
Y02631D03*
X0374Y03146D03*
Y03012D03*
X0321Y03146D03*
Y03012D03*
Y03393D03*
Y03527D03*
X0374Y03393D03*
Y03527D03*
X0321Y01868D03*
Y02002D03*
X0374Y01868D03*
Y02002D03*
G54D72*
X04263Y03475D03*
G54D73*
X04263Y031D03*
Y02725D03*
Y0235D03*
Y01224D03*
Y01599D03*
Y01974D03*
G54D74*
X01407Y01248D03*
X01807D03*
X01607D03*
X01407Y00953D03*
X01807D03*
X01607D03*
X02407Y01248D03*
Y00953D03*
G54D75*
X02343Y0465D03*
X02643D03*
X02493D03*
Y0265D03*
G54D76*
X02193Y0465D03*
X02793D03*
G54D77*
X02793Y0265D03*
X02193D03*
G54D78*
X00751Y05752D03*
G54D79*
X01566Y05952D03*
Y05552D03*
G54D80*
X02777Y02007D03*
X02677D03*
G54D81*
X02577Y02007D03*
G54D82*
X04519Y05275D03*
X04322D03*
X04125D03*
Y05551D03*
X04322D03*
X04519D03*
X04232Y05716D03*
X04035D03*
X03838D03*
Y05992D03*
X04035D03*
X04232D03*
X04Y05275D03*
X03803D03*
X03606D03*
Y05551D03*
X03803D03*
X04D03*
X03712Y05716D03*
X03515D03*
X03318D03*
Y05992D03*
X03515D03*
X03712D03*
X0348Y05275D03*
X03283D03*
X03086D03*
Y05551D03*
X03283D03*
X0348D03*
X03192Y05716D03*
X02996D03*
X02799D03*
Y05992D03*
X02996D03*
X03192D03*
X0296Y05275D03*
X02763D03*
X02566D03*
Y05551D03*
X02763D03*
X0296D03*
X02673Y05716D03*
X02476D03*
X02279D03*
Y05992D03*
X02476D03*
X02673D03*
X0244Y05275D03*
X02244D03*
X02047D03*
Y05551D03*
X02244D03*
X0244D03*
X02153Y05716D03*
X01956D03*
X01759D03*
Y05992D03*
X01956D03*
X02153D03*
G54D83*
X00749Y03898D03*
X00237Y03398D03*
X00748Y05035D03*
X00236Y04535D03*
X01134Y01437D03*
X00622Y00937D03*
X00748Y02755D03*
X00236Y02255D03*
G54D84*
X01767Y04736D03*
Y04637D03*
Y04834D03*
Y04933D03*
Y05031D03*
Y05129D03*
X01868Y03517D03*
Y03418D03*
Y03615D03*
Y03714D03*
Y03812D03*
Y03911D03*
G54D85*
X01767Y04539D03*
X01868Y0332D03*
G54D86*
X04484Y05905D03*
Y00787D03*
X00196D03*
Y05905D03*
G54D96*
X02618Y01259D03*
Y01332D03*
X02322Y02005D03*
Y01933D03*
X01814Y01665D03*
Y01592D03*
X00763Y01891D03*
Y01818D03*
X0183Y02045D03*
Y02118D03*
X02224Y01399D03*
Y01472D03*
X02271Y02267D03*
Y02194D03*
X02236Y02005D03*
Y01933D03*
X02145Y01472D03*
Y01399D03*
X01488Y01903D03*
Y01976D03*
X01968Y02671D03*
Y02744D03*
Y02537D03*
Y0261D03*
X01984Y04233D03*
Y0416D03*
X01905Y04234D03*
Y04161D03*
X01826Y04234D03*
Y04161D03*
X01748Y04234D03*
Y04161D03*
X01669Y04234D03*
Y04161D03*
X0159Y04234D03*
Y04161D03*
X01968Y02805D03*
Y02877D03*
Y03019D03*
Y02946D03*
X01348Y02887D03*
Y0296D03*
G54D97*
X02578Y01038D03*
Y0115D03*
G54D98*
X01484Y03087D03*
G54D99*
X01484Y03062D03*
Y03037D03*
Y03012D03*
Y02987D03*
Y02962D03*
Y02937D03*
Y02912D03*
Y02887D03*
Y02862D03*
Y02837D03*
Y02812D03*
Y02787D03*
Y02762D03*
Y02737D03*
Y02712D03*
Y02687D03*
Y02662D03*
Y02637D03*
Y02612D03*
Y02587D03*
Y02562D03*
Y02537D03*
Y02512D03*
X01877Y03087D03*
Y03062D03*
Y03037D03*
Y03012D03*
Y02987D03*
Y02962D03*
Y02937D03*
Y02912D03*
Y02887D03*
Y02862D03*
Y02837D03*
Y02812D03*
Y02787D03*
Y02762D03*
Y02737D03*
Y02712D03*
Y02687D03*
Y02662D03*
Y02637D03*
Y02612D03*
Y02587D03*
Y02562D03*
Y02537D03*
Y02512D03*
G54D100*
X01936Y01866D03*
Y01816D03*
Y01766D03*
Y01716D03*
Y01666D03*
Y01616D03*
Y01566D03*
X0215Y01866D03*
Y01816D03*
Y01766D03*
Y01716D03*
Y01666D03*
Y01616D03*
Y01566D03*
G54D101*
X0242Y01933D03*
X02493D03*
X0231Y04854D03*
X02382D03*
X01966Y01409D03*
X01893D03*
X01901Y01488D03*
X01974D03*
X01664Y01657D03*
X01737D03*
X0183Y01874D03*
X01757D03*
X0183Y01948D03*
X01757D03*
X01433Y02074D03*
X0136D03*
X02411Y01405D03*
X02338D03*
Y01484D03*
X02411D03*
X00893Y01822D03*
X00966D03*
X01423Y0159D03*
X01496D03*
X01361Y02204D03*
X01434D03*
X0241Y01716D03*
X02337D03*
X02265Y01791D03*
X02338D03*
X02421D03*
X02494D03*
X01632Y0146D03*
X01705D03*
X01511Y01464D03*
X01438D03*
X02411Y01637D03*
X02338D03*
X01496Y01696D03*
X01423D03*
X01688Y03251D03*
X01616D03*
X01815Y02438D03*
X01888D03*
X0169Y03374D03*
X01618D03*
X0169Y03496D03*
X01618D03*
X0169Y03618D03*
X01618D03*
X01269Y02726D03*
X01342D03*
X0169Y0374D03*
X01618D03*
X0169Y03862D03*
X01618D03*
X01691Y03984D03*
X01619D03*
X01826Y01767D03*
X01753D03*
X01381Y03031D03*
X01309D03*
Y0311D03*
X01381D03*
G54D102*
X02781Y0123D03*
Y01305D03*
X0269Y01267D03*
X00671Y01816D03*
Y01891D03*
X0058Y01854D03*
G54D103*
X01259Y01984D03*
Y02039D03*
X01129Y01984D03*
Y02039D03*
X02118Y02169D03*
Y02224D03*
X01553Y03338D03*
Y03283D03*
Y0346D03*
Y03405D03*
Y03582D03*
Y03527D03*
Y03704D03*
Y03649D03*
Y03826D03*
Y03771D03*
Y03948D03*
Y03893D03*
G54D104*
X01748Y02015D03*
Y02118D03*
X0157Y01874D03*
Y01976D03*
G54D105*
X00277Y01866D03*
X00389D03*
X01381Y02807D03*
X01269D03*
G54D106*
X02326Y01562D03*
X02429D03*
G54D107*
X03708Y04953D03*
Y04723D03*
X03507Y04953D03*
Y04723D03*
X03307Y04953D03*
Y04723D03*
X03106Y04955D03*
Y04725D03*
G54D108*
X0278Y02173D03*
X0255D03*
X0278Y02385D03*
X0255D03*
M02*