%FSTAX23Y23*%
%MOIN*%
%SFA1B1*%

%IPPOS*%
%ADD10R,0.051181X0.037402*%
%ADD11R,0.043307X0.053150*%
%ADD12R,0.059055X0.011811*%
%ADD13O,0.059055X0.011811*%
%ADD14O,0.057087X0.023622*%
%ADD15R,0.037402X0.051181*%
%ADD16R,0.035433X0.023622*%
%ADD17R,0.035433X0.027559*%
%ADD18R,0.017716X0.021654*%
%ADD19R,0.053150X0.043307*%
%ADD20R,0.021654X0.017716*%
%ADD21R,0.098425X0.125000*%
%ADD22R,0.125000X0.098425*%
%ADD23R,0.066929X0.041339*%
%ADD24C,0.013780*%
%ADD25C,0.019685*%
%ADD26C,0.039370*%
%ADD27C,0.059055*%
%ADD28C,0.009842*%
%ADD29C,0.015748*%
%ADD30C,0.100000*%
%ADD31R,0.100000X0.100000*%
%ADD32C,0.050000*%
%ADD33R,0.050000X0.050000*%
%ADD34O,0.130000X0.100000*%
%ADD35R,0.129921X0.086614*%
%ADD36O,0.129921X0.086614*%
%ADD37C,0.094488*%
%ADD38C,0.088583*%
%ADD39C,0.137795*%
%ADD40C,0.098425*%
%ADD41O,0.157480X0.108268*%
%ADD42C,0.060000*%
%ADD43R,0.060000X0.060000*%
%ADD44O,0.118110X0.167323*%
%ADD45C,0.300000*%
%ADD46C,0.068898*%
%ADD47R,0.068898X0.068898*%
%ADD48C,0.275591*%
%ADD49C,0.039370*%
%ADD50C,0.031496*%
%LNpms_board_copper_signal_top-1*%
%LPD*%
G36*
X00421Y05677D02*
X00709D01*
X00718Y05672*
X00734Y05667*
X00751Y05665*
X00768Y05667*
X00785Y05672*
X00794Y05677*
X01637Y05677*
X01968Y05346*
Y04965*
X01963Y04963*
X01813Y05114*
X01814Y05117*
X01816Y05129*
X01814Y05142*
X01809Y05154*
X01802Y05164*
X01792Y05172*
X0178Y05176*
X01767Y05178*
X01755Y05176*
X01743Y05172*
X01733Y05164*
X01725Y05154*
X0172Y05142*
X01719Y05129*
X0172Y05117*
X01725Y05105*
X01733Y05095*
X01743Y05087*
X01754Y05083*
X01754Y0508*
X01754Y05078*
X01743Y05073*
X01733Y05065*
X01725Y05055*
X0172Y05044*
X01719Y05031*
X0172Y05018*
X01725Y05007*
X01733Y04997*
X01743Y04989*
X01754Y04984*
X01754Y04982*
X01754Y04979*
X01743Y04975*
X01733Y04967*
X01725Y04957*
X0172Y04945*
X01719Y04933*
X0172Y0492*
X01725Y04908*
X01733Y04898*
X01743Y0489*
X01754Y04886*
X01754Y04883*
X01754Y04881*
X01743Y04876*
X01733Y04869*
X01725Y04858*
X0172Y04847*
X01719Y04834*
X0172Y04822*
X01725Y0481*
X01733Y048*
X01743Y04792*
X01754Y04788*
X01754Y04785*
X01754Y04782*
X01743Y04778*
X01733Y0477*
X01725Y0476*
X0172Y04748*
X01719Y04736*
X0172Y04723*
X01725Y04711*
X01733Y04701*
X01743Y04694*
X01754Y04689*
X01754Y04687*
X01754Y04684*
X01743Y04679*
X01733Y04672*
X01725Y04662*
X0172Y0465*
X01719Y04637*
X0172Y04625*
X01725Y04613*
X01733Y04603*
X01743Y04595*
X01755Y0459*
X01767Y04589*
X0178Y0459*
X01792Y04595*
X01802Y04603*
X01807Y0461*
X01812Y0461*
X01817Y04605*
Y04491*
X01593Y04266*
X01551*
Y04201*
X01624*
X01629Y04201*
X01629*
Y04201*
X01703*
X01708Y04201*
X01708*
Y04201*
X01782*
X01787Y04201*
X01787*
Y04201*
X01861*
X01866Y04201*
X01866*
Y04201*
X01944*
Y042*
X01968*
Y04192*
X01949*
X01944Y04193*
X0194*
X01871*
X01866*
X01861*
X01792*
X01787*
X01782*
X01713*
X01708*
X01703*
X01634*
X01629*
X01624*
X01551*
Y04128*
X0156*
X01562Y04124*
X01561Y04121*
X0156Y04114*
X01561Y04106*
X01564Y04099*
X01569Y04093*
X01575Y04088*
X01582Y04085*
X0159Y04084*
X01598Y04085*
X01605Y04088*
X01611Y04093*
X01616Y04099*
X01619Y04106*
X0162Y04114*
X01619Y04121*
X01618Y04124*
X0162Y04128*
X01629*
X01638*
X01641Y04124*
X0164Y04121*
X01639Y04114*
X0164Y04106*
X01643Y04099*
X01648Y04093*
X01654Y04088*
X01661Y04085*
X01669Y04084*
X01677Y04085*
X01684Y04088*
X0169Y04093*
X01695Y04099*
X01698Y04106*
X01699Y04114*
X01698Y04121*
X01696Y04124*
X01699Y04128*
X01708*
X01717*
X0172Y04124*
X01719Y04121*
X01718Y04114*
X01719Y04106*
X01722Y04099*
X01726Y04093*
X01733Y04088*
X0174Y04085*
X01748Y04084*
X01755Y04085*
X01762Y04088*
X01769Y04093*
X01773Y04099*
X01776Y04106*
X01777Y04114*
X01776Y04121*
X01775Y04124*
X01778Y04128*
X01787*
X01796*
X01799Y04124*
X01798Y04121*
X01796Y04114*
X01798Y04106*
X018Y04099*
X01805Y04093*
X01811Y04088*
X01819Y04085*
X01826Y04084*
X01834Y04085*
X01841Y04088*
X01847Y04093*
X01852Y04099*
X01855Y04106*
X01856Y04114*
X01855Y04121*
X01854Y04124*
X01857Y04128*
X01866*
X01875*
X01877Y04124*
X01876Y04121*
X01875Y04114*
X01876Y04106*
X01879Y04099*
X01884Y04093*
X0189Y04088*
X01897Y04085*
X01905Y04084*
X01913Y04085*
X0192Y04088*
X01926Y04093*
X01931Y04099*
X01934Y04106*
X01935Y04114*
X01934Y04121*
X01933Y04124*
X01935Y04128*
X0194*
X01944Y04127*
X01959*
X01963Y04124*
Y0403*
X01887Y03955*
X0188Y03958*
X01868Y03959*
X01855Y03958*
X01843Y03953*
X01833Y03945*
X01826Y03936*
X01822Y03935*
X0182Y03935*
X01757Y03999*
X0175Y04003*
X01742Y04005*
X01724*
Y04023*
X01659*
Y03944*
X01724*
Y03963*
X01733*
X018Y03896*
X01807Y03891*
X01815Y03889*
X01824*
X01825Y03886*
X01833Y03876*
X01843Y03868*
X01854Y03864*
X01855Y03861*
X01854Y03859*
X01843Y03854*
X01833Y03846*
X01825Y03836*
X01824Y03833*
X01812*
X01768Y03877*
X01762Y03881*
X01753Y03883*
X01723*
Y03901*
X01658*
Y03822*
X01723*
Y03841*
X01745*
X01788Y03797*
X01795Y03793*
X01803Y03791*
X01824*
X01825Y03788*
X01833Y03778*
X01843Y0377*
X01854Y03765*
X01855Y03763*
X01854Y0376*
X01843Y03756*
X01833Y03748*
X01825Y03738*
X01824Y03735*
X01804*
X01784Y03755*
X01777Y03759*
X01769Y03761*
X01723*
Y03779*
X01658*
Y037*
X01723*
Y03719*
X0176*
X0178Y03699*
X01787Y03694*
X01795Y03693*
X01824*
X01825Y03689*
X01833Y03679*
X01843Y03672*
X01854Y03667*
X01855Y03664*
X01854Y03662*
X01843Y03657*
X01833Y0365*
X01825Y0364*
X01825Y03639*
X01723*
Y03657*
X01658*
Y03578*
X01723*
Y03597*
X01823*
X01825Y03591*
X01833Y03581*
X01843Y03573*
X01854Y03569*
X01855Y03566*
X01854Y03563*
X01843Y03559*
X01833Y03551*
X01825Y03541*
X01824Y03538*
X01794*
X01786Y03536*
X01779Y03532*
X01764Y03517*
X01723*
Y03535*
X01658*
Y03456*
X01723*
Y03474*
X01773*
X01781Y03476*
X01788Y03481*
X01803Y03496*
X01824*
X01825Y03493*
X01833Y03482*
X01843Y03475*
X01854Y0347*
X01855Y03468*
X01854Y03465*
X01843Y03461*
X01833Y03453*
X01825Y03443*
X01824Y03439*
X01798*
X0179Y03438*
X01783Y03433*
X01745Y03395*
X01723*
Y03413*
X01658*
Y03334*
X01723*
Y03352*
X01753*
X01762Y03354*
X01768Y03359*
X01807Y03397*
X01824*
X01825Y03394*
X01833Y03384*
X01843Y03376*
X01855Y03371*
X01868Y0337*
X0188Y03371*
X01892Y03376*
X01902Y03384*
X0191Y03394*
X01915Y03406*
X01916Y03418*
X01915Y03431*
X0191Y03443*
X01902Y03453*
X01892Y03461*
X01881Y03465*
X01881Y03468*
X01881Y0347*
X01892Y03475*
X01902Y03482*
X0191Y03493*
X01915Y03504*
X01916Y03517*
X01915Y03529*
X0191Y03541*
X01902Y03551*
X01892Y03559*
X01881Y03563*
X01881Y03566*
X01881Y03569*
X01892Y03573*
X01902Y03581*
X0191Y03591*
X01915Y03603*
X01916Y03615*
X01915Y03628*
X0191Y0364*
X01902Y0365*
X01892Y03657*
X01881Y03662*
X01881Y03664*
X01881Y03667*
X01892Y03672*
X01902Y03679*
X0191Y03689*
X01915Y03701*
X01916Y03714*
X01915Y03726*
X0191Y03738*
X01902Y03748*
X01892Y03756*
X01881Y0376*
X01881Y03763*
X01881Y03765*
X01892Y0377*
X01902Y03778*
X0191Y03788*
X01915Y038*
X01916Y03812*
X01915Y03825*
X0191Y03836*
X01902Y03846*
X01892Y03854*
X01881Y03859*
X01881Y03861*
X01881Y03864*
X01892Y03868*
X01902Y03876*
X0191Y03886*
X01915Y03898*
X01916Y03911*
X01915Y03922*
X01963Y03971*
X01968Y03969*
Y02979*
X01929*
Y0296*
X01925Y02956*
X01924Y02956*
X01921Y0296*
X01921Y02962*
X0192Y0297*
X01916Y02974*
X0192Y02979*
X01921Y02987*
X0192Y02995*
X01916Y02999*
X0192Y03004*
X01921Y03012*
X0192Y0302*
X01915Y03026*
X01909Y0303*
X01901Y03032*
X01854*
X01846Y0303*
X0184Y03026*
X01835Y0302*
X01834Y03012*
X01835Y03004*
X01839Y02999*
X01835Y02995*
X01834Y02987*
X01835Y02979*
X01839Y02974*
X01835Y0297*
X01834Y02962*
X01835Y02954*
X01839Y02949*
X01835Y02945*
X01834Y02937*
X01835Y02929*
X0184Y02923*
X01846Y02918*
X01854Y02917*
X01901*
X01906Y02918*
X01926*
X01929Y02914*
Y02911*
X01926Y02906*
X01906*
X01901Y02907*
X01854*
X01846Y02905*
X0184Y02901*
X01835Y02895*
X01834Y02887*
X01835Y02879*
X01839Y02874*
X01835Y0287*
X01834Y02862*
X01835Y02854*
X01839Y02849*
X01835Y02845*
X01834Y02837*
X01835Y02829*
X0184Y02823*
X01846Y02818*
X01854Y02817*
X01901*
X01909Y02818*
X01915Y02823*
X0192Y02829*
X01921Y02837*
X0192Y02845*
X01916Y02849*
X0192Y02854*
X01921Y02862*
X01921Y02864*
X01924Y02868*
X01925Y02868*
X01929Y02864*
Y02845*
X01968*
Y02776*
X01939*
X01933Y0278*
X01926Y02781*
X01906*
X01901Y02782*
X01854*
X01846Y0278*
X0184Y02776*
X01835Y0277*
X01834Y02762*
X01835Y02754*
X0184Y02748*
X01846Y02743*
X01854Y02742*
X01901*
X01906Y02743*
X01918*
X0192Y02741*
X01926Y02737*
X01929Y02736*
Y02711*
X01968*
Y02703*
X01935*
X01934Y02705*
X01926Y02706*
X01906*
X01901Y02707*
X01854*
X01846Y02705*
X0184Y02701*
X01835Y02695*
X01834Y02687*
X01835Y02679*
X01839Y02674*
X01835Y0267*
X01834Y02662*
X01835Y02654*
X0184Y02648*
X01846Y02643*
X01854Y02642*
X01901*
X01909Y02643*
X01915Y02648*
X0192Y02654*
X0192Y02658*
X01925Y0266*
X01929Y02659*
Y02638*
Y02577*
X01968*
Y02569*
X01929*
Y0256*
X01925Y02556*
X01924Y02556*
X01921Y0256*
X01921Y02562*
X0192Y0257*
X01916Y02574*
X0192Y02579*
X01921Y02587*
X0192Y02595*
X01916Y02599*
X0192Y02604*
X01921Y02612*
X0192Y0262*
X01915Y02626*
X01909Y0263*
X01901Y02632*
X01854*
X01846Y0263*
X0184Y02626*
X01835Y0262*
X01834Y02612*
X01835Y02604*
X01839Y02599*
X01835Y02595*
X01834Y02587*
X01835Y02581*
X01828Y0258*
X01822Y02575*
X01802Y02555*
X01798Y02549*
X01796Y02542*
Y02478*
X01783*
Y02409*
X01585*
X01508Y02486*
Y02512*
X01506Y02521*
X01506Y02521*
Y02562*
Y02587*
X01506Y02587*
X0151Y02592*
X01512Y02593*
X01515*
X01548Y0256*
X01554Y02556*
X01561Y02554*
X01563Y02551*
X01569Y02547*
X01576Y02544*
X01584Y02543*
X01592Y02544*
X01599Y02547*
X01605Y02551*
X0161Y02557*
X01613Y02565*
X01614Y02572*
X01613Y0258*
X0161Y02587*
X01606Y02593*
X0161Y02599*
X01613Y02606*
X01614Y02614*
X01613Y02621*
X0161Y02629*
X01605Y02635*
Y02636*
X0161Y02642*
X01613Y02649*
X01614Y02657*
X01613Y02665*
X0161Y02672*
X01606Y02678*
X0161Y02683*
X01613Y02691*
X01614Y02698*
X01613Y02706*
X0161Y02713*
X01606Y02719*
X0161Y02725*
X01613Y02732*
X01614Y0274*
X01613Y02747*
X0161Y02755*
X01606Y0276*
X0161Y02766*
X01613Y02773*
X01614Y02781*
X01613Y02789*
X0161Y02796*
X01606Y02802*
X0161Y02807*
X01613Y02815*
X01614Y02822*
X01613Y0283*
X0161Y02837*
X01605Y02843*
X01599Y02848*
X01592Y02851*
X01584Y02852*
X01576Y02851*
X01569Y02848*
X01563Y02843*
X01562Y02841*
X01553*
X01545Y0284*
X01539Y02836*
X01535Y02832*
X0153Y02832*
X01527Y02836*
X01527Y02837*
X01526Y02845*
X01523Y02849*
X01526Y02854*
X01527Y02862*
X01526Y0287*
X01523Y02874*
X01526Y02879*
X01527Y02887*
X01526Y02895*
X01523Y02899*
X01526Y02904*
X01527Y02912*
X01526Y0292*
X01523Y02924*
X01526Y02929*
X01527Y02937*
X01526Y02945*
X01523Y02949*
X01526Y02954*
X01527Y02962*
X01526Y0297*
X01523Y02974*
X01526Y02979*
X01527Y02987*
X01526Y02995*
X01523Y02999*
X01526Y03004*
X01527Y03012*
X01526Y0302*
X01522Y03026*
X01515Y0303*
X01507Y03032*
X0146*
X01455Y03031*
X01414*
Y03068*
X01436*
X0144Y03063*
X0144Y03062*
X01442Y03054*
X01446Y03048*
X01452Y03043*
X0146Y03042*
X01507*
X01515Y03043*
X01522Y03048*
X01526Y03054*
X01527Y03062*
X01527Y03067*
X01527Y03067*
Y03107*
X0144*
Y03106*
X01414*
Y03149*
X01349*
Y03075*
Y0307*
Y02993*
X01309*
Y02928*
X01375*
X01377Y02923*
X01375Y0292*
X01362*
X0136Y0292*
X01309*
Y02855*
X01369*
X01372Y0285*
X01371Y02845*
Y02842*
X01341*
Y02771*
X01349*
X01351Y02766*
X01351Y02765*
X0131*
Y02689*
X01306Y02687*
X01302Y02689*
Y02765*
X01288*
Y02771*
X0131*
Y02842*
X01229*
Y02771*
X0125*
Y02765*
X01237*
Y027*
X01232Y02698*
X01062Y02868*
Y03158*
X01064Y03165*
Y03692*
X01062Y037*
X01058Y03707*
X0103Y03735*
X01023Y03739*
X01015Y03741*
X00437*
Y04235*
X00871*
X00876Y04236*
X00881Y04239*
X00884Y04243*
X00885Y04249*
Y04784*
X00884Y0479*
X00881Y04794*
X00876Y04797*
X00871Y04798*
X00437*
Y05503*
X0035Y0559*
X0001*
Y05677*
X00421*
G37*
G36*
X01968Y04899D02*
Y04867D01*
X01963Y04865*
X01813Y05015*
X01814Y05018*
X01816Y05031*
X01814Y05044*
X01813Y05047*
X01817Y0505*
X01968Y04899*
G37*
G36*
X00422Y05498D02*
Y04799D01*
X00417Y04798*
X00084*
X00078Y04797*
X00078Y04797*
X00073Y04799*
Y05391*
X00116Y05434*
X00116Y05434*
X00125Y05438*
X00133Y05444*
X0014Y05452*
X00144Y05462*
X00145Y05472*
X00144Y05482*
X0014Y05491*
X00133Y055*
X00125Y05506*
X00116Y0551*
X00106Y05511*
X00096Y0551*
X00086Y05506*
X00078Y055*
X00072Y05491*
X00068Y05482*
X00068Y05482*
X00015Y05429*
X00014Y05428*
X0001Y0543*
Y05576*
X00344*
X00422Y05498*
G37*
G36*
X01943Y04825D02*
Y04793D01*
X01938Y04791*
X01813Y04917*
X01814Y0492*
X01816Y04933*
X01814Y04945*
X01813Y04949*
X01817Y04951*
X01943Y04825*
G37*
G36*
X01911Y04758D02*
Y04726D01*
X01907Y04724*
X01813Y04818*
X01814Y04822*
X01816Y04834*
X01814Y04847*
X01813Y0485*
X01817Y04853*
X01911Y04758*
G37*
G36*
X0188Y04692D02*
Y04659D01*
X01875Y04657*
X01813Y0472*
X01814Y04723*
X01816Y04736*
X01814Y04748*
X01813Y04752*
X01817Y04755*
X0188Y04692*
G37*
G36*
Y04409D02*
Y04396D01*
X0175Y04266*
X01738*
X01736Y04271*
X01875Y04411*
X0188Y04409*
G37*
G36*
X01849Y04456D02*
Y04443D01*
X01671Y04266*
X01659*
X01657Y04271*
X01844Y04458*
X01849Y04456*
G37*
G36*
X00871Y04784D02*
Y04249D01*
X00084*
Y04784*
X00871*
G37*
G36*
X00422Y04235D02*
Y03741D01*
X00378*
X00257Y03863*
Y04235*
X00422*
G37*
G36*
X00078Y04236D02*
X00084Y04235D01*
X00214*
Y03854*
X00216Y03846*
X00221Y03839*
X00349Y03711*
X00347Y03706*
X00206*
X00073Y0384*
Y04234*
X00078Y04236*
X00078Y04236*
G37*
G36*
X04574Y03267D02*
X03543D01*
Y03606*
X04574*
Y03267*
G37*
G36*
X00948Y03157D02*
X00086D01*
Y03629*
X00948*
Y03157*
G37*
G36*
X04574Y02893D02*
X03543D01*
Y03248*
X04574*
Y02893*
G37*
G36*
X01048Y03134D02*
Y02888D01*
X01044Y02887*
X0095Y02981*
Y02989*
X00953Y02991*
X00958Y02998*
X00961Y03007*
X00962Y03015*
X00961Y03024*
X00958Y03032*
X00953Y03039*
X00946Y03044*
X00937Y03048*
X00929Y03049*
X0092Y03048*
X00912Y03044*
X00905Y03039*
X00899Y03032*
X00896Y03024*
X00895Y03015*
X00896Y03007*
X00899Y02998*
X00905Y02991*
X00908Y02989*
Y02972*
X00909Y02964*
X00914Y02957*
X01056Y02814*
X01057Y02813*
X01057Y02809*
X01055Y02807*
X01054Y02806*
X01054Y02805*
X01053Y02805*
X01053Y02803*
X01053Y02803*
X01052Y02802*
X01052Y02801*
X01052Y028*
Y028*
X01052Y02799*
X01052Y02799*
X01052Y02798*
X01052Y02796*
Y02795*
X01052Y02794*
X01053Y02792*
X01053Y02791*
X01054Y0279*
X01055Y02789*
X01056Y02788*
X01326Y02517*
X01324Y02512*
X01317Y02509*
X0131Y02504*
X01305Y02497*
X01302Y02489*
X013Y0248*
X01302Y02471*
X01305Y02463*
X0131Y02456*
X01317Y02451*
X01325Y02447*
X01334Y02446*
X01338Y02447*
X0137Y02414*
X01549Y02235*
Y02063*
X01544Y0206*
X0154Y02062*
X01531Y02063*
X01487*
X01466Y02083*
Y02283*
X01465Y02292*
X01462Y023*
X01456Y02307*
X01342Y02421*
X01335Y02426*
X01327Y0243*
X01318Y02431*
X0112*
X00885Y02666*
X0089Y02673*
X00899Y02693*
X00906Y02713*
X0091Y02734*
X00912Y02755*
X0091Y02777*
X00906Y02798*
X00899Y02818*
X0089Y02837*
X00878Y02855*
X00864Y02871*
X00847Y02886*
X0083Y02898*
X0081Y02907*
X0079Y02914*
X00769Y02918*
X00748Y0292*
X00726Y02918*
X00705Y02914*
X00685Y02907*
X00665Y02898*
X00648Y02886*
X00631Y02871*
X00617Y02855*
X00605Y02837*
X00596Y02818*
X00589Y02798*
X00585Y02777*
X00583Y02755*
X00585Y02734*
X00589Y02713*
X00596Y02693*
X00605Y02673*
X00617Y02655*
X00631Y02639*
X00648Y02625*
X00665Y02613*
X00685Y02604*
X00705Y02597*
X00726Y02593*
X00748Y02591*
X00769Y02593*
X0079Y02597*
X0081Y02604*
X0083Y02613*
X00837Y02618*
X01082Y02373*
X01089Y02368*
X01097Y02365*
X01106Y02363*
X01304*
X01399Y02269*
Y02074*
Y02069*
X014Y02061*
X014Y0206*
Y02035*
X01419*
X01448Y02006*
Y01943*
X01527*
Y01955*
X01548*
Y01951*
X01593*
Y02*
X01591*
Y02046*
X01596Y02048*
X01598Y02046*
X01605Y02041*
X01613Y02038*
X01622Y02037*
X0163Y02038*
X01638Y02041*
X01645Y02046*
X01648Y02049*
X01674*
X01675Y02044*
X01672Y02044*
X01664Y02041*
X01657Y02035*
X01651Y02028*
X01648Y0202*
X01647Y02011*
X01648Y02003*
X01651Y01994*
X01657Y01987*
X01664Y01982*
X01672Y01979*
X01681Y01978*
X01689Y01979*
X01697Y01982*
X01704Y01987*
X01707Y0199*
X01721*
X01725Y01988*
Y01909*
Y01895*
X01593*
Y01898*
X01548*
Y01849*
X01593*
Y01852*
X01725*
Y01843*
X01688*
X0168Y01842*
X01674Y01837*
X01642Y01806*
X01638Y01799*
X01636Y01791*
Y01696*
X01631*
Y01678*
X01626*
X01599Y01705*
Y01771*
X01598Y01779*
X01593Y01786*
X01514Y01866*
X01516Y01871*
X01527*
Y01936*
X01448*
Y01922*
X01319*
X01289Y01952*
X01291Y01956*
Y02006*
Y02011*
Y02016*
Y02041*
X01304Y02053*
X01327*
Y02035*
X01392*
Y02114*
X01327*
Y02095*
X01295*
X01287Y02094*
X0128Y02089*
X01257Y02066*
X01228*
Y02016*
X01228Y02011*
X01228Y02006*
Y01956*
X01238*
Y01952*
X0124Y01944*
X01244Y01937*
X01296Y01886*
X01302Y01882*
X01311Y0188*
X01448*
Y01871*
X01467*
Y01862*
X01468Y01854*
X01473Y01847*
X01557Y01762*
Y01696*
X01559Y01688*
X01563Y01681*
X01603Y01642*
X0161Y01638*
X01618Y01636*
X01631*
Y01618*
X01696*
Y01678*
X017Y01682*
X01704Y01681*
Y01618*
X01769*
Y01644*
X01775*
Y01632*
X01854*
Y01644*
X01901*
X01903Y01639*
X01901Y01637*
X01888*
X0188Y01636*
X01873Y01631*
X01859Y01617*
X01854Y01619*
Y01625*
X01775*
Y01611*
X01528*
Y01629*
X01498*
X01475Y01652*
X01477Y01657*
X01528*
Y01736*
X01523*
X01522Y01736*
X0152Y01741*
X01525Y01746*
X01528Y01755*
X01529Y01763*
X01528Y01772*
X01525Y0178*
X01519Y01787*
X01512Y01793*
X01504Y01796*
X01496Y01797*
X01487Y01796*
X01479Y01793*
X01472Y01787*
X0147Y01784*
X014*
X01398Y01789*
X01399Y01789*
X01405Y01795*
X01411Y01802*
X01414Y0181*
X01415Y01818*
X01414Y01827*
X01411Y01835*
X01405Y01842*
X01398Y01848*
X0139Y01851*
X01381Y01852*
X01373Y01851*
X01365Y01848*
X01358Y01842*
X01355Y01839*
X01304*
X01161Y01982*
Y02011*
Y02016*
Y02066*
X0115*
Y02097*
X01237Y02183*
X01328*
Y02165*
X01393*
Y02244*
X01328*
Y02225*
X01228*
X0122Y02224*
X01213Y02219*
X01115Y02121*
X0111Y02114*
X01108Y02106*
Y02066*
X01098*
Y02016*
Y02011*
Y02006*
Y01989*
X01093Y01987*
X00556Y02524*
Y02821*
X00804Y03069*
X00968*
X00976Y03071*
X00983Y03075*
X01044Y03136*
X01048Y03134*
G37*
G36*
X01022Y03663D02*
Y03174D01*
X00959Y03111*
X00795*
X00787Y0311*
X0078Y03105*
X0052Y02845*
X00518Y02842*
X00515Y02842*
X00513Y02843*
X00511Y0285*
X00507Y02857*
X00253Y03111*
Y03143*
X00948*
X00954Y03144*
X00958Y03147*
X00961Y03152*
X00962Y03157*
Y03629*
X00961Y03634*
X00964Y03639*
X00984*
X00992Y0364*
X01001Y03643*
X01008Y03649*
X01009Y0365*
X01014Y03657*
X01017Y03664*
X01022Y03663*
G37*
G36*
X01437Y02862D02*
X0144Y02861D01*
X01442Y02854*
X01445Y02849*
X01442Y02845*
X0144Y02837*
X01442Y02829*
X01445Y02824*
X01442Y0282*
X0144Y02812*
X01442Y02804*
X01445Y02799*
X01442Y02795*
X0144Y02787*
X01442Y02779*
X01445Y02774*
X01442Y0277*
X0144Y02762*
X01442Y02754*
X01445Y02749*
X01442Y02745*
X0144Y02737*
X01442Y02729*
X01445Y02724*
X01442Y0272*
X0144Y02712*
X01442Y02704*
X01445Y02699*
X01442Y02695*
X0144Y02687*
X01442Y02679*
X01443Y02677*
X01442Y02675*
X01437Y02675*
X01435Y0268*
X0143Y02686*
X01424Y02691*
X01417Y02694*
X01409Y02695*
X01401Y02694*
X01394Y02691*
X01388Y02686*
X01379*
X01375Y02687*
Y02732*
X01376Y02733*
X01395Y02752*
X01399Y02758*
X014Y02765*
Y02771*
X01422*
Y02842*
X01421*
X01419Y02847*
X01435Y02863*
X01437Y02862*
G37*
G36*
X01442Y02654D02*
X01445Y02649D01*
X01442Y02645*
X0144Y02637*
X01442Y02629*
X01445Y02624*
X01442Y0262*
X0144Y02612*
X01442Y02604*
X01446Y02598*
X01452Y02593*
X01458Y02592*
X01462Y02587*
X01462Y02587*
Y02562*
Y02521*
X01462Y02521*
X0146Y02512*
Y02478*
X01455Y02476*
X01292Y02639*
X01294Y02644*
X01388*
X01394Y02639*
X01401Y02636*
X01409Y02635*
X01417Y02636*
X01424Y02639*
X0143Y02644*
X01435Y0265*
X01436Y02654*
X0144Y02654*
X01442Y02654*
G37*
G36*
X04574Y02519D02*
X03543D01*
Y02874*
X04574*
Y02519*
G37*
G36*
X01929Y02514D02*
Y02504D01*
X01968*
Y02458*
X01921*
Y02478*
X01856*
Y02409*
X01848*
Y02478*
X01835*
Y02496*
X0184Y02498*
X0184Y02498*
X01846Y02493*
X01854Y02492*
X01901*
X01909Y02493*
X01915Y02498*
X0192Y02504*
X01921Y02512*
X01921Y02514*
X01924Y02518*
X01925Y02518*
X01929Y02514*
G37*
G36*
X01453Y02418D02*
X01452Y02412D01*
X01451Y02412*
X01066Y02798*
X01066Y02798*
X01071Y028*
X01453Y02418*
G37*
G36*
X01467Y02403D02*
X01468Y02403D01*
X01724Y02147*
X01725Y02142*
Y02093*
X01721Y02091*
X01648*
X01645Y02094*
X01638Y021*
X0163Y02103*
X01622Y02104*
X01613Y02103*
X01605Y021*
X01598Y02094*
X01596Y02093*
X01591Y02094*
Y02244*
X0159Y02252*
X01585Y02258*
X01451Y02393*
X01452Y02398*
X01453Y02398*
X01453Y02398*
X01453Y02398*
X01454*
X01454Y02398*
X01456Y02399*
X01457Y02399*
X01457Y02399*
X01458Y024*
X01459Y024*
X01459Y024*
X01461Y02402*
X01462Y02403*
X01466Y02403*
X01467Y02403*
G37*
G36*
X04574Y02145D02*
X03543D01*
Y025*
X04574*
Y02145*
G37*
G36*
X02307Y02681D02*
X02307Y02614D01*
X02476Y02444*
X0261*
X02625Y02429*
Y02043*
Y01976*
X02614Y01964*
X02543*
X02531Y01976*
Y0207*
X02074Y02527*
Y02681*
X02129Y02736*
X02251*
X02307Y02681*
G37*
G36*
X01915Y01904D02*
Y01891D01*
X01912Y01891*
X01906Y01888*
X01901Y01884*
X01896Y01879*
X01894Y01873*
X01893Y01866*
X01894Y01859*
X01896Y01853*
X01901Y01848*
X01904Y01845*
X01904Y01839*
X01901Y01837*
X01896*
X01863Y01871*
Y01909*
Y01927*
X01892*
X01915Y01904*
G37*
G36*
X04578Y01767D02*
X03547D01*
Y02125*
X04578*
Y01767*
G37*
G36*
X00237Y0183D02*
X00313D01*
X00315Y01825*
X00238Y01748*
X00128*
X00126Y01752*
X00117Y01758*
X00115Y01759*
X00116Y01764*
X00137*
Y01779*
X00141*
X0015Y0178*
X00158Y01786*
X00214Y01842*
X00237*
Y0183*
G37*
G36*
X01794Y01799D02*
Y01737D01*
X0173*
X01728Y0174*
X01721Y01745*
X01713Y01749*
X01704Y0175*
X01695Y01749*
X01687Y01745*
X01683Y01742*
X01678Y01744*
Y01782*
X01697Y01801*
X01786*
X0179Y01802*
X01794Y01799*
G37*
G36*
X01998Y01814D02*
Y0171D01*
X01993Y01709*
X01976Y01726*
X01975Y01729*
X01971Y01734*
X01965Y01738*
Y01744*
X01971Y01748*
X01975Y01753*
X01977Y01759*
X01978Y01766*
X01977Y01773*
X01975Y01779*
X01971Y01784*
X01965Y01788*
Y01794*
X01971Y01798*
X01975Y01803*
X01977Y01809*
X01978Y01816*
X01977Y01823*
X01975Y01829*
X01971Y01834*
X01975Y01837*
X01998Y01814*
G37*
G36*
X01467Y01741D02*
X01464Y01736D01*
X01463*
Y01665*
X01459Y01662*
X01456Y01662*
X01374*
X01299Y01738*
X01301Y01742*
X01466*
X01467Y01741*
G37*
G36*
X02652Y01865D02*
Y01716D01*
X02653Y01708*
X02658Y01701*
X02729Y0163*
X02736Y01626*
X02744Y01624*
X02818*
X02856Y01585*
Y01491*
X02851Y01489*
X02814Y01526*
Y0157*
X02736*
Y01492*
X0278*
X02814Y01458*
Y01366*
X02778Y0133*
X0275*
Y01321*
X02745Y01319*
X02717Y01347*
X0271Y01352*
X02702Y01353*
X02657*
Y01365*
X02578*
Y013*
X02657*
Y01311*
X02694*
X02707Y01297*
X02705Y01293*
X02659*
X02657Y01292*
X02627*
X02626Y01292*
X02618Y01293*
X02515*
X02507Y01292*
X02498Y01289*
X02491Y01283*
X02489Y01281*
X02458*
X02458Y01282*
X0245Y01291*
X02441Y01299*
X0243Y01304*
X02419Y01308*
X02407Y01309*
X02395Y01308*
X02383Y01304*
X02373Y01299*
X02363Y01291*
X02356Y01282*
X0235Y01271*
X02346Y01259*
X02345Y01248*
X02346Y01236*
X02347Y01235*
X02235Y01124*
X01744*
X01736Y01123*
X01728Y0112*
X01721Y01114*
X01619Y01013*
X01619Y01013*
X01607Y01014*
X01499Y01122*
X01526Y01149*
X01531Y01156*
X01532Y01164*
Y01425*
X01544*
Y01503*
X01548Y01506*
X01716*
X01717Y01505*
X01715Y015*
X01673*
Y01421*
X01684*
Y01349*
X01686Y01341*
X0169Y01334*
X01751Y01273*
X0175Y01271*
X01746Y01259*
X01745Y01248*
X01746Y01236*
X0175Y01224*
X01756Y01213*
X01763Y01204*
X0177Y01199*
X01768Y01194*
X0169*
X01662Y01222*
X01663Y01224*
X01667Y01236*
X01668Y01248*
X01667Y01259*
X01663Y01271*
X01658Y01282*
X0165Y01291*
X01641Y01299*
X0163Y01304*
X01619Y01308*
X01607Y01309*
X01595Y01308*
X01583Y01304*
X01573Y01299*
X01563Y01291*
X01556Y01282*
X0155Y01271*
X01546Y01259*
X01545Y01248*
X01546Y01236*
X0155Y01224*
X01556Y01213*
X01563Y01204*
X01573Y01197*
X01583Y01191*
X01595Y01187*
X01607Y01186*
X01619Y01187*
X0163Y01191*
X01632Y01192*
X01666Y01158*
X01673Y01153*
X01681Y01152*
X02177*
X02186Y01153*
X02192Y01158*
X02355Y01321*
X02503*
X02512Y01323*
X02518Y01327*
X02613Y01422*
X02617Y01428*
X02619Y01437*
Y01449*
X02645*
Y01518*
X02551*
Y01505*
X02443*
Y01523*
X02378*
Y01449*
Y01444*
Y01366*
X02375Y01363*
X02371Y01366*
Y01439*
Y01444*
Y01523*
X02306*
Y01517*
X02301Y01515*
X02276Y0154*
Y01574*
X02275Y01582*
X0227Y01589*
X02229Y01631*
X02222Y01636*
X02214Y01637*
X02183*
X02182Y01641*
X02182Y01643*
X02184Y01645*
X02238*
X0226Y01622*
X02267Y01618*
X02275Y01616*
X02305*
Y01585*
X02302*
Y0154*
X02351*
Y01585*
X02347*
Y01598*
X02371*
Y01677*
X0237Y01677*
Y01751*
X02371*
Y0177*
X02388*
Y01755*
X02377*
Y01681*
Y01677*
X02378Y01672*
Y01598*
X02443*
Y01604*
X02448Y01606*
X02451Y01605*
X0246Y01604*
X02469Y01605*
X02477Y01608*
X02484Y01613*
X02489Y0162*
X02493Y01629*
X02494Y01637*
X02493Y01646*
X02489Y01654*
X02484Y01661*
X02477Y01667*
X02469Y0167*
X0246Y01671*
X02451Y0167*
X02448Y01668*
X02443Y01671*
Y01677*
X02442Y01681*
Y01695*
X02518*
Y0163*
X02471Y01584*
X02453*
Y01585*
X02404*
Y0154*
X02453*
Y01541*
X0248*
X02488Y01543*
X02495Y01548*
X02554Y01607*
X02558Y01613*
X0256Y01622*
Y01707*
X02617Y01764*
X02621Y01771*
X02623Y01779*
Y01855*
X02626Y01858*
X02631Y01865*
X02634Y01873*
X02635Y01875*
X0264Y01877*
X02652Y01865*
G37*
G36*
X01906Y01594D02*
Y01588D01*
X01901Y01584*
X01896Y01579*
X01894Y01573*
X01893Y01566*
X01886Y01559*
X01882Y01553*
X0188Y01545*
Y01527*
X01869*
Y01448*
X01864*
X01861*
Y01371*
X01811*
X0178Y01402*
Y01496*
X01779Y01504*
X01774Y0151*
X01743Y01542*
X01736Y01547*
X01728Y01548*
X01532*
X01528Y01551*
Y01569*
X01775*
Y0156*
X01854*
Y01571*
X01864*
X01872Y01573*
X01879Y01577*
X01896Y01595*
X01904*
X01906Y01594*
G37*
G36*
X00015Y03802D02*
X00169Y03649D01*
X00169Y03648*
X00167Y03643*
X00086*
X00081Y03642*
X00076Y03639*
X00073Y03635*
X00072Y03629*
Y03157*
X00073Y03152*
X00076Y03147*
X00081Y03144*
X00086Y03143*
X00211*
Y03102*
X00212Y03094*
X00217Y03087*
X00471Y02833*
Y02515*
X00472Y02507*
X00477Y025*
X01351Y01626*
X01358Y01622*
X01366Y0162*
X01447*
X01463Y01605*
Y01551*
X01459Y01548*
X01359*
X0107Y01837*
X01063Y01842*
X01055Y01843*
X00999*
Y01862*
X00934*
Y01788*
X00926*
Y01862*
X00861*
Y01843*
X00803*
Y01851*
X00724*
Y01838*
X00702*
Y01842*
X00639*
Y01791*
X00635Y01788*
X00634*
X00601Y01821*
Y01828*
X00612*
Y01879*
X00549*
Y01878*
X00494*
X00489Y01883*
X00481Y01888*
X00472Y0189*
X0043*
Y01901*
X00349*
Y01859*
X00322Y01833*
X00317Y01835*
Y01901*
X00237*
Y0189*
X00204*
X00195Y01888*
X00187Y01883*
X00141Y01837*
X00137Y01839*
Y01841*
X00059*
Y01764*
X0008*
X00081Y01759*
X00078Y01758*
X0007Y01752*
X00064Y01743*
X0006Y01734*
X00059Y01724*
X0006Y01714*
X00064Y01704*
X0007Y01696*
X00078Y0169*
X00088Y01686*
X00098Y01685*
X00108Y01686*
X00117Y0169*
X00126Y01696*
X00128Y017*
X00248*
X00257Y01702*
X00265Y01707*
X00388Y0183*
X0043*
Y01842*
X00462*
X00467Y01837*
X00475Y01832*
X00484Y0183*
X00549*
Y01828*
X00559*
Y01812*
X00561Y01804*
X00565Y01798*
X00611Y01752*
X00617Y01748*
X00625Y01746*
X01054*
X01216Y01584*
X01213Y0158*
X01196Y01588*
X01176Y01595*
X01155Y01599*
X01134Y01601*
X01112Y01599*
X01091Y01595*
X01071Y01588*
X01051Y01579*
X01034Y01567*
X01017Y01553*
X01003Y01536*
X00991Y01519*
X00982Y01499*
X00975Y01479*
X00971Y01458*
X00969Y01437*
X00971Y01415*
X00975Y01394*
X00982Y01374*
X00991Y01354*
X01003Y01337*
X01017Y0132*
X01034Y01306*
X01051Y01294*
X01071Y01285*
X01091Y01278*
X01112Y01274*
X01134Y01272*
X01155Y01274*
X01176Y01278*
X01196Y01285*
X01214Y01294*
X01227Y01281*
Y01192*
X01229Y01181*
X01233Y01171*
X0124Y01162*
X01327Y01075*
X01336Y01068*
X01346Y01064*
X01358Y01062*
X01435*
X01545Y00952*
X01546Y00941*
X0155Y00929*
X01556Y00918*
X01563Y00909*
X01565Y00908*
X01563Y00903*
X0145*
X01449Y00908*
X0145Y00909*
X01458Y00918*
X01463Y00929*
X01467Y00941*
X01468Y00953*
X01467Y00964*
X01463Y00976*
X01458Y00987*
X0145Y00996*
X01441Y01004*
X0143Y01009*
X01419Y01013*
X01407Y01014*
X01395Y01013*
X01383Y01009*
X01373Y01004*
X01363Y00996*
X01356Y00987*
X0135Y00976*
X01346Y00964*
X01345Y00953*
X01346Y00941*
X01347Y00939*
X01343Y00936*
X01317Y00962*
Y01047*
X01316Y01052*
X01313Y01057*
X01135Y01234*
X01131Y01237*
X01125Y01238*
X00377*
X00372Y01237*
X00368Y01234*
X00364Y01229*
X00363Y01224*
Y006*
X00184*
X0016Y00603*
X00136Y0061*
X00114Y00619*
X00092Y00631*
X00073Y00646*
X00056Y00664*
X00041Y00683*
X00029Y00704*
X00019Y00727*
X00013Y0075*
X0001Y00775*
Y00787*
Y03802*
X00014Y03803*
X00015Y03802*
G37*
G36*
X02234Y01566D02*
Y01531D01*
X02236Y01523*
X02241Y01516*
X02248Y01509*
X02246Y01504*
X0219*
X02185*
X02185*
X02166*
Y0154*
X02167*
X02174Y01541*
X0218Y01544*
X02185Y01548*
X02189Y01553*
X02192Y01559*
X02193Y01566*
X02192Y01573*
X02189Y01579*
X02185Y01584*
X02182Y01587*
X02182Y01593*
X02184Y01595*
X02205*
X02234Y01566*
G37*
G36*
X02288Y01469D02*
X02295Y01464D01*
X02303Y01463*
X02306*
Y01449*
Y01444*
Y01366*
X02336*
X02337Y01361*
X02332Y01357*
X02169Y01194*
X01845*
X01843Y01199*
X0185Y01204*
X01858Y01213*
X01863Y01224*
X01867Y01236*
X01868Y01248*
X01867Y01259*
X01863Y01271*
X01858Y01282*
X0185Y01291*
X01841Y01299*
X0183Y01304*
X01819Y01308*
X01807Y01309*
X01795Y01308*
X01783Y01304*
X01781Y01303*
X01726Y01358*
Y01421*
X01738*
X01738Y01416*
Y01393*
X0174Y01385*
X01744Y01378*
X01788Y01335*
X01795Y0133*
X01803Y01329*
X02003*
X02012Y0133*
X02018Y01335*
X02066Y01382*
X0207Y01389*
X02071Y01395*
X02072Y01395*
X02077Y01397*
X02089Y01384*
X02096Y0138*
X02104Y01378*
X02106*
Y01367*
X02185*
Y01432*
X02111*
Y01439*
X0218*
X02185Y01439*
X02185*
Y01439*
X02263*
Y01487*
X02268Y01489*
X02288Y01469*
G37*
G36*
X01406Y01503D02*
Y01501D01*
Y01461*
X01392Y01447*
X01387Y0144*
X01386Y01432*
Y01305*
X01383Y01304*
X01373Y01299*
X01363Y01291*
X01356Y01282*
X0135Y01271*
X01346Y01259*
X01345Y01248*
X01346Y01236*
X0135Y01224*
X01356Y01213*
X01363Y01204*
X01373Y01197*
X01383Y01191*
X01395Y01187*
X01407Y01186*
X01419Y01187*
X0143Y01191*
X01441Y01197*
X0145Y01204*
X01458Y01213*
X01463Y01224*
X01467Y01236*
X01468Y01248*
X01467Y01259*
X01463Y01271*
X01458Y01282*
X0145Y01291*
X01441Y01299*
X0143Y01304*
X01428Y01305*
Y01423*
X01429Y01425*
X01471*
Y01501*
Y01503*
X01475Y01506*
X01479Y01503*
Y01425*
X0149*
Y01173*
X01465Y01148*
X01465Y01148*
X01453Y01149*
X01376*
X01315Y01211*
Y01299*
X01313Y0131*
X01309Y01321*
X01302Y0133*
X01276Y01356*
X01285Y01374*
X01292Y01394*
X01296Y01415*
X01298Y01437*
X01296Y01456*
X01301Y01457*
X01302Y01455*
X01305Y01447*
X0131Y0144*
X01317Y01435*
X01325Y01431*
X01334Y0143*
X01343Y01431*
X01351Y01435*
X01358Y0144*
X01363Y01447*
X01367Y01455*
X01368Y01464*
X01367Y01473*
X01363Y01481*
X01358Y01488*
X01355Y0149*
Y01496*
X01354Y01501*
X01358Y01506*
X01402*
X01406Y01503*
G37*
G36*
X02551Y01449D02*
X02575D01*
X02576Y01444*
X02495Y01363*
X02447*
X02443Y01366*
Y01384*
X02444*
X02452Y01386*
X02459Y0139*
X02472Y01403*
X02472Y01403*
X02481Y01404*
X02489Y01407*
X02496Y01413*
X02501Y0142*
X02505Y01428*
X02506Y01437*
X02505Y01445*
X02501Y01453*
X02498Y01458*
X025Y01463*
X02551*
Y01449*
G37*
G36*
X04574Y01393D02*
X03543D01*
Y01748*
X04574*
Y01393*
G37*
G36*
X02856Y01333D02*
Y01296D01*
X02815Y01254*
X02812Y01255*
Y01255*
X02757*
Y01279*
X02812*
Y01296*
X02851Y01335*
X02856Y01333*
G37*
G36*
X02666Y01106D02*
X02622Y01062D01*
X02614*
Y01078*
X02543*
Y01*
X02529Y00986*
X02458*
X02458Y00987*
X0245Y00996*
X02441Y01004*
X0243Y01009*
X02419Y01013*
X02407Y01014*
X02395Y01013*
X02383Y01009*
X02373Y01004*
X02363Y00996*
X02356Y00987*
X0235Y00976*
X02346Y00964*
X02345Y00953*
X02346Y00941*
X0235Y00929*
X02356Y00918*
X02363Y00909*
X02365Y00908*
X02363Y00903*
X0185*
X01849Y00908*
X0185Y00909*
X01858Y00918*
X01863Y00929*
X01867Y00941*
X01868Y00953*
X01867Y00964*
X01863Y00976*
X01858Y00987*
X0185Y00996*
X01841Y01004*
X0183Y01009*
X01819Y01013*
X01807Y01014*
X01795Y01013*
X01783Y01009*
X01773Y01004*
X01763Y00996*
X01756Y00987*
X0175Y00976*
X01746Y00964*
X01745Y00953*
X01746Y00941*
X0175Y00929*
X01756Y00918*
X01763Y00909*
X01765Y00908*
X01763Y00903*
X0165*
X01649Y00908*
X0165Y00909*
X01658Y00918*
X01663Y00929*
X01667Y00941*
X01668Y00953*
X01667Y00964*
X01667Y00965*
X01758Y01057*
X02249*
X02258Y01058*
X02266Y01061*
X02273Y01066*
X02394Y01187*
X02395Y01187*
X02407Y01186*
X02419Y01187*
X0243Y01191*
X02441Y01197*
X0245Y01204*
X02458Y01213*
X02458Y01214*
X02503*
X02512Y01215*
X0252Y01218*
X02527Y01224*
X02529Y01226*
X02584*
Y01218*
X02556Y0119*
X02543*
Y0111*
X02614*
Y01153*
X02641Y0118*
X02647Y01187*
X0265Y01195*
X02651Y01204*
Y01227*
X02657*
Y01237*
X02659Y01242*
X02666*
Y01106*
G37*
G36*
X04574Y00992D02*
X03543D01*
Y01374*
X04574*
Y00992*
G37*
G36*
X0452Y06088D02*
X04544Y06082D01*
X04566Y06073*
X04588Y06061*
X04607Y06046*
X04624Y06028*
X04639Y06009*
X04652Y05988*
X04661Y05965*
X04667Y05942*
X0467Y05917*
Y05905*
X0467Y00787*
Y00787*
X0467Y00775*
X04667Y0075*
X04661Y00727*
X04652Y00704*
X04639Y00683*
X04624Y00664*
X04607Y00646*
X04588Y00631*
X04566Y00619*
X04544Y0061*
X0452Y00603*
X04496Y006*
X03529*
Y00979*
X0353Y00979*
X03534Y00981*
X03537Y00979*
X03543Y00978*
X04574*
X0458Y00979*
X04584Y00982*
X04587Y00986*
X04588Y00992*
Y01374*
X04587Y01379*
X04584Y01383*
X04587Y01388*
X04588Y01393*
Y01748*
X04587Y01753*
X04586Y01756*
X04588Y01757*
X04591Y01762*
X04592Y01767*
Y02125*
X04591Y02131*
X04588Y02135*
X04586Y02137*
X04587Y0214*
X04588Y02145*
Y025*
X04587Y02505*
X04584Y02509*
X04587Y02514*
X04588Y02519*
Y02874*
X04587Y02879*
X04584Y02883*
X04587Y02888*
X04588Y02893*
Y03248*
X04587Y03253*
X04584Y03257*
X04587Y03262*
X04588Y03267*
Y03606*
X04587Y03611*
X04584Y03616*
X0458Y03619*
X04574Y0362*
X03543*
X03537Y03619*
X03533Y03616*
X03532Y03614*
X03526*
X03525Y03616*
X03521Y03619*
X03515Y0362*
X03003*
X02998Y03619*
X02994Y03616*
X02931Y03553*
X02927Y03548*
X02926Y03543*
X02926Y01782*
X02922Y0178*
X02861Y01841*
X02854Y01846*
X02846Y01847*
X02814*
Y01865*
X02736*
Y01787*
X02757*
X02758Y01782*
X02756Y01781*
X02747Y01775*
X02741Y01767*
X02737Y01758*
X02736Y01748*
X02737Y01737*
X02741Y01728*
X02747Y0172*
X02756Y01714*
X02765Y0171*
X02775Y01708*
X02785Y0171*
X02795Y01714*
X02803Y0172*
X02809Y01728*
X02813Y01737*
X02814Y01748*
X02813Y01758*
X02809Y01767*
X02803Y01775*
X02795Y01781*
X02792Y01782*
X02793Y01787*
X02814*
Y01805*
X02837*
X02892Y01751*
Y01616*
X02887Y01614*
X02841Y0166*
X02834Y01665*
X02826Y01666*
X02752*
X02694Y01725*
Y01874*
X02692Y01882*
X02688Y01888*
X02629Y01947*
X02626Y01949*
X02625Y01951*
X02625Y01956*
X02635Y01966*
X02638Y01971*
X02639Y01976*
X02641Y01977*
X02644Y01978*
X02645Y01976*
X02655Y01969*
X02665Y01965*
X02677Y01963*
X02688Y01965*
X02699Y01969*
X02708Y01976*
X02715Y01985*
X02719Y01996*
X02721Y02007*
X02719Y02019*
X02715Y02029*
X02708Y02039*
X02699Y02046*
X02698Y02046*
Y02466*
X02696Y02474*
X02692Y02481*
X02546Y02627*
X02547Y02628*
X0255Y02639*
X02551Y0265*
X0255Y02662*
X02547Y02672*
X02541Y02683*
X02534Y02691*
X02525Y02699*
X02515Y02704*
X02504Y02707*
X02493Y02708*
X02481Y02707*
X0247Y02704*
X0246Y02699*
X02451Y02691*
X02444Y02683*
X02439Y02672*
X02435Y02662*
X02434Y0265*
X02435Y02639*
X02439Y02628*
X02444Y02618*
X02451Y02609*
X0246Y02602*
X0247Y02596*
X02481Y02593*
X02493Y02592*
X02504Y02593*
X02515Y02596*
X02516Y02597*
X02656Y02457*
Y02046*
X02655Y02046*
X02645Y02039*
X02644Y02037*
X0264Y02039*
Y02043*
X0264Y02429*
X02638Y02434*
X02635Y02439*
X02626Y02448*
Y02448*
X02626*
X0262Y02454*
X02615Y02457*
X0261Y02458*
X02482*
X02321Y02619*
Y02681*
X0232Y02686*
X02317Y02691*
X02261Y02746*
X02257Y02749*
X02251Y0275*
X02129*
X02124Y02749*
X02119Y02746*
X02064Y02691*
X02061Y02686*
X0206Y02681*
X0206Y02527*
X02061Y02522*
X02064Y02517*
X0226Y02321*
X02256Y02318*
X02252Y02311*
X0225Y02303*
Y023*
X02232*
Y02235*
X02311*
Y02264*
X02315Y02266*
X02517Y02065*
Y02026*
X02362*
Y02038*
X02283*
Y02026*
X02275*
Y02038*
X02196*
Y01973*
X02275*
Y01984*
X02283*
Y01973*
X02362*
Y01984*
X02517*
Y01977*
X02516Y01975*
X02513Y01972*
X0246*
Y01893*
X02525*
Y01911*
X02578*
X0258Y01906*
X02578Y01905*
X02573Y01898*
X02569Y0189*
X02568Y01881*
X02569Y01873*
X02573Y01865*
X02578Y01858*
X02581Y01855*
Y01797*
X02576Y01797*
X02575Y018*
X02572Y01808*
X02567Y01815*
X0256Y0182*
X02552Y01823*
X02543Y01825*
X02534Y01823*
X0253Y01822*
X02526Y01825*
Y0183*
X02461*
Y01751*
X02526*
Y01757*
X0253Y0176*
X02534Y01758*
X02543Y01757*
X02544Y01757*
X02546Y01753*
X0253Y01737*
X02442*
Y01751*
X02453*
Y0183*
X02388*
Y01812*
X02371*
Y0183*
X02306*
Y01755*
X02305*
Y01737*
X02181*
X0218Y01738*
X02174Y01741*
X02167Y01742*
X02133*
X02129Y01741*
X02123Y01744*
X02123Y01748*
X02119Y01757*
X02114Y01764*
X02107Y01769*
X02099Y01772*
X0209Y01773*
X02081Y01772*
X02077Y0177*
X02072Y01774*
Y01802*
X02113Y01843*
X0212*
X02121Y01839*
X0212Y01838*
X02115Y01834*
X02111Y01829*
X02108Y01823*
X02108Y01816*
X02108Y01809*
X02111Y01803*
X02115Y01798*
X0212Y01794*
X02127Y01791*
X02133Y0179*
X02167*
X02174Y01791*
X0218Y01794*
X02181Y01795*
X02194*
X02206Y01784*
X02212Y01779*
X02221Y01778*
X02233*
Y01751*
X02298*
Y0183*
X02296*
X02294Y01835*
X02337Y01878*
X02342Y01885*
X02343Y01893*
Y019*
X02362*
Y01911*
X02387*
Y01893*
X02452*
Y01972*
X02387*
Y01954*
X02362*
Y01965*
X02283*
Y019*
X02293*
X02295Y01895*
X02255Y01856*
X02251Y01849*
X02249Y01841*
Y0183*
X02233*
Y01823*
X02228Y01821*
X02218Y01831*
X02211Y01836*
X02203Y01837*
X02181*
X0218Y01838*
Y01844*
X02185Y01848*
X02189Y01853*
X02192Y01859*
X02193Y01866*
X02192Y01873*
X02189Y01879*
X02185Y01884*
X0218Y01888*
X02174Y01891*
Y01907*
X02177Y01909*
X02179Y01911*
X02196*
Y019*
X02275*
Y01965*
X02196*
Y01954*
X02179*
X02177Y01956*
X0217Y01962*
X02162Y01965*
X02153Y01966*
X02144Y01965*
X02136Y01962*
X02129Y01956*
X02124Y01949*
X0212Y01941*
X02119Y01933*
X0212Y01924*
X02124Y01916*
X02129Y01909*
X02132Y01907*
Y01892*
X02127Y01891*
X0212Y01888*
X02117Y01886*
X02105*
X02097Y01884*
X0209Y01879*
X02043Y01833*
X02037Y01833*
X02034Y01837*
X0199Y01881*
X01984Y01886*
X01975Y01887*
X01967*
X01965Y01888*
X01959Y01891*
X01958Y01891*
Y01913*
X01956Y01921*
X01951Y01928*
X01916Y01963*
X01909Y01968*
X01901Y01969*
X01863*
Y01988*
X01851*
Y02012*
X0187*
Y02077*
X01791*
Y02072*
X01786Y0207*
X0177Y02085*
X01766Y02088*
X01768Y02093*
X0177*
Y02097*
X01791*
Y02085*
X0187*
Y02091*
X01875Y02093*
X0188Y02088*
X01888Y02085*
X01897Y02084*
X01906Y02085*
X01914Y02088*
X01921Y02094*
X01923Y02097*
X02066*
X02074Y02098*
X02081Y02103*
X0212Y02141*
X02149*
Y02191*
Y02196*
Y02199*
X02153Y02203*
X0218*
X02203Y02179*
X0221Y02175*
X02218Y02173*
X02232*
Y02162*
X02311*
Y02227*
X02232*
Y02215*
X02227*
X02203Y02239*
X02197Y02243*
X02188Y02245*
X02149*
Y02251*
X02086*
Y02201*
Y02196*
Y02191*
Y02167*
X02058Y02139*
X01923*
X01921Y02141*
X01914Y02147*
X01906Y0215*
X01897Y02151*
X01888Y0215*
X0188Y02147*
X01875Y02142*
X0187Y02144*
Y0215*
X01791*
Y02139*
X0177*
Y02142*
X01768*
Y02154*
X01766Y02162*
X01762Y02169*
X01653Y02278*
X01655Y02283*
X02114*
X0212Y02277*
X02129Y02274*
X02137Y02273*
X02146Y02274*
X02154Y02277*
X02161Y02283*
X02167Y0229*
X0217Y02298*
X02171Y02307*
X0217Y02315*
X02167Y02323*
X02161Y0233*
X02154Y02336*
X02146Y02339*
X02137Y0234*
X02129Y02339*
X0212Y02336*
X02114Y02331*
X01663*
X01603Y0239*
X01605Y02395*
X01783*
X01788Y02396*
X01793Y02399*
X01793Y02399*
X01838*
X01838Y02399*
X01843Y02396*
X01848Y02395*
X01856*
X01861Y02396*
X01866Y02399*
X01866Y02399*
X01921*
Y02419*
X01984*
X01991Y02421*
X01997Y02425*
X02029Y02456*
X02033Y02463*
X02034Y0247*
Y026*
X02033Y02607*
X02029Y02613*
X02019Y02623*
X02013Y02627*
X02007Y02628*
Y02638*
Y02703*
X01982*
Y02711*
X02007*
Y02772*
Y02837*
X01982*
Y02845*
X02007*
Y0291*
Y02914*
Y02915*
Y02979*
X01982*
Y02987*
X02007*
Y03052*
X01982*
X01982Y03969*
X01981Y03974*
X01978Y03979*
X01977Y03985*
X01999Y04006*
X02003Y04013*
X02005Y04021*
Y04127*
X02023*
Y04192*
X01982*
Y042*
X02023*
Y04265*
X02017*
Y04901*
X02015Y04909*
X0201Y04916*
X01977Y04949*
X01978Y04955*
X01981Y0496*
X01982Y04965*
Y05346*
X01981Y05351*
X01978Y05356*
X01647Y05687*
X01643Y0569*
X01637Y05691*
X00819*
X00817Y05695*
X00824Y05704*
X00832Y05719*
X00837Y05735*
X00839Y05752*
X00837Y05769*
X00832Y05786*
X00824Y05801*
X00813Y05814*
X008Y05825*
X00785Y05833*
X00768Y05838*
X00751Y05839*
X00734Y05838*
X00718Y05833*
X00703Y05825*
X0069Y05814*
X00679Y05801*
X00671Y05786*
X00666Y05769*
X00664Y05752*
X00666Y05735*
X00671Y05719*
X00679Y05704*
X00686Y05695*
X00684Y05691*
X00421*
X0001Y05691*
Y05905*
Y05917*
X00013Y05942*
X00019Y05965*
X00029Y05988*
X00041Y06009*
X00056Y06028*
X00073Y06046*
X00092Y06061*
X00114Y06073*
X00136Y06082*
X0016Y06088*
X00184Y06092*
X04496*
X0452Y06088*
G37*
G36*
X02721Y01181D02*
X02744Y01158D01*
X02751Y01153*
X02759Y01152*
X02834*
X02842Y01153*
X02844Y01155*
X02847Y01151*
X026Y00903*
X0245*
X02449Y00908*
X0245Y00909*
X02458Y00918*
X02458Y00919*
X02543*
X02552Y0092*
X0256Y00923*
X02567Y00929*
X02601Y00962*
X02606Y00969*
X02609Y00978*
X02611Y00986*
Y00998*
X02614*
Y01014*
X02632*
X02642Y01016*
X02649Y01021*
X02707Y01079*
X02713Y01087*
X02715Y01096*
Y01182*
X0272Y01183*
X02721Y01181*
G37*
G36*
X03515Y03606D02*
X03515Y00598D01*
X00377*
Y01224*
X01125*
X01303Y01047*
Y00956*
X0137Y00889*
X02606*
X0294Y01224*
X0294Y03543*
X03003Y03606*
X03515*
G37*
%LNpms_board_copper_signal_top-2*%
%LPC*%
G36*
X01651Y04023D02*
X01586D01*
Y04007*
X01575*
X01574Y04009*
X01568Y04013*
X0156Y04016*
X01553Y04017*
X01545Y04016*
X01538Y04013*
X01532Y04009*
X01527Y04003*
X01524Y03995*
X01523Y03988*
X01524Y03981*
X01523Y0398*
X01521Y03976*
Y03926*
Y03921*
Y03916*
Y03866*
X01524Y03862*
X01524Y03861*
X01524Y03857*
X01521Y03854*
Y03804*
Y03799*
Y03794*
Y03744*
X01524Y0374*
X01524Y03739*
X01524Y03735*
X01521Y03732*
Y03682*
Y03677*
Y03672*
Y03622*
X01523Y03619*
X01523Y03616*
X01523Y03612*
X01521Y0361*
Y0356*
Y03555*
Y0355*
Y035*
X01524Y03496*
X01524Y03495*
X01524Y03491*
X01521Y03488*
Y03438*
Y03433*
Y03428*
Y03377*
X01523Y03375*
X01523Y03372*
X01523Y03368*
X01521Y03366*
Y03316*
Y03311*
Y03306*
Y03255*
X01582*
X01583Y03254*
Y03212*
X01586*
X01587Y03211*
X01589Y03207*
X01588Y032*
X01589Y03193*
X01592Y03185*
X01597Y03179*
X01603Y03174*
X0161Y03172*
X01618Y03171*
X01625Y03172*
X01633Y03174*
X01639Y03179*
X01643Y03185*
X01646Y03193*
X01647Y032*
X01646Y03207*
X01648Y03212*
Y03291*
X01606*
X01599Y03298*
X01592Y03302*
X01584Y03304*
Y03311*
Y03316*
Y0333*
X01585Y03334*
X01604*
X01606Y03334*
X01608Y03334*
X0165*
Y03413*
X01585*
X01584Y03417*
Y03433*
Y03438*
Y03452*
X01585Y03456*
X0165*
Y03535*
X01585*
X01584Y0354*
Y03555*
Y0356*
Y03574*
X01585Y03578*
X0165*
Y03657*
X01585*
X01584Y03662*
Y03677*
Y03682*
Y03696*
X01585Y037*
X0165*
Y03779*
X01585*
X01584Y03784*
Y03799*
Y03804*
Y03818*
X01585Y03822*
X0165*
Y03901*
X01585*
X01584Y03906*
Y03921*
Y03926*
Y0394*
X01586Y03944*
X01605*
X01607Y03944*
X01609Y03944*
X01651*
Y04023*
G37*
G36*
X01901Y03107D02*
X01854D01*
X01846Y03105*
X0184Y03101*
X01835Y03095*
X01834Y03087*
X01835Y03079*
X01839Y03074*
X01835Y0307*
X01834Y03062*
X01835Y03054*
X0184Y03048*
X01846Y03043*
X01854Y03042*
X01901*
X01909Y03043*
X01915Y03048*
X0192Y03054*
X01921Y03062*
X0192Y0307*
X01916Y03074*
X0192Y03079*
X01921Y03087*
X0192Y03095*
X01915Y03101*
X01909Y03105*
X01901Y03107*
G37*
G36*
X00236Y0242D02*
X00214Y02418D01*
X00193Y02414*
X00173Y02407*
X00153Y02398*
X00136Y02386*
X00119Y02371*
X00105Y02355*
X00093Y02337*
X00084Y02318*
X00077Y02298*
X00073Y02277*
X00071Y02255*
X00073Y02234*
X00077Y02213*
X00084Y02193*
X00093Y02173*
X00105Y02155*
X00119Y02139*
X00136Y02125*
X00153Y02113*
X00173Y02104*
X00193Y02097*
X00214Y02093*
X00236Y02091*
X00257Y02093*
X00278Y02097*
X00298Y02104*
X00318Y02113*
X00335Y02125*
X00352Y02139*
X00366Y02155*
X00378Y02173*
X00387Y02193*
X00394Y02213*
X00398Y02234*
X004Y02255*
X00398Y02277*
X00394Y02298*
X00387Y02318*
X00378Y02337*
X00366Y02355*
X00352Y02371*
X00335Y02386*
X00318Y02398*
X00298Y02407*
X00278Y02414*
X00257Y02418*
X00236Y0242*
G37*
G36*
X03948Y05147D02*
X02976D01*
X02968Y05145*
X02961Y0514*
X02628Y04807*
X02623Y048*
X02622Y04792*
Y04704*
X0262Y04704*
X0261Y04699*
X02601Y04691*
X02594Y04683*
X02589Y04672*
X02585Y04662*
X02584Y0465*
X02585Y04639*
X02589Y04628*
X02594Y04618*
X02601Y04609*
X0261Y04602*
X0262Y04596*
X02631Y04593*
X02643Y04592*
X02654Y04593*
X02665Y04596*
X02675Y04602*
X02684Y04609*
X02685Y04611*
X0269Y04609*
Y04582*
X02691Y04577*
X02694Y04572*
X02725Y04542*
X02723Y04537*
X02519*
X02515*
X02371*
X02315Y04593*
X02318Y04597*
X0232Y04596*
X02331Y04593*
X02343Y04592*
X02354Y04593*
X02365Y04596*
X02375Y04602*
X02384Y04609*
X02391Y04618*
X02397Y04628*
X024Y04639*
X02401Y0465*
X024Y04662*
X02397Y04672*
X02391Y04683*
X02384Y04691*
X02375Y04699*
X02365Y04704*
X02354Y04707*
X02343Y04708*
X02331Y04707*
X0232Y04704*
X0231Y04699*
X02301Y04691*
X02294Y04683*
X02294Y04682*
X02289Y04683*
Y04704*
X02288Y0471*
X02285Y04714*
X02242Y04757*
X02237Y04761*
X02232Y04762*
X02214*
Y0479*
X02256Y04833*
X02277*
Y04814*
X02342*
Y04893*
X02277*
Y04875*
X02248*
X02239Y04873*
X02233Y04869*
X02178Y04814*
X02173Y04807*
X02172Y04799*
Y04762*
X02145*
X0214Y04761*
X02135Y04757*
X02092Y04714*
X02089Y0471*
X02088Y04704*
X02088Y04519*
X02089Y04514*
X02092Y04509*
X02391Y0421*
X02396Y04207*
X02401Y04206*
X02856*
X02919Y04143*
Y03826*
X0292Y03821*
X02923Y03816*
X03076Y03663*
X03081Y0366*
X03086Y03659*
X0357*
X03576Y0366*
X0358Y03663*
X03642Y03725*
X03647Y03723*
Y03673*
X03648Y03667*
X03651Y03663*
X03656Y0366*
X03661Y03659*
X04507*
X04513Y0366*
X04517Y03663*
X0452Y03667*
X04521Y03673*
Y03948*
X0452Y03954*
X04517Y03958*
X0452Y03963*
X04521Y03968*
X04521Y04149*
X0452Y04154*
X04519Y04157*
X04521Y04159*
X04524Y04163*
X04525Y04169*
Y04366*
X04524Y04371*
X04521Y04376*
X04517Y04379*
X04511Y0438*
X04186*
X04149Y04417*
X04151Y04422*
X04507Y04422*
X04513Y04424*
X04517Y04427*
X0452Y04431*
X04521Y04437*
Y05039*
X0452Y05044*
X04517Y05049*
X04513Y05052*
X04507Y05053*
X04426*
X04426Y05053*
X04421Y0506*
X04404Y05077*
X04397Y05082*
X04389Y05084*
X0402*
X03963Y0514*
X03956Y05145*
X03948Y05147*
G37*
G36*
X02415Y04893D02*
X0235D01*
Y04814*
X02415*
Y04833*
X02432*
X02472Y04793*
Y04704*
X0247Y04704*
X0246Y04699*
X02451Y04691*
X02444Y04683*
X02439Y04672*
X02435Y04662*
X02434Y0465*
X02435Y04639*
X02439Y04628*
X02444Y04618*
X02451Y04609*
X0246Y04602*
X0247Y04596*
X02481Y04593*
X02493Y04592*
X02504Y04593*
X02515Y04596*
X02525Y04602*
X02534Y04609*
X02541Y04618*
X02547Y04628*
X0255Y04639*
X02551Y0465*
X0255Y04662*
X02547Y04672*
X02541Y04683*
X02534Y04691*
X02525Y04699*
X02515Y04704*
X02514Y04704*
Y04802*
X02512Y0481*
X02508Y04816*
X02455Y04869*
X02449Y04873*
X0244Y04875*
X02415*
Y04893*
G37*
%LNpms_board_copper_signal_top-3*%
%LPD*%
G36*
X03771Y04787D02*
X03771Y04673D01*
X03759Y04661*
X03708Y04661*
X03641Y04594*
Y03744*
X0357Y03673*
X03086*
X02933Y03826*
X02933Y04149*
X02862Y0422*
X02401*
X02102Y04519*
Y04704*
X02145Y04748*
X02232*
X02275Y04704*
Y04614*
X02366Y04523*
X02515*
X02519*
X02854*
X02933Y04602*
Y04673*
X03062Y04803*
X03708*
X03755Y04803*
X03771Y04787*
G37*
G36*
X0269Y04803D02*
Y04691D01*
X02685Y0469*
X02684Y04691*
X02675Y04699*
X02665Y04704*
X02664Y04704*
Y04784*
X02686Y04805*
X0269Y04803*
G37*
G36*
X0386Y04702D02*
X03898Y04664D01*
X03896Y04659*
X03784*
X03782Y04664*
X03784Y04667*
X03785Y04673*
Y0477*
X0379Y04772*
X0386Y04702*
G37*
G36*
X04003Y05039D02*
X04507D01*
Y04437*
X04145*
X0387Y04712*
X03759Y04822*
X0305Y04822*
X02909Y04681*
Y04606*
X02846Y04543*
X02744*
X02704Y04582*
Y04822*
X02988Y05106*
X03937*
X04003Y05039*
G37*
G36*
X04181Y04366D02*
X04511D01*
Y04169*
X0407*
X03905Y04334*
X03661*
Y0459*
X03716Y04645*
X03901*
X04181Y04366*
G37*
G36*
X03893Y04311D02*
X04055Y04149D01*
X04507*
Y03968*
X04003*
X03661*
Y04311*
X03893Y04311*
G37*
G36*
X04507Y03948D02*
Y03673D01*
X03661*
Y03948*
X03984*
X04507*
G37*
G54D10*
X02618Y01259D03*
Y01332D03*
X02322Y02005D03*
Y01933D03*
X01814Y01665D03*
Y01592D03*
X00763Y01891D03*
Y01818D03*
X0183Y02045D03*
Y02118D03*
X02224Y01399D03*
Y01472D03*
X02271Y02267D03*
Y02194D03*
X02236Y02005D03*
Y01933D03*
X02145Y01472D03*
Y01399D03*
X01488Y01903D03*
Y01976D03*
X01968Y02671D03*
Y02744D03*
Y02537D03*
Y0261D03*
X01984Y04233D03*
Y0416D03*
X01905Y04234D03*
Y04161D03*
X01826Y04234D03*
Y04161D03*
X01748Y04234D03*
Y04161D03*
X01669Y04234D03*
Y04161D03*
X0159Y04234D03*
Y04161D03*
X01968Y02805D03*
Y02877D03*
Y03019D03*
Y02946D03*
X01348Y02887D03*
Y0296D03*
G54D11*
X02578Y01038D03*
Y0115D03*
G54D12*
X01484Y03087D03*
G54D13*
X01484Y03062D03*
Y03037D03*
Y03012D03*
Y02987D03*
Y02962D03*
Y02937D03*
Y02912D03*
Y02887D03*
Y02862D03*
Y02837D03*
Y02812D03*
Y02787D03*
Y02762D03*
Y02737D03*
Y02712D03*
Y02687D03*
Y02662D03*
Y02637D03*
Y02612D03*
Y02587D03*
Y02562D03*
Y02537D03*
Y02512D03*
X01877Y03087D03*
Y03062D03*
Y03037D03*
Y03012D03*
Y02987D03*
Y02962D03*
Y02937D03*
Y02912D03*
Y02887D03*
Y02862D03*
Y02837D03*
Y02812D03*
Y02787D03*
Y02762D03*
Y02737D03*
Y02712D03*
Y02687D03*
Y02662D03*
Y02637D03*
Y02612D03*
Y02587D03*
Y02562D03*
Y02537D03*
Y02512D03*
G54D14*
X01936Y01866D03*
Y01816D03*
Y01766D03*
Y01716D03*
Y01666D03*
Y01616D03*
Y01566D03*
X0215Y01866D03*
Y01816D03*
Y01766D03*
Y01716D03*
Y01666D03*
Y01616D03*
Y01566D03*
G54D15*
X0242Y01933D03*
X02493D03*
X0231Y04854D03*
X02382D03*
X01966Y01409D03*
X01893D03*
X01901Y01488D03*
X01974D03*
X01664Y01657D03*
X01737D03*
X0183Y01874D03*
X01757D03*
X0183Y01948D03*
X01757D03*
X01433Y02074D03*
X0136D03*
X02411Y01405D03*
X02338D03*
Y01484D03*
X02411D03*
X00893Y01822D03*
X00966D03*
X01423Y0159D03*
X01496D03*
X01361Y02204D03*
X01434D03*
X0241Y01716D03*
X02337D03*
X02265Y01791D03*
X02338D03*
X02421D03*
X02494D03*
X01632Y0146D03*
X01705D03*
X01511Y01464D03*
X01438D03*
X02411Y01637D03*
X02338D03*
X01496Y01696D03*
X01423D03*
X01688Y03251D03*
X01616D03*
X01815Y02438D03*
X01888D03*
X0169Y03374D03*
X01618D03*
X0169Y03496D03*
X01618D03*
X0169Y03618D03*
X01618D03*
X01269Y02726D03*
X01342D03*
X0169Y0374D03*
X01618D03*
X0169Y03862D03*
X01618D03*
X01691Y03984D03*
X01619D03*
X01826Y01767D03*
X01753D03*
X01381Y03031D03*
X01309D03*
Y0311D03*
X01381D03*
G54D16*
X02781Y0123D03*
Y01305D03*
X0269Y01267D03*
X00671Y01816D03*
Y01891D03*
X0058Y01854D03*
G54D17*
X01259Y01984D03*
Y02039D03*
X01129Y01984D03*
Y02039D03*
X02118Y02169D03*
Y02224D03*
X01553Y03338D03*
Y03283D03*
Y0346D03*
Y03405D03*
Y03582D03*
Y03527D03*
Y03704D03*
Y03649D03*
Y03826D03*
Y03771D03*
Y03948D03*
Y03893D03*
G54D18*
X01748Y02015D03*
Y02118D03*
X0157Y01874D03*
Y01976D03*
G54D19*
X00277Y01866D03*
X00389D03*
X01381Y02807D03*
X01269D03*
G54D20*
X02326Y01562D03*
X02429D03*
G54D21*
X03708Y04953D03*
Y04723D03*
X03507Y04953D03*
Y04723D03*
X03307Y04953D03*
Y04723D03*
X03106Y04955D03*
Y04725D03*
G54D22*
X0278Y02173D03*
X0255D03*
X0278Y02385D03*
X0255D03*
G54D23*
X02598Y01484D03*
Y016D03*
G54D24*
X04389Y05062D02*
X04406Y05045D01*
X04011Y05062D02*
X04389D01*
X03948Y05125D02*
X04011Y05062D01*
X04406Y04935D02*
Y05045D01*
X02177Y01173D02*
X02347Y01342D01*
X01681Y01173D02*
X02177D01*
X01607Y01248D02*
X01681Y01173D01*
X02598Y01437D02*
Y01484D01*
X02503Y01342D02*
X02598Y01437D01*
X02347Y01342D02*
X02503D01*
X02614Y01933D02*
X02673Y01874D01*
Y01716D02*
Y01874D01*
Y01716D02*
X02744Y01645D01*
X02759Y01173D02*
X02834D01*
X02736Y01196D02*
X02759Y01173D01*
X02736Y01196D02*
Y01299D01*
X02846Y01826D02*
X02913Y01759D01*
Y01251D02*
Y01759D01*
X02834Y01173D02*
X02913Y01251D01*
X02826Y01645D02*
X02877Y01594D01*
Y01287D02*
Y01594D01*
X0282Y0123D02*
X02877Y01287D01*
X02744Y01645D02*
X02826D01*
X02775Y01826D02*
X02846D01*
X02702Y01332D02*
X02736Y01299D01*
X02618Y01332D02*
X02702D01*
X02781Y0123D02*
X0282D01*
X02493Y01933D02*
X02614D01*
X02539Y01716D02*
X02602Y01779D01*
Y01881*
X02322Y02005D02*
X02577D01*
X01814Y04637D02*
X01838Y04614D01*
X01767Y04637D02*
X01814D01*
X01838Y04482D02*
Y04614D01*
X0135Y01527D02*
X01728D01*
X01055Y01822D02*
X0135Y01527D01*
X00966Y01822D02*
X01055D01*
X01334Y01464D02*
Y01496D01*
X01062Y01767D02*
X01334Y01496D01*
X00625Y01767D02*
X01062D01*
X02539Y01622D02*
Y01716D01*
X0248Y01562D02*
X02539Y01622D01*
X02429Y01562D02*
X0248D01*
X02539Y01716D02*
D01*
X0241D02*
X02539D01*
X01704D02*
X01936D01*
X01657Y01675D02*
X01675Y01657D01*
X01657Y01675D02*
Y01791D01*
X01664Y01657D02*
X01675D01*
X01618D02*
X01664D01*
X01578Y01696D02*
X01618Y01657D01*
X01366Y01641D02*
X01456D01*
X00492Y02515D02*
X01366Y01641D01*
X00492Y02515D02*
Y02842D01*
X01287Y01763D02*
X01496D01*
X00535Y02515D02*
X01287Y01763D01*
X00535Y02515D02*
Y0283D01*
X01295Y01818D02*
X01381D01*
X01129Y01984D02*
X01295Y01818D01*
X02976Y05125D02*
X03948D01*
X02643Y04792D02*
X02976Y05125D01*
X02643Y0465D02*
Y04792D01*
X01705Y01349D02*
X01807Y01248D01*
X01705Y01349D02*
Y0146D01*
X01453Y01106D02*
X01511Y01164D01*
Y01464*
X01407Y01248D02*
Y01432D01*
X02444Y01405D02*
X02472Y01433D01*
Y01437*
X02411Y01405D02*
X02444D01*
X0209Y01413D02*
X02104Y01399D01*
X02145*
X0209Y01413D02*
Y0174D01*
X02051Y01811D02*
X02105Y01865D01*
X02051Y01397D02*
Y01811D01*
X02003Y0135D02*
X02051Y01397D01*
X01975Y01866D02*
X02019Y01822D01*
Y01429D02*
Y01822D01*
X02Y01409D02*
X02019Y01429D01*
X01966Y01409D02*
X02D01*
X01803Y0135D02*
X02003D01*
X02105Y01865D02*
X02149D01*
X01936Y01866D02*
X01975D01*
X01956Y01716D02*
X01984Y01688D01*
Y01498D02*
Y01688D01*
X01974Y01488D02*
X01984Y01498D01*
X01936Y01716D02*
X01956D01*
X01901Y01545D02*
X01923Y01566D01*
X01901Y01488D02*
Y01545D01*
X01923Y01566D02*
X01936D01*
X01759Y01393D02*
X01803Y0135D01*
X01759Y01393D02*
Y01496D01*
X01728Y01527D02*
X01759Y01496D01*
X02271Y02303D02*
X02303Y02334D01*
X01496Y0159D02*
Y01602D01*
X01456Y01641D02*
X01496Y01602D01*
X00935Y03009D02*
Y03021D01*
X00929Y03003D02*
X00935Y03009D01*
X00929Y02972D02*
Y03003D01*
X0157Y01976D02*
Y02244D01*
X01385Y02429D02*
X0157Y02244D01*
X01334Y0248D02*
X01385Y02429D01*
X01228Y02204D02*
X01361D01*
X01129Y02106D02*
X01228Y02204D01*
X01295Y02074D02*
X0136D01*
X01259Y02039D02*
X01295Y02074D01*
X02066Y02118D02*
X02107Y02158D01*
X01897Y02118D02*
X02066D01*
X02107Y02158D02*
Y02162D01*
X02114Y02169*
X02118*
X00232Y03102D02*
X00492Y02842D01*
X00535Y0283D02*
X00795Y0309D01*
X0058Y01812D02*
X00625Y01767D01*
X0058Y01812D02*
Y01854D01*
X00763Y01818D02*
X00767Y01822D01*
X00761Y01816D02*
X00763Y01818D01*
X00767Y01822D02*
X00893D01*
X00671Y01816D02*
X00761D01*
X01496Y01696D02*
Y01763D01*
X00232Y03102D02*
Y03393D01*
X00237Y03398*
X02153Y01933D02*
X02236D01*
X00795Y0309D02*
X00968D01*
X01043Y03165*
X01747Y02118D02*
Y02154D01*
X00929Y02972D02*
X01747Y02154D01*
X01311Y01901D02*
X01486D01*
X01259Y01952D02*
X01311Y01901D01*
X01259Y01952D02*
Y01984D01*
X01747Y02118D02*
X01748Y02118D01*
X01043Y03165D02*
Y03692D01*
X01015Y0372D02*
X01043Y03692D01*
X0037Y0372D02*
X01015D01*
X00236Y03854D02*
X0037Y0372D01*
X00236Y03854D02*
Y04535D01*
X00929Y03015D02*
X00935Y03009D01*
X02118Y02224D02*
X02188D01*
X02218Y02194*
X02271*
Y02267D02*
Y02303D01*
X01812Y0159D02*
X01814Y01592D01*
X01496Y0159D02*
X01812D01*
X01407Y01432D02*
X01438Y01464D01*
X01289Y02665D02*
X01409D01*
X01406Y01248D02*
X01407Y01248D01*
X02411Y01637D02*
X0246D01*
X01618Y032D02*
Y0325D01*
X01861Y03714D02*
X01868Y0372D01*
X01553Y0386D02*
Y03893D01*
Y03738D02*
Y03771D01*
Y03494D02*
Y03527D01*
X01864Y03816D02*
X01868Y0382D01*
X01584Y03283D02*
X01616Y03251D01*
X01553Y03283D02*
X01584D01*
X0186Y03812D02*
X01864Y03816D01*
X01872Y03909D02*
X01984Y04021D01*
X01798Y03418D02*
X01868D01*
X01794Y03517D02*
X01868D01*
X01714Y03618D02*
X01865D01*
X0186Y03712D02*
X01861Y03714D01*
X01868*
X01795D02*
X01861D01*
X0186Y03812D02*
X01868D01*
X01803D02*
X0186D01*
X01858Y03811D02*
X0186Y03812D01*
X01815Y03911D02*
X01868D01*
X01767Y05129D02*
X01996Y04901D01*
Y04245D02*
Y04901D01*
X01984Y04233D02*
X01996Y04245D01*
X01767Y05031D02*
X01964Y04834D01*
Y04293D02*
Y04834D01*
X01905Y04234D02*
X01964Y04293D01*
X01767Y04933D02*
X01933Y04767D01*
Y0434D02*
Y04767D01*
X01826Y04234D02*
X01933Y0434D01*
X01767Y04834D02*
X01901Y047D01*
Y04387D02*
Y047D01*
X01748Y04234D02*
X01901Y04387D01*
X01767Y04736D02*
X0187Y04633D01*
Y04435D02*
Y04633D01*
X01669Y04234D02*
X0187Y04435D01*
X0159Y04234D02*
X01838Y04482D01*
X01767Y05129D02*
Y05139D01*
X01984Y04021D02*
Y0416D01*
X01742Y03984D02*
X01815Y03911D01*
X01715Y03984D02*
X01742D01*
X01753Y03862D02*
X01803Y03812D01*
X01769Y0374D02*
X01795Y03714D01*
X01269Y02685D02*
X01289Y02665D01*
X01681Y02011D02*
X01744D01*
X01748Y02015*
X01129Y02039D02*
Y02106D01*
X01259Y02039D02*
D01*
X01622Y0207D02*
X01755D01*
X01781Y02045*
X0183*
X02322Y01933D02*
X0242D01*
X01486Y01901D02*
X01488Y01903D01*
X02392Y04847D02*
Y04854D01*
Y04847D02*
X02399Y04854D01*
X0244*
X02248D02*
X0231D01*
X02193Y04799D02*
X02248Y04854D01*
X02193Y0465D02*
Y04799D01*
X02493Y0465D02*
Y04802D01*
X0244Y04854D02*
X02493Y04802D01*
Y0265D02*
X02677Y02466D01*
Y02007D02*
Y02466D01*
X01905Y04114D02*
Y04161D01*
X0159Y04114D02*
Y04161D01*
X01669Y04114D02*
Y04161D01*
X01748Y04114D02*
Y04161D01*
X01826Y04114D02*
Y04161D01*
X01269Y02685D02*
Y02726D01*
X01554Y03861D02*
X01555Y03862D01*
X01553Y0386D02*
X01554Y03861D01*
Y03739D02*
X01555Y0374D01*
X01553Y03738D02*
X01554Y03739D01*
Y03495D02*
X01555Y03496D01*
X01553Y03494D02*
X01554Y03495D01*
X01604Y0327D02*
X01616Y03258D01*
X01753Y03374D02*
X01798Y03418D01*
X01714Y03374D02*
X01753D01*
X01773Y03496D02*
X01794Y03517D01*
X01714Y03496D02*
X01773D01*
X01865Y03618D02*
X01868Y03615D01*
X01714Y0374D02*
X01769D01*
X01714Y03862D02*
X01753D01*
X01619Y03977D02*
Y03984D01*
X01607Y03965D02*
X01619Y03977D01*
X01553Y03826D02*
Y0386D01*
X01555Y03862D02*
X01618D01*
X01553Y03704D02*
Y03738D01*
X01555Y0374D02*
X01618D01*
X01553Y03616D02*
Y03649D01*
Y03582D02*
Y03616D01*
X01555Y03618*
X01618*
X01553Y0346D02*
Y03494D01*
X01555Y03496D02*
X01618D01*
X01553Y03372D02*
Y03405D01*
Y03338D02*
Y03372D01*
X01555Y03374*
X01618*
Y03367D02*
Y03374D01*
X01606Y03355D02*
X01618Y03367D01*
X01553Y03338D02*
X01553Y03339D01*
X01578Y01696D02*
Y01771D01*
X01488Y01862D02*
X01578Y01771D01*
X01488Y01862D02*
Y01903D01*
X01688Y01822D02*
X01786D01*
X01657Y01791D02*
X01688Y01822D01*
X02334Y01716D02*
X02338Y01712D01*
X02337Y0179D02*
X02338Y01791D01*
X02337Y01716D02*
Y0179D01*
X02149Y01865D02*
X0215Y01866D01*
X02236Y02005D02*
X02322D01*
X02411Y01484D02*
X02598D01*
X02322Y01933D02*
X02324Y01931D01*
X02322Y01893D02*
Y01933D01*
X0227Y01841D02*
X02322Y01893D01*
X0227Y01796D02*
Y01841D01*
X02265Y01791D02*
X0227Y01796D01*
X02153Y01869D02*
Y01933D01*
X0215Y01866D02*
X02153Y01869D01*
X02257Y01799D02*
X02265Y01791D01*
X02221Y01799D02*
X02257D01*
X02203Y01816D02*
X02221Y01799D01*
X0215Y01816D02*
X02203D01*
X0183Y01948D02*
X01901D01*
X01937Y01913*
X01748Y02118D02*
X0183D01*
X01488Y01976D02*
X0157D01*
Y01874D02*
X01757D01*
X0183Y01948D02*
Y02045D01*
X01757Y01874D02*
Y01948D01*
X01748Y02013D02*
X01757Y02003D01*
X01748Y02013D02*
Y02015D01*
X01757Y01948D02*
Y02003D01*
X0222Y01934D02*
X0222Y01934D01*
X02338Y01791D02*
X02421D01*
X02337Y01716D02*
X02338Y01717D01*
X0215Y01716D02*
X02334D01*
X0215Y01666D02*
X02246D01*
X02275Y01637*
X02338*
X02326Y01625D02*
X02338Y01637D01*
X02326Y01562D02*
Y01625D01*
X02255Y01531D02*
X02303Y01484D01*
X02338*
X02255Y01531D02*
Y01574D01*
X02214Y01616D02*
X02255Y01574D01*
X0215Y01616D02*
X02214D01*
X02338Y01405D02*
Y01484D01*
X02145Y01472D02*
X02224D01*
X0215Y01566D02*
X0215D01*
X02145Y01561D02*
X0215Y01566D01*
X02145Y01472D02*
Y01561D01*
X01786Y01822D02*
X0183Y01867D01*
X0174Y01665D02*
X01814D01*
X01934D02*
X01936Y01666D01*
X01814Y01665D02*
X01934D01*
X01814Y01592D02*
X01864D01*
X01888Y01616*
X01936*
X01901Y01409D02*
Y01488D01*
X01936Y01566D02*
X01937Y01565D01*
Y01867D02*
Y01913D01*
X01888Y01816D02*
X01936D01*
X01846Y01858D02*
X01888Y01816D01*
X01839Y01858D02*
X01846D01*
G54D25*
X02838Y01356D02*
Y01468D01*
X02787Y01305D02*
X02838Y01356D01*
X02775Y01531D02*
X02838Y01468D01*
X02781Y01305D02*
X02787D01*
X02578Y01038D02*
X02632D01*
X0269Y01096*
X01653Y02307D02*
X02137D01*
X01484Y02476D02*
X01653Y02307D01*
X01484Y02476D02*
Y02512D01*
X00248Y01724D02*
X00389Y01866D01*
X00098Y01724D02*
X00248D01*
X00472Y01866D02*
X00484Y01854D01*
X0058*
X00389Y01866D02*
X00472D01*
X00141Y01803D02*
X00204Y01866D01*
X00277*
X00098Y01803D02*
X00141D01*
X0269Y01096D02*
Y01267D01*
X01877Y01767D02*
X01917D01*
X01826D02*
X01877D01*
X01918Y01766D02*
X01936D01*
X01917Y01767D02*
X01918Y01766D01*
X02494Y01791D02*
X02543D01*
X01936Y01866D02*
X01937Y01867D01*
X01924Y01866D02*
X01936D01*
X0183Y01867D02*
X01839Y01858D01*
X0183Y01867D02*
Y01874D01*
G54D26*
X02515Y01259D02*
X02618D01*
X02503Y01248D02*
X02515Y01259D01*
X02618Y01204D02*
Y01259D01*
X02578Y01165D02*
X02618Y01204D01*
X02578Y0115D02*
Y01165D01*
X02543Y00953D02*
X02577Y00986D01*
Y01036*
X02578Y01038*
X02407Y00953D02*
X02543D01*
X01433Y02074D02*
Y02283D01*
X01318Y02397D02*
X01433Y02283D01*
X01106Y02397D02*
X01318D01*
X01473Y02029D02*
X01531D01*
X01433Y02069D02*
X01473Y02029D01*
X01433Y02069D02*
Y02074D01*
X00748Y02755D02*
X01106Y02397D01*
X00192Y03673D02*
X00984D01*
X00985Y03674*
X00039Y03826D02*
X00192Y03673D01*
X00039Y05405D02*
Y03826D01*
X00748Y02653D02*
X00759Y02665D01*
X00039Y05405D02*
X00106Y05472D01*
X01607Y00953D02*
X01744Y0109D01*
X02407Y01248D02*
X02503D01*
X02249Y0109D02*
X02407Y01248D01*
X01744Y0109D02*
X02249D01*
G54D27*
X01453Y01106D02*
X01607Y00953D01*
X01358Y01106D02*
X01453D01*
X01271Y01192D02*
X01358Y01106D01*
X01134Y01437D02*
X01271Y01299D01*
Y01192D02*
Y01299D01*
G54D28*
X01608Y03988D02*
X01619Y03977D01*
X01553Y02822D02*
X01584D01*
X01616Y03251D02*
X01618Y0325D01*
X01815Y02542D02*
X01836Y02562D01*
X01815Y02438D02*
Y02542D01*
X01836Y02562D02*
X01877D01*
X01888Y02438D02*
X01984D01*
X02015Y0247*
Y026*
X02005Y0261D02*
X02015Y026D01*
X01968Y0261D02*
X02005D01*
X01877Y02537D02*
X01968D01*
Y0261D02*
Y02671D01*
X01926Y02687D02*
X01933Y0268D01*
X01959*
X01968Y02671*
X01877Y02687D02*
X01926D01*
X01877Y02762D02*
X01926D01*
X01933Y02755*
X01957*
X01968Y02744*
X01959Y02887D02*
X01968Y02877D01*
X01877Y02887D02*
X01959D01*
Y02937D02*
X01968Y02946D01*
X01877Y02937D02*
X01959D01*
X01553Y03988D02*
X01608D01*
X01553Y03948D02*
Y03988D01*
X01523Y02612D02*
X01562Y02573D01*
X01583*
X01584Y02572*
X01484Y02612D02*
X01523D01*
X01537Y02637D02*
X01561Y02614D01*
X01584*
X01484Y02637D02*
X01537D01*
X01545Y02657D02*
X01584D01*
X0154Y02662D02*
X01545Y02657D01*
X01484Y02662D02*
X0154D01*
X01537Y02687D02*
X01549Y02698D01*
X01584*
X01484Y02687D02*
X01537D01*
X01531Y02712D02*
X01559Y0274D01*
X01584*
X01484Y02712D02*
X01531D01*
X01522Y02737D02*
X01564Y02778D01*
X01581*
X01584Y02781*
X01484Y02737D02*
X01522D01*
X01484Y02812D02*
X01542D01*
X01553Y02822*
X01484Y02837D02*
Y02862D01*
Y02812D02*
Y02837D01*
Y02787D02*
Y02812D01*
Y02762D02*
Y02787D01*
X01397Y03087D02*
X01484D01*
X01381Y03103D02*
X01397Y03087D01*
X01381Y03103D02*
Y0311D01*
Y03026D02*
Y03031D01*
Y03026D02*
X01395Y03012D01*
X01484*
X01444Y02962D02*
X01484D01*
X01383Y02901D02*
X01444Y02962D01*
X01362Y02901D02*
X01383D01*
X01348Y02887D02*
X01362Y02901D01*
X01348Y0296D02*
X01401D01*
X01428Y02987*
X01484*
X01269Y02807D02*
Y02807D01*
Y02726D02*
Y02807D01*
X01363Y02747D02*
X01381Y02765D01*
X01356Y02747D02*
X01363D01*
X01342Y02733D02*
X01356Y02747D01*
X01342Y02726D02*
Y02733D01*
X01381Y02765D02*
Y02807D01*
X01432Y02887D02*
X01484D01*
X0139Y02845D02*
X01432Y02887D01*
X0139Y02816D02*
Y02845D01*
X01381Y02807D02*
X0139Y02816D01*
G54D29*
X01484Y02562D02*
Y02587D01*
Y02537D02*
Y02562D01*
Y02512D02*
Y02537D01*
G54D30*
X04406Y04735D03*
Y04935D03*
X04409Y04058D03*
Y04258D03*
G54D31*
X04406Y04535D03*
X04409Y03858D03*
G54D32*
X02775Y01748D03*
X02775Y01452D03*
X00106Y05472D03*
Y05551D03*
X00098Y01724D03*
G54D33*
X02775Y01826D03*
Y01531D03*
X00106Y05629D03*
X00098Y01803D03*
G54D34*
X03232Y04428D03*
Y04562D03*
X03762Y04428D03*
Y04562D03*
X03232Y04084D03*
Y04218D03*
X03762Y04084D03*
Y04218D03*
X03232Y03738D03*
Y03872D03*
X03762Y03738D03*
Y03872D03*
X0374Y0124D03*
Y01106D03*
X0321Y0124D03*
Y01106D03*
X0374Y01621D03*
Y01487D03*
X0321Y01621D03*
Y01487D03*
X0374Y02383D03*
Y02249D03*
X0321Y02383D03*
Y02249D03*
X0374Y02765D03*
Y02631D03*
X0321Y02765D03*
Y02631D03*
X0374Y03146D03*
Y03012D03*
X0321Y03146D03*
Y03012D03*
Y03393D03*
Y03527D03*
X0374Y03393D03*
Y03527D03*
X0321Y01868D03*
Y02002D03*
X0374Y01868D03*
Y02002D03*
G54D35*
X04263Y03475D03*
G54D36*
X04263Y031D03*
Y02725D03*
Y0235D03*
Y01224D03*
Y01599D03*
Y01974D03*
G54D37*
X01407Y01248D03*
X01807D03*
X01607D03*
X01407Y00953D03*
X01807D03*
X01607D03*
X02407Y01248D03*
Y00953D03*
G54D38*
X02343Y0465D03*
X02643D03*
X02493D03*
Y0265D03*
G54D39*
X02193Y0465D03*
X02793D03*
G54D40*
X02793Y0265D03*
X02193D03*
G54D41*
X01566Y05952D03*
Y05552D03*
G54D42*
X02777Y02007D03*
X02677D03*
G54D43*
X02577Y02007D03*
G54D44*
X04519Y05275D03*
X04322D03*
X04125D03*
Y05551D03*
X04322D03*
X04519D03*
X04232Y05716D03*
X04035D03*
X03838D03*
Y05992D03*
X04035D03*
X04232D03*
X04Y05275D03*
X03803D03*
X03606D03*
Y05551D03*
X03803D03*
X04D03*
X03712Y05716D03*
X03515D03*
X03318D03*
Y05992D03*
X03515D03*
X03712D03*
X0348Y05275D03*
X03283D03*
X03086D03*
Y05551D03*
X03283D03*
X0348D03*
X03192Y05716D03*
X02996D03*
X02799D03*
Y05992D03*
X02996D03*
X03192D03*
X0296Y05275D03*
X02763D03*
X02566D03*
Y05551D03*
X02763D03*
X0296D03*
X02673Y05716D03*
X02476D03*
X02279D03*
Y05992D03*
X02476D03*
X02673D03*
X0244Y05275D03*
X02244D03*
X02047D03*
Y05551D03*
X02244D03*
X0244D03*
X02153Y05716D03*
X01956D03*
X01759D03*
Y05992D03*
X01956D03*
X02153D03*
G54D45*
X00749Y03898D03*
X00237Y03398D03*
X00748Y05035D03*
X00236Y04535D03*
X01134Y01437D03*
X00622Y00937D03*
X00748Y02755D03*
X00236Y02255D03*
G54D46*
X01767Y04736D03*
Y04637D03*
Y04834D03*
Y04933D03*
Y05031D03*
Y05129D03*
X01868Y03517D03*
Y03418D03*
Y03615D03*
Y03714D03*
Y03812D03*
Y03911D03*
G54D47*
X01767Y04539D03*
X01868Y0332D03*
G54D48*
X04484Y05905D03*
Y00787D03*
X00196D03*
Y05905D03*
G54D49*
X02602Y01881D03*
X01334Y01464D03*
X00161Y01562D03*
X02472Y01437D03*
X01334Y0248D03*
X01897Y02118D03*
X01531Y02029D03*
X01496Y01763D03*
X01704Y01716D03*
X01381Y01818D03*
X02137Y02307D03*
X00985Y03674D03*
X00842Y04539D03*
X00763D03*
X00685D03*
X00842Y04381D03*
X00763D03*
X00685D03*
Y04618D03*
X00842D03*
X00527Y04539D03*
X00606D03*
Y04381D03*
X00527Y04303D03*
Y04618D03*
X00763Y0446D03*
X00842Y04303D03*
X00763D03*
X00606Y04618D03*
Y0446D03*
X00527Y04381D03*
X00606Y04303D03*
X00685D03*
X00842Y0446D03*
X00527D03*
X00763Y04618D03*
X00685Y0446D03*
X00889Y03295D03*
X00732Y03216D03*
Y03295D03*
X00574Y03216D03*
Y03295D03*
X00653D03*
Y03216D03*
X00889D03*
X00811D03*
Y03295D03*
X00929Y03015D03*
X02866Y02145D03*
Y02413D03*
Y02358D03*
X02078Y01952D03*
X01377Y0159D03*
X02866Y022D03*
X01681Y02011D03*
X00889Y03531D03*
Y03452D03*
Y03374D03*
X00574D03*
X00653D03*
X00732D03*
X00811D03*
X00732Y03452D03*
X00811D03*
X00732Y03531D03*
X00811D03*
X00574Y03452D03*
X00653D03*
Y03531D03*
X00574D03*
X01622Y0207D03*
X03429Y05062D03*
X03507D03*
X03665D03*
X03586D03*
X03271D03*
X0335D03*
X03192D03*
X03114D03*
X01377Y01696D03*
X02543Y01791D03*
X01586Y0146D03*
X02598Y01649D03*
X02153Y01933D03*
X0209Y0174D03*
X02279Y0137D03*
X0246Y01637D03*
X02208Y01759D03*
X01704Y01767D03*
X01877D03*
G54D50*
X01409Y02665D03*
X01618Y032D03*
X01584Y02822D03*
X01905Y04114D03*
X01826D03*
X01748D03*
X01669D03*
X0159D03*
X01553Y03372D03*
X01554Y03495D03*
X01553Y03616D03*
X01554Y03739D03*
Y03861D03*
X01553Y03988D03*
X01584Y0274D03*
Y02781D03*
Y02698D03*
Y02657D03*
Y02614D03*
Y02572D03*
M02*