%FSTAX23Y23*%
%MOIN*%
%SFA1B1*%

%IPPOS*%
%ADD10R,0.051181X0.037402*%
%ADD11R,0.043307X0.053150*%
%ADD12R,0.059055X0.011811*%
%ADD13O,0.059055X0.011811*%
%ADD14O,0.057087X0.023622*%
%ADD15R,0.037402X0.051181*%
%ADD16R,0.035433X0.023622*%
%ADD17R,0.035433X0.027559*%
%ADD18R,0.017716X0.021654*%
%ADD19R,0.053150X0.043307*%
%ADD20R,0.021654X0.017716*%
%ADD21R,0.098425X0.125000*%
%ADD22R,0.125000X0.098425*%
%ADD23R,0.066929X0.041339*%
%LNpms_board_paste_top-1*%
%LPD*%
G54D10*
X02618Y01259D03*
Y01332D03*
X02322Y02005D03*
Y01933D03*
X01814Y01665D03*
Y01592D03*
X00763Y01891D03*
Y01818D03*
X0183Y02045D03*
Y02118D03*
X02224Y01399D03*
Y01472D03*
X02271Y02267D03*
Y02194D03*
X02236Y02005D03*
Y01933D03*
X02145Y01472D03*
Y01399D03*
X01488Y01903D03*
Y01976D03*
X01968Y02671D03*
Y02744D03*
Y02537D03*
Y0261D03*
X01984Y04233D03*
Y0416D03*
X01905Y04234D03*
Y04161D03*
X01826Y04234D03*
Y04161D03*
X01748Y04234D03*
Y04161D03*
X01669Y04234D03*
Y04161D03*
X0159Y04234D03*
Y04161D03*
X01968Y02805D03*
Y02877D03*
Y03019D03*
Y02946D03*
X01348Y02887D03*
Y0296D03*
G54D11*
X02578Y01038D03*
Y0115D03*
G54D12*
X01484Y03087D03*
G54D13*
X01484Y03062D03*
Y03037D03*
Y03012D03*
Y02987D03*
Y02962D03*
Y02937D03*
Y02912D03*
Y02887D03*
Y02862D03*
Y02837D03*
Y02812D03*
Y02787D03*
Y02762D03*
Y02737D03*
Y02712D03*
Y02687D03*
Y02662D03*
Y02637D03*
Y02612D03*
Y02587D03*
Y02562D03*
Y02537D03*
Y02512D03*
X01877Y03087D03*
Y03062D03*
Y03037D03*
Y03012D03*
Y02987D03*
Y02962D03*
Y02937D03*
Y02912D03*
Y02887D03*
Y02862D03*
Y02837D03*
Y02812D03*
Y02787D03*
Y02762D03*
Y02737D03*
Y02712D03*
Y02687D03*
Y02662D03*
Y02637D03*
Y02612D03*
Y02587D03*
Y02562D03*
Y02537D03*
Y02512D03*
G54D14*
X01936Y01866D03*
Y01816D03*
Y01766D03*
Y01716D03*
Y01666D03*
Y01616D03*
Y01566D03*
X0215Y01866D03*
Y01816D03*
Y01766D03*
Y01716D03*
Y01666D03*
Y01616D03*
Y01566D03*
G54D15*
X0242Y01933D03*
X02493D03*
X0231Y04854D03*
X02382D03*
X01966Y01409D03*
X01893D03*
X01901Y01488D03*
X01974D03*
X01664Y01657D03*
X01737D03*
X0183Y01874D03*
X01757D03*
X0183Y01948D03*
X01757D03*
X01433Y02074D03*
X0136D03*
X02411Y01405D03*
X02338D03*
Y01484D03*
X02411D03*
X00893Y01822D03*
X00966D03*
X01423Y0159D03*
X01496D03*
X01361Y02204D03*
X01434D03*
X0241Y01716D03*
X02337D03*
X02265Y01791D03*
X02338D03*
X02421D03*
X02494D03*
X01632Y0146D03*
X01705D03*
X01511Y01464D03*
X01438D03*
X02411Y01637D03*
X02338D03*
X01496Y01696D03*
X01423D03*
X01688Y03251D03*
X01616D03*
X01815Y02438D03*
X01888D03*
X0169Y03374D03*
X01618D03*
X0169Y03496D03*
X01618D03*
X0169Y03618D03*
X01618D03*
X01269Y02726D03*
X01342D03*
X0169Y0374D03*
X01618D03*
X0169Y03862D03*
X01618D03*
X01691Y03984D03*
X01619D03*
X01826Y01767D03*
X01753D03*
X01381Y03031D03*
X01309D03*
Y0311D03*
X01381D03*
G54D16*
X02781Y0123D03*
Y01305D03*
X0269Y01267D03*
X00671Y01816D03*
Y01891D03*
X0058Y01854D03*
G54D17*
X01259Y01984D03*
Y02039D03*
X01129Y01984D03*
Y02039D03*
X02118Y02169D03*
Y02224D03*
X01553Y03338D03*
Y03283D03*
Y0346D03*
Y03405D03*
Y03582D03*
Y03527D03*
Y03704D03*
Y03649D03*
Y03826D03*
Y03771D03*
Y03948D03*
Y03893D03*
G54D18*
X01748Y02015D03*
Y02118D03*
X0157Y01874D03*
Y01976D03*
G54D19*
X00277Y01866D03*
X00389D03*
X01381Y02807D03*
X01269D03*
G54D20*
X02326Y01562D03*
X02429D03*
G54D21*
X03708Y04953D03*
Y04723D03*
X03507Y04953D03*
Y04723D03*
X03307Y04953D03*
Y04723D03*
X03106Y04955D03*
Y04725D03*
G54D22*
X0278Y02173D03*
X0255D03*
X0278Y02385D03*
X0255D03*
G54D23*
X02598Y01484D03*
Y016D03*
M02*