%FSTAX23Y23*%
%MOIN*%
%SFA1B1*%

%IPPOS*%
%ADD23R,0.066929X0.041339*%
%ADD24C,0.013780*%
%ADD25C,0.019685*%
%ADD26C,0.039370*%
%ADD27C,0.059055*%
%ADD28C,0.009842*%
%ADD30C,0.100000*%
%ADD31R,0.100000X0.100000*%
%ADD32C,0.050000*%
%ADD33R,0.050000X0.050000*%
%ADD34O,0.130000X0.100000*%
%ADD35R,0.129921X0.086614*%
%ADD36O,0.129921X0.086614*%
%ADD37C,0.094488*%
%ADD38C,0.088583*%
%ADD39C,0.137795*%
%ADD40C,0.098425*%
%ADD41O,0.157480X0.108268*%
%ADD42C,0.060000*%
%ADD43R,0.060000X0.060000*%
%ADD44O,0.118110X0.167323*%
%ADD45C,0.300000*%
%ADD46C,0.068898*%
%ADD47R,0.068898X0.068898*%
%ADD48C,0.275591*%
%ADD49C,0.039370*%
%ADD50C,0.031496*%
%ADD51R,0.031496X0.181102*%
%ADD52R,0.425197X0.370079*%
%ADD53R,0.181102X0.031496*%
%ADD54R,0.370079X0.425197*%
%ADD55C,0.049213*%
%LNpms_board_copper_signal_bot-1*%
%LPD*%
G36*
X00903Y04244D02*
X0001D01*
Y04838*
X00903*
Y04244*
G37*
G36*
X01883Y04134D02*
X01879Y04129D01*
X01876Y04121*
X01875Y04114*
X01876Y04106*
X01879Y04099*
X01884Y04093*
X0189Y04088*
X01897Y04085*
X01905Y04084*
X01951Y04038*
Y03922*
X01915Y03886*
X01911Y03889*
X01915Y03898*
X01916Y03911*
X01915Y03923*
X0191Y03935*
X01902Y03945*
X01892Y03953*
X0188Y03958*
X01879Y03958*
Y04*
X01878Y04008*
X01873Y04015*
X01866Y04019*
X01858Y04021*
X01794Y04085*
X01787Y0409*
X01779Y04091*
X01774*
X01772Y04096*
X01773Y04099*
X01776Y04106*
X01777Y04114*
X01801Y04137*
X01804Y04134*
X018Y04129*
X01798Y04121*
X01796Y04114*
X01798Y04106*
X018Y04099*
X01805Y04093*
X01811Y04088*
X01819Y04085*
X01826Y04084*
X01834Y04085*
X01841Y04088*
X01847Y04093*
X01852Y04099*
X01855Y04106*
X01856Y04114*
X01879Y04137*
X01883Y04134*
G37*
G36*
X02006Y03812D02*
Y03784D01*
X01918Y03696*
X01913Y03698*
X01915Y03701*
X01916Y03714*
X01915Y03726*
X01914Y03727*
X02001Y03814*
X02006Y03812*
G37*
G36*
X02037Y03749D02*
Y03713D01*
X01915Y0359*
X01911Y03593*
X01915Y03603*
X01916Y03615*
X01915Y03628*
X01913Y03631*
X02033Y03751*
X02037Y03749*
G37*
G36*
X02069Y03678D02*
Y0365D01*
X01918Y03499*
X01913Y03502*
X01915Y03504*
X01916Y03517*
X01915Y03529*
X01914Y0353*
X02064Y0368*
X02069Y03678*
G37*
G36*
X0452Y06088D02*
X04544Y06082D01*
X04566Y06073*
X04588Y06061*
X04607Y06046*
X04624Y06028*
X04639Y06009*
X04652Y05988*
X04661Y05965*
X04667Y05942*
X0467Y05917*
Y05905*
X0467Y00787*
Y00787*
X0467Y00775*
X04667Y0075*
X04661Y00727*
X04652Y00704*
X04639Y00683*
X04624Y00664*
X04607Y00646*
X04588Y00631*
X04566Y00619*
X04544Y0061*
X0452Y00603*
X04496Y006*
X03529*
Y00979*
X0353Y00979*
X03534Y00981*
X03537Y00979*
X03543Y00978*
X04574*
X0458Y00979*
X04584Y00982*
X04587Y00986*
X04588Y00992*
Y01374*
X04587Y01379*
X04584Y01383*
X04587Y01388*
X04588Y01393*
Y01748*
X04587Y01753*
X04586Y01756*
X04588Y01757*
X04591Y01762*
X04592Y01767*
Y02125*
X04591Y02131*
X04588Y02135*
X04586Y02137*
X04587Y0214*
X04588Y02145*
Y025*
X04587Y02505*
X04584Y02509*
X04587Y02514*
X04588Y02519*
Y02874*
X04587Y02879*
X04584Y02883*
X04587Y02888*
X04588Y02893*
Y03248*
X04587Y03253*
X04584Y03257*
X04587Y03262*
X04588Y03267*
Y03606*
X04587Y03611*
X04584Y03616*
X0458Y03619*
X04574Y0362*
X03543*
X03537Y03619*
X03533Y03616*
X03532Y03614*
X03526*
X03525Y03616*
X03521Y03619*
X03515Y0362*
X02972*
X02967Y03619*
X02962Y03616*
X02931Y03584*
X02927Y0358*
X02926Y03574*
Y0123*
X02839Y01143*
X02795Y01187*
X02786Y01194*
X02776Y01198*
X02764Y012*
X02452*
X02451Y01201*
X0245Y01205*
X02458Y01213*
X02463Y01224*
X02467Y01236*
X02468Y01248*
X02467Y01259*
X02463Y01271*
X02458Y01282*
X0245Y01291*
X02441Y01299*
X0243Y01304*
X02419Y01308*
X02407Y01309*
X02395Y01308*
X02383Y01304*
X02373Y01299*
X02363Y01291*
X02356Y01282*
X0235Y01271*
X02346Y01259*
X02345Y01248*
X02346Y01236*
X0235Y01224*
X02356Y01213*
X02363Y01205*
X02362Y01201*
X02362Y012*
X01852*
X01851Y01201*
X0185Y01205*
X01858Y01213*
X01863Y01224*
X01867Y01236*
X01868Y01248*
X01867Y01259*
X01863Y01271*
X01858Y01282*
X0185Y01291*
X01841Y01299*
X0183Y01304*
X01819Y01308*
X01807Y01309*
X01795Y01308*
X01783Y01304*
X01773Y01299*
X01763Y01291*
X01756Y01282*
X0175Y01271*
X01746Y01259*
X01745Y01248*
X01746Y01236*
X0175Y01224*
X01756Y01213*
X01763Y01205*
X01762Y01201*
X01762Y012*
X01652*
X01651Y01201*
X0165Y01205*
X01658Y01213*
X01663Y01224*
X01667Y01236*
X01668Y01248*
X01667Y01259*
X01663Y01271*
X01658Y01282*
X0165Y01291*
X01641Y01299*
X0163Y01304*
X01619Y01308*
X01607Y01309*
X01595Y01308*
X01583Y01304*
X01573Y01299*
X01563Y01291*
X01556Y01282*
X0155Y01271*
X01546Y01259*
X01545Y01248*
X01546Y01236*
X0155Y01224*
X01556Y01213*
X01563Y01205*
X01562Y01201*
X01562Y012*
X01452*
X01451Y01201*
X0145Y01205*
X01458Y01213*
X01463Y01224*
X01467Y01236*
X01468Y01248*
X01467Y01259*
X01463Y01271*
X01458Y01282*
X0145Y01291*
X01441Y01299*
X0143Y01304*
X01419Y01308*
X01407Y01309*
X01395Y01308*
X01383Y01304*
X01373Y01299*
X01363Y01291*
X01356Y01282*
X0135Y01271*
X01346Y01259*
X01345Y01248*
X01346Y01236*
X0135Y01224*
X01356Y01213*
X01363Y01204*
X01364Y01204*
X01363Y01199*
X01358Y01198*
X01348Y01194*
X01343Y0119*
X01322*
Y01122*
X01343*
X01348Y01118*
X01358Y01114*
X0137Y01112*
X02746*
X02778Y01081*
X02705Y01009*
X027Y01011*
Y01074*
X0268*
X02672Y01081*
X02661Y01085*
X0265Y01087*
X01373*
X01362Y01085*
X01351Y01081*
X01342Y01074*
X01322*
Y01005*
X01351*
X01351Y01005*
X01362Y01001*
X01363Y01001*
Y00995*
X01356Y00987*
X0135Y00976*
X01346Y00964*
X01345Y00953*
X01346Y00941*
X01347Y00939*
X01343Y00936*
X01317Y00962*
Y01224*
X01316Y01229*
X01313Y01234*
X01308Y01237*
X01303Y01238*
X01302*
X01301Y01239*
X01301Y01243*
X01305Y01245*
X01308Y0125*
X01309Y01255*
Y01435*
X01314Y01437*
X01317Y01435*
X01325Y01431*
X01334Y0143*
X01343Y01431*
X01351Y01435*
X01358Y0144*
X01363Y01447*
X01367Y01455*
X01368Y01464*
X01367Y01473*
X01363Y01481*
X01358Y01488*
X01355Y0149*
Y0179*
X0136Y01792*
X01365Y01789*
X01373Y01786*
X01381Y01785*
X0139Y01786*
X01398Y01789*
X01405Y01795*
X01411Y01802*
X01414Y0181*
X01415Y01818*
X01414Y01827*
X01411Y01835*
X01405Y01842*
X01402Y01844*
Y01936*
X01493Y02026*
X01498Y02024*
X01498Y0202*
X01502Y02012*
X01507Y02005*
X01514Y02*
X01522Y01996*
X01531Y01995*
X01558*
X01566Y01987*
X01573Y01982*
X01581Y01979*
X0159Y01978*
X01647*
Y01964*
X01648Y01955*
X01651Y01947*
X01657Y0194*
X01854Y01743*
X01861Y01738*
X01869Y01735*
X01877Y01733*
X01886Y01735*
X01894Y01738*
X01901Y01743*
X01903Y01746*
X02053*
X02057Y01742*
X02056Y0174*
X02057Y01731*
X02061Y01723*
X02066Y01716*
X02073Y0171*
X02081Y01707*
X0209Y01706*
X02099Y01707*
X02107Y0171*
X02114Y01716*
X02119Y01723*
X02123Y01731*
X02124Y0174*
X02123Y01748*
X02119Y01757*
X02114Y01764*
X02107Y01769*
X02099Y01772*
X0209Y01773*
X02087Y01773*
X02077Y01782*
X02071Y01787*
X02062Y01788*
X01903*
X01901Y01791*
X01719Y01973*
X01721Y01978*
X02308*
X02495Y01791*
X02436Y01732*
X02431Y01725*
X02428Y01717*
X02426Y01708*
Y01637*
X02428Y01629*
X02431Y0162*
X02436Y01613*
X02443Y01608*
X02451Y01605*
X0246Y01604*
X02469Y01605*
X02477Y01608*
X02484Y01613*
X02489Y0162*
X02493Y01629*
X02494Y01637*
Y01694*
X02567Y01767*
X02572Y01774*
X02575Y01782*
X02576Y01785*
X0258Y01786*
X02634Y01733*
X02641Y01728*
X02649Y01726*
X02742*
X02747Y0172*
X02756Y01714*
X02765Y0171*
X02775Y01708*
X02785Y0171*
X02795Y01714*
X02803Y0172*
X02809Y01728*
X02813Y01737*
X02814Y01748*
X02813Y01758*
X02809Y01767*
X02803Y01775*
X02795Y01781*
X02792Y01782*
X02793Y01787*
X02814*
Y01865*
X02736*
Y01787*
X02757*
X02758Y01782*
X02756Y01781*
X02747Y01775*
X02742Y01769*
X02658*
X02577Y0185*
X02578Y01855*
X0258Y01856*
X02585Y01852*
X02593Y01849*
X02602Y01848*
X02611Y01849*
X02619Y01852*
X02626Y01858*
X02631Y01865*
X02634Y01873*
X02636Y01881*
X02634Y0189*
X02631Y01898*
X02626Y01905*
X02619Y01911*
X02611Y01914*
X02602Y01915*
X02593Y01914*
X02585Y01911*
X02578Y01905*
X02572*
X02171Y02307*
X0217Y02315*
X02167Y02323*
X02161Y0233*
X02154Y02336*
X02146Y02339*
X02137Y0234*
X02129Y02339*
X0212Y02336*
X02113Y0233*
X02108Y02323*
X02105Y02315*
X02104Y02307*
X02105Y02298*
X02108Y0229*
X02113Y02283*
X0212Y02277*
X02129Y02274*
X02137Y02273*
X02267Y02143*
X02265Y02139*
X01925*
X01921Y02143*
X01922Y02147*
X02317Y02541*
X0232Y02545*
X02321Y02551*
Y02681*
X0232Y02686*
X02317Y02691*
X02242Y02765*
X02237Y02768*
X02232Y02769*
X02102Y02769*
X02096Y02768*
X02092Y02765*
X01781Y02454*
X01363*
X01361Y02459*
X01363Y02463*
X01367Y02471*
X01368Y02479*
X01383Y02494*
X01388Y02502*
X0139Y02511*
Y02637*
X01395Y02639*
X01401Y02636*
X01409Y02635*
X01417Y02636*
X01424Y02639*
X0143Y02644*
X01435Y0265*
X01438Y02657*
X01439Y02665*
X01438Y02673*
X01435Y0268*
X0143Y02686*
Y027*
X01428Y02708*
X01424Y02715*
X01418Y02721*
Y03118*
X01423Y0312*
X01599Y02944*
Y02864*
X01587Y02852*
X01584Y02852*
X01576Y02851*
X01569Y02848*
X01563Y02843*
X01558Y02837*
X01555Y0283*
X01554Y02822*
X01555Y02815*
X01558Y02807*
X01563Y02802*
X01558Y02796*
X01555Y02789*
X01554Y02781*
X01555Y02773*
X01558Y02766*
X01563Y0276*
X01558Y02755*
X01555Y02747*
X01554Y0274*
X01555Y02732*
X01558Y02725*
X01563Y02719*
X01558Y02713*
X01555Y02706*
X01554Y02698*
X01555Y02691*
X01558Y02683*
X01563Y02678*
X01558Y02672*
X01555Y02665*
X01554Y02657*
X01555Y02649*
X01558Y02642*
X01563Y02636*
Y02635*
X01558Y02629*
X01555Y02621*
X01554Y02614*
X01555Y02606*
X01558Y02599*
X01563Y02593*
X01558Y02587*
X01555Y0258*
X01554Y02572*
X01555Y02565*
X01558Y02557*
X01563Y02551*
X01569Y02547*
X01576Y02544*
X01584Y02543*
X01592Y02544*
X01599Y02547*
X01605Y02551*
X01607Y02553*
X01625*
X01633Y02555*
X01639Y02559*
X01773Y02693*
X01777Y02699*
X01778Y02706*
Y03019*
X01777Y03026*
X01773Y03033*
X01637Y03169*
Y03178*
X01639Y03179*
X01643Y03185*
X01646Y03193*
X01647Y032*
X01646Y03208*
X01643Y03215*
X01639Y03221*
X01633Y03226*
X01625Y03229*
X01618Y0323*
X0161Y03229*
X01603Y03226*
X01597Y03221*
X01592Y03215*
X01589Y03208*
X01588Y032*
X01589Y03193*
X01592Y03185*
X01592Y03185*
X01588Y03182*
X01572Y03198*
Y03349*
X01574Y0335*
X01578Y03357*
X01581Y03364*
X01582Y03372*
X01581Y03379*
X01578Y03386*
X01574Y03393*
X01568Y03397*
X0156Y034*
X01553Y03401*
X01545Y034*
X01542Y03399*
X01538Y03402*
Y03452*
X01551Y03465*
X01554Y03465*
X01561Y03466*
X01569Y03469*
X01575Y03474*
X01579Y0348*
X01582Y03487*
X01583Y03495*
X01582Y03502*
X01579Y03509*
X01575Y03516*
X01569Y0352*
X01561Y03523*
X01554Y03524*
X01546Y03523*
X01539Y0352*
X01533Y03516*
X01528Y03509*
X01525Y03502*
X01524Y03495*
X01524Y03492*
X01519Y03487*
X01515Y03489*
Y03551*
X0155Y03586*
X01553Y03586*
X0156Y03587*
X01568Y0359*
X01574Y03595*
X01578Y03601*
X01581Y03608*
X01582Y03616*
X01581Y03623*
X01578Y03631*
X01574Y03637*
X01568Y03641*
X0156Y03644*
X01553Y03645*
X01545Y03644*
X01538Y03641*
X01532Y03637*
X01527Y03631*
X01524Y03623*
X01523Y03616*
X01523Y03613*
X01496Y03586*
X01491Y03587*
Y03649*
X01551Y03709*
X01554Y03709*
X01561Y0371*
X01569Y03713*
X01575Y03718*
X01579Y03724*
X01582Y03731*
X01583Y03739*
X01582Y03746*
X01579Y03754*
X01575Y0376*
X01569Y03764*
X01561Y03767*
X01554Y03768*
X01546Y03767*
X01539Y03764*
X01533Y0376*
X01528Y03754*
X01525Y03746*
X01524Y03739*
X01524Y03736*
X01472Y03684*
X01467Y03686*
Y03748*
X01551Y03831*
X01554Y03831*
X01561Y03832*
X01569Y03835*
X01575Y0384*
X01579Y03846*
X01582Y03853*
X01583Y03861*
X01582Y03868*
X01579Y03876*
X01575Y03882*
X01569Y03887*
X01561Y03889*
X01554Y03891*
X01546Y03889*
X01539Y03887*
X01533Y03882*
X01528Y03876*
X01525Y03868*
X01524Y03861*
X01524Y03858*
X01448Y03782*
X01444Y03784*
Y03852*
X0155Y03958*
X01553Y03958*
X0156Y03959*
X01568Y03962*
X01574Y03967*
X01578Y03973*
X01581Y0398*
X01582Y03988*
X01581Y03995*
X01578Y04003*
X01574Y04009*
X01568Y04013*
X0156Y04016*
X01558Y04017*
X01556Y04022*
X01583Y04049*
X0177*
X01837Y03983*
Y03948*
X01833Y03945*
X01825Y03935*
X01821Y03923*
X01819Y03911*
X01821Y03898*
X01825Y03886*
X01833Y03876*
X01843Y03868*
X01854Y03864*
X01855Y03861*
X01854Y03859*
X01843Y03854*
X01833Y03846*
X01825Y03836*
X01821Y03825*
X01819Y03812*
X01821Y038*
X01825Y03788*
X01833Y03778*
X01843Y0377*
X01854Y03765*
X01855Y03763*
X01854Y0376*
X01843Y03756*
X01833Y03748*
X01825Y03738*
X01821Y03726*
X01819Y03714*
X01821Y03701*
X01825Y03689*
X01833Y03679*
X01843Y03672*
X01854Y03667*
X01855Y03664*
X01854Y03662*
X01843Y03657*
X01833Y0365*
X01825Y0364*
X01821Y03628*
X01819Y03615*
X01821Y03603*
X01825Y03591*
X01833Y03581*
X01843Y03573*
X01854Y03569*
X01855Y03566*
X01854Y03563*
X01843Y03559*
X01833Y03551*
X01825Y03541*
X01821Y03529*
X01819Y03517*
X01821Y03504*
X01825Y03493*
X01833Y03482*
X01843Y03475*
X01854Y0347*
X01855Y03468*
X01854Y03465*
X01843Y03461*
X01833Y03453*
X01825Y03443*
X01821Y03431*
X01819Y03418*
X01821Y03406*
X01825Y03394*
X01833Y03384*
X01843Y03376*
X01851Y03373*
X0185Y03368*
X01819*
Y03272*
X01916*
Y03368*
X01886*
X01885Y03373*
X01892Y03376*
X01902Y03384*
X0191Y03394*
X01915Y03406*
X01916Y03418*
X01915Y03431*
X01913Y03435*
X02105Y03626*
X0211Y03633*
X02111Y03641*
Y04125*
X0211Y04134*
X02105Y0414*
X01971Y04274*
X01964Y04279*
X01956Y0428*
X01736*
X01728Y04279*
X01721Y04274*
X0159Y04143*
X01582Y04142*
X01575Y04139*
X01569Y04135*
X01564Y04129*
X01561Y04121*
X0156Y04114*
X01561Y04106*
X01564Y04099*
X01567Y04095*
X01567Y04092*
X01565Y04089*
X01559Y04085*
X01394Y0392*
X0139Y03922*
Y04559*
X01388Y04568*
X01383Y04576*
X01331Y04627*
X01324Y04632*
X01314Y04634*
X01149*
Y0464*
X0094*
Y0459*
X00938Y04588*
X00935Y04584*
X00934Y04578*
Y03687*
X0001*
Y0423*
X00903*
X00908Y04231*
X00913Y04234*
X00916Y04238*
X00917Y04244*
Y04838*
X00916Y04843*
X00913Y04848*
X00908Y04851*
X00903Y04852*
X0001*
Y05905*
Y05917*
X00013Y05942*
X00019Y05965*
X00029Y05988*
X00041Y06009*
X00056Y06028*
X00073Y06046*
X00092Y06061*
X00114Y06073*
X00136Y06082*
X0016Y06088*
X00184Y06092*
X04496*
X0452Y06088*
G37*
G36*
X04574Y03267D02*
X03543D01*
Y03606*
X04574*
Y03267*
G37*
G36*
X00934Y03669D02*
X00935Y03663D01*
X00938Y03659*
X00952Y03645*
Y03106*
X00911*
Y03118*
X00853*
X00851Y03119*
X00846Y0312*
X0001Y0312*
Y03673*
X00934*
Y03669*
G37*
G36*
X00958Y0299D02*
Y02919D01*
X00946Y02907*
X00916*
X00911Y02909*
Y02981*
X00916Y02984*
X0092Y02983*
X00929Y02981*
X00937Y02983*
X00946Y02986*
X00953Y02991*
X00953Y02992*
X00958Y0299*
G37*
G36*
X04574Y02893D02*
X03543D01*
Y03248*
X04574*
Y02893*
G37*
G36*
X01338Y04551D02*
X01338Y02555D01*
X01244Y0246*
X00007*
Y03106*
X00846*
Y02913*
X00866Y02893*
X00952Y02893*
X00972Y02913*
Y03645*
X00948Y03669*
Y04578*
X01311*
X01338Y04551*
G37*
G36*
X04574Y02519D02*
X03543D01*
Y02874*
X04574*
Y02519*
G37*
G36*
X02232Y02755D02*
X02307Y02681D01*
Y02551*
X01909Y02153*
X01476*
X01295Y01972*
X01295Y01255*
X00377*
Y01771*
X00007*
Y0244*
X01787Y0244*
X02102Y02755*
X02232*
G37*
G36*
X04574Y02145D02*
X03543D01*
Y025*
X04574*
Y02145*
G37*
G36*
X02317Y0205D02*
X02315Y02045D01*
X01651*
X01648Y0205*
X01651Y02053*
X01654Y02062*
X01655Y0207*
X01654Y02079*
X01651Y02087*
X01647Y02092*
X0165Y02097*
X01871*
X01873Y02094*
X0188Y02088*
X01888Y02085*
X01897Y02084*
X01906Y02085*
X01914Y02088*
X01921Y02094*
X01923Y02097*
X0227*
X02317Y0205*
G37*
G36*
X04578Y01767D02*
X03547D01*
Y02125*
X04578*
Y01767*
G37*
G36*
X04574Y01393D02*
X03543D01*
Y01748*
X04574*
Y01393*
G37*
G36*
Y00992D02*
X03543D01*
Y01374*
X04574*
Y00992*
G37*
G36*
X01562Y00994D02*
X01556Y00987D01*
X0155Y00976*
X01546Y00964*
X01545Y00953*
X01546Y00941*
X0155Y00929*
X01556Y00918*
X01563Y00909*
X01565Y00908*
X01563Y00903*
X0145*
X01449Y00908*
X0145Y00909*
X01458Y00918*
X01463Y00929*
X01467Y00941*
X01468Y00953*
X01467Y00964*
X01463Y00976*
X01458Y00987*
X01451Y00994*
X01453Y00999*
X0156*
X01562Y00994*
G37*
G36*
X01762D02*
X01756Y00987D01*
X0175Y00976*
X01746Y00964*
X01745Y00953*
X01746Y00941*
X0175Y00929*
X01756Y00918*
X01763Y00909*
X01765Y00908*
X01763Y00903*
X0165*
X01649Y00908*
X0165Y00909*
X01658Y00918*
X01663Y00929*
X01667Y00941*
X01668Y00953*
X01667Y00964*
X01663Y00976*
X01658Y00987*
X01651Y00994*
X01653Y00999*
X0176*
X01762Y00994*
G37*
G36*
X02362D02*
X02356Y00987D01*
X0235Y00976*
X02346Y00964*
X02345Y00953*
X02346Y00941*
X0235Y00929*
X02356Y00918*
X02363Y00909*
X02365Y00908*
X02363Y00903*
X0185*
X01849Y00908*
X0185Y00909*
X01858Y00918*
X01863Y00929*
X01867Y00941*
X01868Y00953*
X01867Y00964*
X01863Y00976*
X01858Y00987*
X01851Y00994*
X01853Y00999*
X0236*
X02362Y00994*
G37*
G36*
X02697Y01D02*
X026Y00903D01*
X0245*
X02449Y00908*
X0245Y00909*
X02458Y00918*
X02463Y00929*
X02467Y00941*
X02468Y00953*
X02467Y00964*
X02463Y00976*
X02458Y00987*
X02451Y00994*
X02453Y00999*
X0265*
X02661Y01001*
X02672Y01005*
X02672Y01005*
X02695*
X02697Y01*
G37*
G36*
X03515Y00598D02*
X00377D01*
Y01224*
X01303*
X01303Y00956*
X0137Y00889*
X02606*
X0294Y01224*
Y03574*
X02972Y03606*
X03515*
X03515Y00598*
G37*
G36*
X0007Y01757D02*
X00071Y01752D01*
X0007Y01752*
X00064Y01743*
X0006Y01734*
X00059Y01724*
X0006Y01714*
X00064Y01704*
X0007Y01696*
X00078Y0169*
X00088Y01686*
X00098Y01685*
X00108Y01686*
X00117Y0169*
X00126Y01696*
X00132Y01704*
X00136Y01714*
X00137Y01724*
X00136Y01734*
X00132Y01743*
X00126Y01752*
X00125Y01752*
X00126Y01757*
X00363*
Y01255*
X00364Y0125*
X00368Y01245*
X00372Y01242*
X00373Y01242*
Y01237*
X00372Y01237*
X00368Y01234*
X00364Y01229*
X00363Y01224*
Y006*
X00184*
X0016Y00603*
X00136Y0061*
X00114Y00619*
X00092Y00631*
X00073Y00646*
X00056Y00664*
X00041Y00683*
X00029Y00704*
X00019Y00727*
X00013Y0075*
X0001Y00775*
Y00787*
Y01757*
X0007*
G37*
%LNpms_board_copper_signal_bot-2*%
%LPC*%
G36*
X00751Y05839D02*
X00734Y05838D01*
X00718Y05833*
X00703Y05825*
X0069Y05814*
X00679Y05801*
X00671Y05786*
X00666Y05769*
X00664Y05752*
X00666Y05735*
X00671Y05719*
X00679Y05704*
X0069Y05691*
X00703Y0568*
X00718Y05672*
X00734Y05667*
X00751Y05665*
X00768Y05667*
X00785Y05672*
X008Y0568*
X00813Y05691*
X00824Y05704*
X00832Y05719*
X00837Y05735*
X00839Y05752*
X00837Y05769*
X00832Y05786*
X00824Y05801*
X00813Y05814*
X008Y05825*
X00785Y05833*
X00768Y05838*
X00751Y05839*
G37*
G36*
X00145Y05668D02*
X00067D01*
Y05591*
X00145*
Y05668*
G37*
G36*
X01591Y0562D02*
X01542D01*
X01529Y05619*
X01516Y05615*
X01504Y05609*
X01494Y05601*
X01485Y0559*
X01479Y05578*
X01475Y05566*
X01474Y05552*
X01475Y05539*
X01479Y05526*
X01485Y05514*
X01494Y05504*
X01504Y05496*
X01516Y05489*
X01529Y05485*
X01542Y05484*
X01591*
X01604Y05485*
X01617Y05489*
X01629Y05496*
X01639Y05504*
X01648Y05514*
X01654Y05526*
X01658Y05539*
X01659Y05552*
X01658Y05566*
X01654Y05578*
X01648Y0559*
X01639Y05601*
X01629Y05609*
X01617Y05615*
X01604Y05619*
X01591Y0562*
G37*
G36*
X00106Y05511D02*
X00096Y0551D01*
X00086Y05506*
X00078Y055*
X00072Y05491*
X00068Y05482*
X00067Y05472*
X00068Y05462*
X00072Y05452*
X00078Y05444*
X00086Y05438*
X00096Y05434*
X00106Y05433*
X00116Y05434*
X00125Y05438*
X00133Y05444*
X0014Y05452*
X00144Y05462*
X00145Y05472*
X00144Y05482*
X0014Y05491*
X00133Y055*
X00125Y05506*
X00116Y0551*
X00106Y05511*
G37*
G36*
X00748Y05199D02*
X00726Y05198D01*
X00705Y05193*
X00685Y05187*
X00665Y05177*
X00648Y05165*
X00631Y05151*
X00617Y05135*
X00605Y05117*
X00596Y05098*
X00589Y05077*
X00585Y05056*
X00583Y05035*
X00585Y05014*
X00589Y04992*
X00596Y04972*
X00605Y04953*
X00617Y04935*
X00631Y04919*
X00648Y04905*
X00665Y04893*
X00685Y04883*
X00705Y04876*
X00726Y04872*
X00748Y04871*
X00769Y04872*
X0079Y04876*
X0081Y04883*
X0083Y04893*
X00847Y04905*
X00864Y04919*
X00878Y04935*
X0089Y04953*
X00899Y04972*
X00906Y04992*
X0091Y05014*
X00912Y05035*
X0091Y05056*
X00906Y05077*
X00899Y05098*
X0089Y05117*
X00878Y05135*
X00864Y05151*
X00847Y05165*
X0083Y05177*
X0081Y05187*
X0079Y05193*
X00769Y05198*
X00748Y05199*
G37*
G36*
X03937Y0512D02*
X02988D01*
X02982Y05119*
X02978Y05116*
X02694Y04832*
X02691Y04828*
X0269Y04822*
Y04691*
X02685Y0469*
X02684Y04691*
X02675Y04699*
X02665Y04704*
X02654Y04707*
X02643Y04708*
X02631Y04707*
X0262Y04704*
X0261Y04699*
X02601Y04691*
X02594Y04683*
X02589Y04672*
X02585Y04662*
X02584Y0465*
X02585Y04639*
X02589Y04628*
X02594Y04618*
X02601Y04609*
X0261Y04602*
X0262Y04596*
X02631Y04593*
X02643Y04592*
X02654Y04593*
X02665Y04596*
X02675Y04602*
X02684Y04609*
X02685Y04611*
X0269Y04609*
Y04606*
X02691Y046*
X02694Y04596*
X02733Y04557*
X02732Y04552*
X02471*
X02396Y04627*
X02397Y04628*
X024Y04639*
X02401Y0465*
X024Y04662*
X02397Y04672*
X02391Y04683*
X02384Y04691*
X02375Y04699*
X02365Y04704*
X02354Y04707*
X02343Y04708*
X02331Y04707*
X0232Y04704*
X0231Y04699*
X02301Y04691*
X02294Y04683*
X02294Y04682*
X02289Y04683*
Y04704*
X02288Y0471*
X02285Y04714*
X02242Y04757*
X02237Y04761*
X02232Y04762*
X02145*
X0214Y04761*
X02135Y04757*
X02092Y04714*
X02089Y0471*
X02088Y04704*
Y04519*
X02089Y04514*
X02092Y04509*
X02391Y0421*
X02396Y04207*
X02401Y04206*
X02856*
X02919Y04143*
Y03822*
X02919Y03822*
X02919Y03821*
X02919Y03819*
X0292Y03816*
X0292Y03816*
X0292Y03816*
X02921Y03814*
X02923Y03812*
X02923Y03812*
X02923Y03812*
X0308Y03663*
X03082Y03661*
X03084Y0366*
X03084Y0366*
X03084Y0366*
X03087Y03659*
X03089Y03659*
X03358*
X03363Y0366*
X03368Y03663*
X03458Y03753*
X03461Y03758*
X03462Y03763*
Y04444*
Y0457*
X03461Y04576*
X03458Y0458*
X03407Y04631*
X03403Y04635*
X03397Y04636*
X03253*
Y04637*
X03251Y04645*
X03247Y04652*
X03245Y04654*
X03247Y04659*
X03703*
X03705Y04654*
X03651Y046*
X03648Y04595*
X03647Y0459*
Y04334*
X03648Y04329*
X03651Y04324*
Y0432*
X03648Y04316*
X03647Y04311*
X03647Y03968*
X03648Y03963*
X03651Y03958*
X03648Y03954*
X03647Y03948*
Y03673*
X03648Y03667*
X03651Y03663*
X03656Y0366*
X03661Y03659*
X04507*
X04513Y0366*
X04517Y03663*
X0452Y03667*
X04521Y03673*
Y03948*
X0452Y03954*
X04517Y03958*
X0452Y03963*
X04521Y03968*
X04521Y04149*
X0452Y04154*
X04519Y04157*
X04521Y04159*
X04524Y04163*
X04525Y04169*
Y04366*
X04524Y04371*
X04521Y04376*
X04517Y04379*
X04511Y0438*
X04186*
X04149Y04417*
X04151Y04422*
X04507*
X04513Y04424*
X04517Y04427*
X0452Y04431*
X04521Y04437*
Y05039*
X0452Y05044*
X04517Y05049*
X04513Y05052*
X04507Y05053*
X04009*
X03946Y05116*
X03942Y05119*
X03937Y0512*
G37*
G36*
X02493Y04708D02*
X02481Y04707D01*
X0247Y04704*
X0246Y04699*
X02451Y04691*
X02444Y04683*
X02439Y04672*
X02435Y04662*
X02434Y0465*
X02435Y04639*
X02439Y04628*
X02444Y04618*
X02451Y04609*
X0246Y04602*
X0247Y04596*
X02481Y04593*
X02493Y04592*
X02504Y04593*
X02515Y04596*
X02525Y04602*
X02534Y04609*
X02541Y04618*
X02547Y04628*
X0255Y04639*
X02551Y0465*
X0255Y04662*
X02547Y04672*
X02541Y04683*
X02534Y04691*
X02525Y04699*
X02515Y04704*
X02504Y04707*
X02493Y04708*
G37*
G36*
X01767Y05178D02*
X01755Y05176D01*
X01743Y05172*
X01733Y05164*
X01725Y05154*
X0172Y05142*
X01719Y05129*
X0172Y05117*
X01725Y05105*
X01733Y05095*
X01743Y05087*
X01754Y05083*
X01754Y0508*
X01754Y05078*
X01743Y05073*
X01733Y05065*
X01725Y05055*
X0172Y05044*
X01719Y05031*
X0172Y05018*
X01725Y05007*
X01733Y04997*
X01743Y04989*
X01754Y04984*
X01754Y04982*
X01754Y04979*
X01743Y04975*
X01733Y04967*
X01725Y04957*
X0172Y04945*
X01719Y04933*
X0172Y0492*
X01725Y04908*
X01733Y04898*
X01743Y0489*
X01754Y04886*
X01754Y04883*
X01754Y04881*
X01743Y04876*
X01733Y04869*
X01725Y04858*
X0172Y04847*
X01719Y04834*
X0172Y04822*
X01725Y0481*
X01733Y048*
X01743Y04792*
X01754Y04788*
X01754Y04785*
X01754Y04782*
X01743Y04778*
X01733Y0477*
X01725Y0476*
X0172Y04748*
X01719Y04736*
X0172Y04723*
X01725Y04711*
X01733Y04701*
X01743Y04694*
X01754Y04689*
X01754Y04687*
X01754Y04684*
X01743Y04679*
X01733Y04672*
X01725Y04662*
X0172Y0465*
X01719Y04637*
X0172Y04625*
X01725Y04613*
X01733Y04603*
X01743Y04595*
X0175Y04592*
X01749Y04587*
X01719*
Y04491*
X01815*
Y04587*
X01785*
X01784Y04592*
X01792Y04595*
X01802Y04603*
X01809Y04613*
X01814Y04625*
X01816Y04637*
X01814Y0465*
X01809Y04662*
X01802Y04672*
X01792Y04679*
X01781Y04684*
X0178Y04687*
X01781Y04689*
X01792Y04694*
X01802Y04701*
X01809Y04711*
X01814Y04723*
X01816Y04736*
X01814Y04748*
X01809Y0476*
X01802Y0477*
X01792Y04778*
X01781Y04782*
X0178Y04785*
X01781Y04788*
X01792Y04792*
X01802Y048*
X01809Y0481*
X01814Y04822*
X01816Y04834*
X01814Y04847*
X01809Y04858*
X01802Y04869*
X01792Y04876*
X01781Y04881*
X0178Y04883*
X01781Y04886*
X01792Y0489*
X01802Y04898*
X01809Y04908*
X01814Y0492*
X01816Y04933*
X01814Y04945*
X01809Y04957*
X01802Y04967*
X01792Y04975*
X01781Y04979*
X0178Y04982*
X01781Y04984*
X01792Y04989*
X01802Y04997*
X01809Y05007*
X01814Y05018*
X01816Y05031*
X01814Y05044*
X01809Y05055*
X01802Y05065*
X01792Y05073*
X01781Y05078*
X0178Y0508*
X01781Y05083*
X01792Y05087*
X01802Y05095*
X01809Y05105*
X01814Y05117*
X01816Y05129*
X01814Y05142*
X01809Y05154*
X01802Y05164*
X01792Y05172*
X0178Y05176*
X01767Y05178*
G37*
G36*
X00749Y04063D02*
X00728Y04061D01*
X00707Y04057*
X00686Y0405*
X00667Y04041*
X00649Y04029*
X00633Y04014*
X00619Y03998*
X00607Y03981*
X00597Y03961*
X00591Y03941*
X00586Y0392*
X00585Y03898*
X00586Y03877*
X00591Y03856*
X00597Y03836*
X00607Y03816*
X00619Y03799*
X00633Y03782*
X00649Y03768*
X00667Y03756*
X00686Y03747*
X00707Y0374*
X00728Y03736*
X00749Y03734*
X0077Y03736*
X00792Y0374*
X00812Y03747*
X00831Y03756*
X00849Y03768*
X00865Y03782*
X00879Y03799*
X00891Y03816*
X00901Y03836*
X00908Y03856*
X00912Y03877*
X00913Y03898*
X00912Y0392*
X00908Y03941*
X00901Y03961*
X00891Y03981*
X00879Y03998*
X00865Y04014*
X00849Y04029*
X00831Y04041*
X00812Y0405*
X00792Y04057*
X0077Y04061*
X00749Y04063*
G37*
G36*
X02493Y02708D02*
X02481Y02707D01*
X0247Y02704*
X0246Y02699*
X02451Y02691*
X02444Y02683*
X02439Y02672*
X02435Y02662*
X02434Y0265*
X02435Y02639*
X02439Y02628*
X02444Y02618*
X02451Y02609*
X0246Y02602*
X0247Y02596*
X02481Y02593*
X02493Y02592*
X02504Y02593*
X02515Y02596*
X02525Y02602*
X02534Y02609*
X02541Y02618*
X02547Y02628*
X0255Y02639*
X02551Y0265*
X0255Y02662*
X02547Y02672*
X02541Y02683*
X02534Y02691*
X02525Y02699*
X02515Y02704*
X02504Y02707*
X02493Y02708*
G37*
G36*
X0262Y02051D02*
X02533D01*
Y01964*
X0262*
Y02051*
G37*
G36*
X02677Y02052D02*
X02665Y0205D01*
X02655Y02046*
X02645Y02039*
X02638Y02029*
X02634Y02019*
X02633Y02007*
X02634Y01996*
X02638Y01985*
X02645Y01976*
X02655Y01969*
X02665Y01965*
X02677Y01963*
X02688Y01965*
X02699Y01969*
X02708Y01976*
X02715Y01985*
X02719Y01996*
X02721Y02007*
X02719Y02019*
X02715Y02029*
X02708Y02039*
X02699Y02046*
X02688Y0205*
X02677Y02052*
G37*
G36*
X01496Y01797D02*
X01487Y01796D01*
X01479Y01793*
X01472Y01787*
X01466Y0178*
X01463Y01772*
X01462Y01763*
X01463Y01755*
X01466Y01746*
X01472Y01739*
X01479Y01734*
X01487Y01731*
X01496Y0173*
X01499Y0173*
X01528Y01701*
X01535Y01697*
X01543Y01695*
X01678*
X0168Y01692*
X01687Y01687*
X01695Y01683*
X01704Y01682*
X01713Y01683*
X01721Y01687*
X01728Y01692*
X01733Y01699*
X01737Y01707*
X01738Y01716*
X01737Y01725*
X01733Y01733*
X01728Y0174*
X01721Y01745*
X01713Y01749*
X01704Y0175*
X01695Y01749*
X01687Y01745*
X0168Y0174*
X01678Y01737*
X01552*
X01529Y0176*
X01529Y01763*
X01528Y01772*
X01525Y0178*
X01519Y01787*
X01512Y01793*
X01504Y01796*
X01496Y01797*
G37*
G36*
X02814Y0157D02*
X02736D01*
Y01492*
X02814*
Y0157*
G37*
G36*
X02153Y01966D02*
X02144Y01965D01*
X02136Y01962*
X02129Y01956*
X02124Y01949*
X0212Y01941*
X02119Y01933*
X0212Y01924*
X02124Y01916*
X02129Y01909*
X02136Y01903*
X02144Y019*
X02153Y01899*
X02162Y019*
X0217Y01903*
X02177Y01909*
X02179Y01911*
X0229*
X02376Y01825*
Y01511*
X02378Y01503*
X02382Y01496*
X02439Y0144*
X02438Y01437*
X02439Y01428*
X02443Y0142*
X02448Y01413*
X02455Y01407*
X02463Y01404*
X02472Y01403*
X02481Y01404*
X02489Y01407*
X02496Y01413*
X02501Y0142*
X02505Y01428*
X02506Y01437*
X02505Y01445*
X02501Y01453*
X02496Y0146*
X02489Y01466*
X02481Y01469*
X02472Y0147*
X02468Y0147*
X02418Y0152*
Y01834*
X02417Y01842*
X02412Y01849*
X02314Y01947*
X02307Y01952*
X02299Y01954*
X02179*
X02177Y01956*
X0217Y01962*
X02162Y01965*
X02153Y01966*
G37*
%LNpms_board_copper_signal_bot-3*%
%LPD*%
G36*
X0232Y04596D02*
X02331Y04593D01*
X02343Y04592*
X02354Y04593*
X02365Y04596*
X02366Y04597*
X02433Y0453*
X02431Y04525*
X02383*
X02315Y04593*
X02318Y04597*
X0232Y04596*
G37*
G36*
X04003Y05039D02*
X04507D01*
Y04437*
X04145*
X04051Y04531*
X03909Y04673*
X02952*
X02838Y04559*
X02751*
X02704Y04606*
X02704Y04822*
X02988Y05106*
X03937*
X04003Y05039*
G37*
G36*
X04181Y04366D02*
X04511Y04366D01*
Y04169*
X0407*
X03905Y04334*
X03661*
Y0459*
X03716Y04645*
X03901*
X04181Y04366*
G37*
G36*
X03893Y04311D02*
X04055Y04149D01*
X04507*
Y03968*
X04003*
X03661*
Y04311*
X03893Y04311*
G37*
G36*
X02275Y04704D02*
X02275Y04614D01*
X02377Y04511*
X02862*
X02972Y04622*
X03397*
X03448Y0457*
Y04444*
Y03763*
X03358Y03673*
X03089*
X02933Y03822*
Y04149*
X02862Y0422*
X02401*
X02102Y04519*
Y04704*
X02145Y04748*
X02232Y04748*
X02275Y04704*
G37*
G36*
X04507Y03948D02*
Y03673D01*
X03661*
Y03948*
X03984*
X04507*
G37*
G54D23*
X02653Y01156D03*
Y0104D03*
X0251Y01156D03*
Y0104D03*
X02368Y01156D03*
Y0104D03*
X02225Y01156D03*
Y0104D03*
X02083Y01157D03*
Y01041D03*
X0194Y01156D03*
Y0104D03*
X01797Y01156D03*
Y0104D03*
X01655Y01156D03*
Y0104D03*
X01512Y01156D03*
Y0104D03*
X0137Y01156D03*
Y0104D03*
G54D24*
X02649Y01748D02*
X02775D01*
X02279Y02118D02*
X02649Y01748D01*
X01897Y02118D02*
X02279D01*
X03232Y04562D02*
Y04637D01*
X0322Y04649D02*
X03232Y04637D01*
X02964Y04649D02*
X0322D01*
X02846Y04531D02*
X02964Y04649D01*
X02462Y04531D02*
X02846D01*
X02343Y0465D02*
X02462Y04531D01*
X01334Y01464D02*
Y0194D01*
X0133Y01944D02*
X01334Y0194D01*
X0133Y01944D02*
X01503Y02118D01*
X02397Y01511D02*
X02472Y01437D01*
X02062Y01767D02*
X0209Y0174D01*
X01877Y01767D02*
X02062D01*
X01503Y02118D02*
X01897D01*
X01507Y0207D02*
X01622D01*
X01381Y01944D02*
X01507Y0207D01*
X01381Y01818D02*
Y01944D01*
X01543Y01716D02*
X01704D01*
X01496Y01763D02*
X01543Y01716D01*
X00882Y03013D02*
X00884Y03015D01*
X00929*
X01409Y02665D02*
Y027D01*
X02397Y01511D02*
Y01834D01*
X02299Y01933D02*
X02397Y01834D01*
X02153Y01933D02*
X02299D01*
X01858Y0392D02*
Y04D01*
X01854Y03996D02*
X01858Y04D01*
X01779Y0407D02*
X01854Y03996D01*
X01857Y0392D02*
X01858D01*
X01574Y0407D02*
X01779D01*
X01397Y03893D02*
X01574Y0407D01*
X0209Y03641D02*
Y04125D01*
X01956Y04259D02*
X0209Y04125D01*
X01736Y04259D02*
X01956D01*
X02059Y03704D02*
Y0411D01*
X01942Y04226D02*
X02059Y0411D01*
X01781Y04226D02*
X01942D01*
X02027Y03775D02*
Y04094D01*
X01927Y04194D02*
X02027Y04094D01*
X01828Y04194D02*
X01927D01*
X01868Y0372D02*
X01879D01*
X01887Y03712D02*
Y0373D01*
X01998Y0384D02*
Y04076D01*
X01911Y04163D02*
X01998Y04076D01*
X01875Y04163D02*
X01911D01*
X01397Y02712D02*
X01409Y027D01*
X01397Y02712D02*
Y03893D01*
X01879Y0382D02*
X01881D01*
X01875D02*
X01879D01*
X01868D02*
X01875D01*
X01972Y03913D02*
Y04047D01*
X01879Y0382D02*
X01972Y03913D01*
X01888Y03439D02*
X0209Y03641D01*
X0189Y03536D02*
X02059Y03704D01*
X01888Y03636D02*
X02027Y03775D01*
X01868Y03812D02*
X01875Y0382D01*
X01887Y0373D02*
X01998Y0384D01*
X01879Y0372D02*
X01887Y03712D01*
X01858Y0392D02*
X01868Y03911D01*
X01618Y02074D02*
X01622Y0207D01*
X0159Y04114D02*
X01736Y04259D01*
X01669Y04114D02*
X01781Y04226D01*
X01748Y04114D02*
X01828Y04194D01*
X01826Y04114D02*
X01875Y04163D01*
X01905Y04114D02*
X01972Y04047D01*
G54D25*
X02562Y01881D02*
X02602D01*
X01334Y0248D02*
X01366Y02511D01*
X01366Y04559*
X01314Y0461D02*
X01366Y04559D01*
X01118Y0461D02*
X01314D01*
X02137Y02307D02*
X02562Y01881D01*
G54D26*
X01572Y02029D02*
X0159Y02011D01*
X01681*
X01531Y02029D02*
X01572D01*
X02322Y02011D02*
X02543Y01791D01*
X01681Y02011D02*
X02322D01*
X01681Y01964D02*
Y02011D01*
Y01964D02*
X01877Y01767D01*
X0246Y01708D02*
X02543Y01791D01*
X0246Y01637D02*
Y01708D01*
G54D27*
X01373Y01043D02*
X01405D01*
X01407Y00953D02*
Y01042D01*
X01405Y01043D02*
X0265D01*
X02653Y01156D02*
X02764D01*
X01797D02*
X02653D01*
X02764D02*
X02834Y01086D01*
X0137Y01156D02*
X01797D01*
G54D28*
X01618Y03161D02*
Y032D01*
Y03161D02*
X01759Y03019D01*
Y02706D02*
Y03019D01*
X01425Y03145D02*
X01618Y02952D01*
Y02856D02*
Y02952D01*
X01584Y02822D02*
X01618Y02856D01*
X01641Y02803D02*
Y0296D01*
X0162Y02781D02*
X01641Y02803D01*
X01584Y02781D02*
X0162D01*
X01425Y03145D02*
Y0386D01*
X01448Y03153D02*
X01641Y0296D01*
X01448Y03153D02*
Y03755D01*
X01665Y02779D02*
Y02972D01*
X01472Y03165D02*
X01665Y02972D01*
X01472Y03165D02*
Y03657D01*
X01736Y02724D02*
Y03007D01*
X01553Y0319D02*
X01736Y03007D01*
X01553Y0319D02*
Y03372D01*
X01712Y02744D02*
Y02996D01*
X01519Y03188D02*
X01712Y02996D01*
X01519Y03188D02*
Y0346D01*
X01554Y03495*
X01472Y03657D02*
X01554Y03739D01*
X01448Y03755D02*
X01554Y03861D01*
X01425Y0386D02*
X01553Y03988D01*
X01496Y03559D02*
X01553Y03616D01*
X01496Y03177D02*
Y03559D01*
Y03177D02*
X01688Y02984D01*
Y02765D02*
Y02984D01*
X01625Y02572D02*
X01759Y02706D01*
X01625Y02614D02*
X01736Y02724D01*
X01625Y02657D02*
X01712Y02744D01*
X01622Y02698D02*
X01688Y02765D01*
X01625Y0274D02*
X01665Y02779D01*
X01584Y02572D02*
X01625D01*
X01584Y02614D02*
X01625D01*
X01584Y02657D02*
X01625D01*
X01584Y02698D02*
X01622D01*
X01584Y0274D02*
X01625D01*
G54D30*
X04406Y04735D03*
Y04935D03*
X04409Y04058D03*
Y04258D03*
G54D31*
X04406Y04535D03*
X04409Y03858D03*
G54D32*
X02775Y01748D03*
X02775Y01452D03*
X00106Y05472D03*
Y05551D03*
X00098Y01724D03*
G54D33*
X02775Y01826D03*
Y01531D03*
X00106Y05629D03*
X00098Y01803D03*
G54D34*
X03232Y04428D03*
Y04562D03*
X03762Y04428D03*
Y04562D03*
X03232Y04084D03*
Y04218D03*
X03762Y04084D03*
Y04218D03*
X03232Y03738D03*
Y03872D03*
X03762Y03738D03*
Y03872D03*
X0374Y0124D03*
Y01106D03*
X0321Y0124D03*
Y01106D03*
X0374Y01621D03*
Y01487D03*
X0321Y01621D03*
Y01487D03*
X0374Y02383D03*
Y02249D03*
X0321Y02383D03*
Y02249D03*
X0374Y02765D03*
Y02631D03*
X0321Y02765D03*
Y02631D03*
X0374Y03146D03*
Y03012D03*
X0321Y03146D03*
Y03012D03*
Y03393D03*
Y03527D03*
X0374Y03393D03*
Y03527D03*
X0321Y01868D03*
Y02002D03*
X0374Y01868D03*
Y02002D03*
G54D35*
X04263Y03475D03*
G54D36*
X04263Y031D03*
Y02725D03*
Y0235D03*
Y01224D03*
Y01599D03*
Y01974D03*
G54D37*
X01407Y01248D03*
X01807D03*
X01607D03*
X01407Y00953D03*
X01807D03*
X01607D03*
X02407Y01248D03*
Y00953D03*
G54D38*
X02343Y0465D03*
X02643D03*
X02493D03*
Y0265D03*
G54D39*
X02193Y0465D03*
X02793D03*
G54D40*
X02793Y0265D03*
X02193D03*
G54D41*
X01566Y05952D03*
Y05552D03*
G54D42*
X02777Y02007D03*
X02677D03*
G54D43*
X02577Y02007D03*
G54D44*
X04519Y05275D03*
X04322D03*
X04125D03*
Y05551D03*
X04322D03*
X04519D03*
X04232Y05716D03*
X04035D03*
X03838D03*
Y05992D03*
X04035D03*
X04232D03*
X04Y05275D03*
X03803D03*
X03606D03*
Y05551D03*
X03803D03*
X04D03*
X03712Y05716D03*
X03515D03*
X03318D03*
Y05992D03*
X03515D03*
X03712D03*
X0348Y05275D03*
X03283D03*
X03086D03*
Y05551D03*
X03283D03*
X0348D03*
X03192Y05716D03*
X02996D03*
X02799D03*
Y05992D03*
X02996D03*
X03192D03*
X0296Y05275D03*
X02763D03*
X02566D03*
Y05551D03*
X02763D03*
X0296D03*
X02673Y05716D03*
X02476D03*
X02279D03*
Y05992D03*
X02476D03*
X02673D03*
X0244Y05275D03*
X02244D03*
X02047D03*
Y05551D03*
X02244D03*
X0244D03*
X02153Y05716D03*
X01956D03*
X01759D03*
Y05992D03*
X01956D03*
X02153D03*
G54D45*
X00749Y03898D03*
X00237Y03398D03*
X00748Y05035D03*
X00236Y04535D03*
X01134Y01437D03*
X00622Y00937D03*
X00748Y02755D03*
X00236Y02255D03*
G54D46*
X01767Y04736D03*
Y04637D03*
Y04834D03*
Y04933D03*
Y05031D03*
Y05129D03*
X01868Y03517D03*
Y03418D03*
Y03615D03*
Y03714D03*
Y03812D03*
Y03911D03*
G54D47*
X01767Y04539D03*
X01868Y0332D03*
G54D48*
X04484Y05905D03*
Y00787D03*
X00196D03*
Y05905D03*
G54D49*
X02602Y01881D03*
X01334Y01464D03*
X00161Y01562D03*
X02472Y01437D03*
X01334Y0248D03*
X01897Y02118D03*
X01531Y02029D03*
X01496Y01763D03*
X01704Y01716D03*
X01381Y01818D03*
X02137Y02307D03*
X00985Y03674D03*
X00842Y04539D03*
X00763D03*
X00685D03*
X00842Y04381D03*
X00763D03*
X00685D03*
Y04618D03*
X00842D03*
X00527Y04539D03*
X00606D03*
Y04381D03*
X00527Y04303D03*
Y04618D03*
X00763Y0446D03*
X00842Y04303D03*
X00763D03*
X00606Y04618D03*
Y0446D03*
X00527Y04381D03*
X00606Y04303D03*
X00685D03*
X00842Y0446D03*
X00527D03*
X00763Y04618D03*
X00685Y0446D03*
X00889Y03295D03*
X00732Y03216D03*
Y03295D03*
X00574Y03216D03*
Y03295D03*
X00653D03*
Y03216D03*
X00889D03*
X00811D03*
Y03295D03*
X00929Y03015D03*
X02866Y02145D03*
Y02413D03*
Y02358D03*
X02078Y01952D03*
X01377Y0159D03*
X02866Y022D03*
X01681Y02011D03*
X00889Y03531D03*
Y03452D03*
Y03374D03*
X00574D03*
X00653D03*
X00732D03*
X00811D03*
X00732Y03452D03*
X00811D03*
X00732Y03531D03*
X00811D03*
X00574Y03452D03*
X00653D03*
Y03531D03*
X00574D03*
X01622Y0207D03*
X03429Y05062D03*
X03507D03*
X03665D03*
X03586D03*
X03271D03*
X0335D03*
X03192D03*
X03114D03*
X01377Y01696D03*
X02543Y01791D03*
X01586Y0146D03*
X02598Y01649D03*
X02153Y01933D03*
X0209Y0174D03*
X02279Y0137D03*
X0246Y01637D03*
X02208Y01759D03*
X01704Y01767D03*
X01877D03*
G54D50*
X01409Y02665D03*
X01618Y032D03*
X01584Y02822D03*
X01905Y04114D03*
X01826D03*
X01748D03*
X01669D03*
X0159D03*
X01553Y03372D03*
X01554Y03495D03*
X01553Y03616D03*
X01554Y03739D03*
Y03861D03*
X01553Y03988D03*
X01584Y0274D03*
Y02781D03*
Y02698D03*
Y02657D03*
Y02614D03*
Y02572D03*
G54D51*
X00882Y03013D03*
X00832D03*
X00782D03*
X00682D03*
X00632D03*
X00582D03*
G54D52*
X00732Y03374D03*
G54D53*
X01045Y0461D03*
Y0456D03*
Y0451D03*
Y0441D03*
Y0436D03*
Y0431D03*
G54D54*
X00685Y0446D03*
G54D55*
X01405Y01043D02*
X01407Y01042D01*
M02*