%FSTAX23Y23*%
%MOIN*%
%SFA1B1*%

%IPPOS*%
%ADD94C,0.005000*%
%LNpms_board_drillmap_1-1*%
%LPD*%
G36*
X03805Y02631D02*
X03675D01*
Y02765*
X03805*
Y02631*
G37*
G36*
X03275D02*
X03145D01*
Y02765*
X03275*
Y02631*
G37*
G36*
X03805Y02249D02*
X03675D01*
Y02383*
X03805*
Y02249*
G37*
G36*
X03275D02*
X03145D01*
Y02383*
X03275*
Y02249*
G37*
G36*
X03805Y01868D02*
X03675D01*
Y02002*
X03805*
Y01868*
G37*
G36*
X03275D02*
X03145D01*
Y02002*
X03275*
Y01868*
G37*
G36*
X03805Y01487D02*
X03675D01*
Y01621*
X03805*
Y01487*
G37*
G36*
X03275D02*
X03145D01*
Y01621*
X03275*
Y01487*
G37*
G36*
X03805Y01106D02*
X03675D01*
Y0124*
X03805*
Y01106*
G37*
G36*
X03275D02*
X03145D01*
Y0124*
X03275*
Y01106*
G37*
G36*
X03827Y04428D02*
X03697D01*
Y04562*
X03827*
Y04428*
G37*
G36*
X03297D02*
X03167D01*
Y04562*
X03297*
Y04428*
G37*
G36*
X03827Y04084D02*
X03697D01*
Y04218*
X03827*
Y04084*
G37*
G36*
X03297D02*
X03167D01*
Y04218*
X03297*
Y04084*
G37*
G36*
X03827Y03738D02*
X03697D01*
Y03872*
X03827*
Y03738*
G37*
G36*
X03297D02*
X03167D01*
Y03872*
X03297*
Y03738*
G37*
G36*
X03805Y03393D02*
X03675D01*
Y03527*
X03805*
Y03393*
G37*
G36*
X03275D02*
X03145D01*
Y03527*
X03275*
Y03393*
G37*
G36*
X03805Y03012D02*
X03675D01*
Y03146*
X03805*
Y03012*
G37*
G36*
X03275D02*
X03145D01*
Y03146*
X03275*
Y03012*
G37*
G54D94*
X04381Y04735D02*
X04431D01*
X04406Y0471D02*
Y0476D01*
X04381Y04535D02*
X04431D01*
X04406Y0451D02*
Y0456D01*
X04381Y04935D02*
X04431D01*
X04406Y0491D02*
Y0496D01*
X04384Y04058D02*
X04434D01*
X04409Y04033D02*
Y04083D01*
X04384Y03858D02*
X04434D01*
X04409Y03833D02*
Y03883D01*
X04384Y04258D02*
X04434D01*
X04409Y04233D02*
Y04283D01*
X0276Y01748D02*
X0279D01*
X02775Y01733D02*
Y01763D01*
X0276Y01826D02*
X0279D01*
X02775Y01811D02*
Y01841D01*
X03199Y04428D02*
X03264D01*
X03232Y04396D02*
Y04461D01*
X03199Y04562D02*
X03264D01*
X03232Y0453D02*
Y04595D01*
X03729Y04428D02*
X03794D01*
X03762Y04396D02*
Y04461D01*
X03729Y04562D02*
X03794D01*
X03762Y0453D02*
Y04595D01*
X03199Y04084D02*
X03264D01*
X03232Y04052D02*
Y04117D01*
X03199Y04218D02*
X03264D01*
X03232Y04186D02*
Y04251D01*
X03729Y04084D02*
X03794D01*
X03762Y04052D02*
Y04117D01*
X03729Y04218D02*
X03794D01*
X03762Y04186D02*
Y04251D01*
X03199Y03738D02*
X03264D01*
X03232Y03706D02*
Y03771D01*
X03199Y03872D02*
X03264D01*
X03232Y0384D02*
Y03905D01*
X03729Y03738D02*
X03794D01*
X03762Y03706D02*
Y03771D01*
X03729Y03872D02*
X03794D01*
X03762Y0384D02*
Y03905D01*
X0276Y01452D02*
X0279D01*
X02775Y01437D02*
Y01467D01*
X0276Y01531D02*
X0279D01*
X02775Y01516D02*
Y01546D01*
X03707Y0124D02*
X03772D01*
X0374Y01207D02*
Y01272D01*
X03707Y01106D02*
X03772D01*
X0374Y01073D02*
Y01138D01*
X03177Y0124D02*
X03242D01*
X0321Y01207D02*
Y01272D01*
X03177Y01106D02*
X03242D01*
X0321Y01073D02*
Y01138D01*
X03707Y01621D02*
X03772D01*
X0374Y01589D02*
Y01654D01*
X03707Y01487D02*
X03772D01*
X0374Y01455D02*
Y0152D01*
X03177Y01621D02*
X03242D01*
X0321Y01589D02*
Y01654D01*
X03177Y01487D02*
X03242D01*
X0321Y01455D02*
Y0152D01*
X03707Y02383D02*
X03772D01*
X0374Y02351D02*
Y02416D01*
X03707Y02249D02*
X03772D01*
X0374Y02217D02*
Y02282D01*
X03177Y02383D02*
X03242D01*
X0321Y02351D02*
Y02416D01*
X03177Y02249D02*
X03242D01*
X0321Y02217D02*
Y02282D01*
X03707Y02765D02*
X03772D01*
X0374Y02732D02*
Y02797D01*
X03707Y02631D02*
X03772D01*
X0374Y02598D02*
Y02663D01*
X03177Y02765D02*
X03242D01*
X0321Y02732D02*
Y02797D01*
X03177Y02631D02*
X03242D01*
X0321Y02598D02*
Y02663D01*
X03707Y03146D02*
X03772D01*
X0374Y03113D02*
Y03178D01*
X03707Y03012D02*
X03772D01*
X0374Y02979D02*
Y03044D01*
X03177Y03146D02*
X03242D01*
X0321Y03113D02*
Y03178D01*
X03177Y03012D02*
X03242D01*
X0321Y02979D02*
Y03044D01*
X04222Y03475D02*
X04305D01*
X04263Y03434D02*
Y03516D01*
X04222Y031D02*
X04305D01*
X04263Y03059D02*
Y03141D01*
X04222Y02725D02*
X04305D01*
X04263Y02683D02*
Y02766D01*
X04222Y0235D02*
X04305D01*
X04263Y02308D02*
Y02391D01*
X04222Y01224D02*
X04305D01*
X04263Y01183D02*
Y01265D01*
X04222Y01599D02*
X04305D01*
X04263Y01558D02*
Y0164D01*
X04222Y01974D02*
X04305D01*
X04263Y01933D02*
Y02016D01*
X03177Y03393D02*
X03242D01*
X0321Y03361D02*
Y03426D01*
X03177Y03527D02*
X03242D01*
X0321Y03495D02*
Y0356D01*
X03707Y03393D02*
X03772D01*
X0374Y03361D02*
Y03426D01*
X03707Y03527D02*
X03772D01*
X0374Y03495D02*
Y0356D01*
X01381Y01248D02*
X01432D01*
X01407Y01222D02*
Y01273D01*
X01781Y01248D02*
X01832D01*
X01807Y01222D02*
Y01273D01*
X01581Y01248D02*
X01632D01*
X01607Y01222D02*
Y01273D01*
X01381Y00953D02*
X01432D01*
X01407Y00927D02*
Y00978D01*
X01781Y00953D02*
X01832D01*
X01807Y00927D02*
Y00978D01*
X01581Y00953D02*
X01632D01*
X01607Y00927D02*
Y00978D01*
X02381Y01248D02*
X02432D01*
X02407Y01222D02*
Y01273D01*
X02381Y00953D02*
X02432D01*
X02407Y00927D02*
Y00978D01*
X02318Y0465D02*
X02367D01*
X02343Y04626D02*
Y04675D01*
X02618Y0465D02*
X02667D01*
X02643Y04626D02*
Y04675D01*
X02155Y0465D02*
X0223D01*
X02193Y04613D02*
Y04688D01*
X02468Y0465D02*
X02517D01*
X02493Y04626D02*
Y04675D01*
X02755Y0465D02*
X0283D01*
X02793Y04613D02*
Y04688D01*
X02768Y0265D02*
X02817D01*
X02793Y02626D02*
Y02675D01*
X02468Y0265D02*
X02517D01*
X02493Y02626D02*
Y02675D01*
X02168Y0265D02*
X02217D01*
X02193Y02626D02*
Y02675D01*
X00679Y05752D02*
X00824D01*
X00751Y05679D02*
Y05825D01*
X01532Y05952D02*
X01601D01*
X01566Y05918D02*
Y05987D01*
X01532Y05552D02*
X01601D01*
X01566Y05518D02*
Y05587D01*
X02757Y02007D02*
X02797D01*
X02777Y01987D02*
Y02027D01*
X02557Y02007D02*
X02597D01*
X02577Y01987D02*
Y02027D01*
X02657Y02007D02*
X02697D01*
X02677Y01987D02*
Y02027D01*
X04481Y05275D02*
X04557D01*
X04519Y05237D02*
Y05313D01*
X04284Y05275D02*
X0436D01*
X04322Y05237D02*
Y05313D01*
X04087Y05275D02*
X04163D01*
X04125Y05237D02*
Y05313D01*
X04087Y05551D02*
X04163D01*
X04125Y05513D02*
Y05589D01*
X04284Y05551D02*
X0436D01*
X04322Y05513D02*
Y05589D01*
X04481Y05551D02*
X04557D01*
X04519Y05513D02*
Y05589D01*
X04194Y05716D02*
X0427D01*
X04232Y05678D02*
Y05754D01*
X03997Y05716D02*
X04073D01*
X04035Y05678D02*
Y05754D01*
X038Y05716D02*
X03876D01*
X03838Y05678D02*
Y05754D01*
X038Y05992D02*
X03876D01*
X03838Y05954D02*
Y0603D01*
X03997Y05992D02*
X04073D01*
X04035Y05954D02*
Y0603D01*
X04194Y05992D02*
X0427D01*
X04232Y05954D02*
Y0603D01*
X03962Y05275D02*
X04037D01*
X04Y05237D02*
Y05313D01*
X03765Y05275D02*
X03841D01*
X03803Y05237D02*
Y05313D01*
X03568Y05275D02*
X03644D01*
X03606Y05237D02*
Y05313D01*
X03568Y05551D02*
X03644D01*
X03606Y05513D02*
Y05589D01*
X03765Y05551D02*
X03841D01*
X03803Y05513D02*
Y05589D01*
X03962Y05551D02*
X04037D01*
X04Y05513D02*
Y05589D01*
X03674Y05716D02*
X0375D01*
X03712Y05678D02*
Y05754D01*
X03477Y05716D02*
X03553D01*
X03515Y05678D02*
Y05754D01*
X0328Y05716D02*
X03356D01*
X03318Y05678D02*
Y05754D01*
X0328Y05992D02*
X03356D01*
X03318Y05954D02*
Y0603D01*
X03477Y05992D02*
X03553D01*
X03515Y05954D02*
Y0603D01*
X03674Y05992D02*
X0375D01*
X03712Y05954D02*
Y0603D01*
X03442Y05275D02*
X03518D01*
X0348Y05237D02*
Y05313D01*
X03245Y05275D02*
X03321D01*
X03283Y05237D02*
Y05313D01*
X03048Y05275D02*
X03124D01*
X03086Y05237D02*
Y05313D01*
X03048Y05551D02*
X03124D01*
X03086Y05513D02*
Y05589D01*
X03245Y05551D02*
X03321D01*
X03283Y05513D02*
Y05589D01*
X03442Y05551D02*
X03518D01*
X0348Y05513D02*
Y05589D01*
X03154Y05716D02*
X0323D01*
X03192Y05678D02*
Y05754D01*
X02958Y05716D02*
X03034D01*
X02996Y05678D02*
Y05754D01*
X02761Y05716D02*
X02837D01*
X02799Y05678D02*
Y05754D01*
X02761Y05992D02*
X02837D01*
X02799Y05954D02*
Y0603D01*
X02958Y05992D02*
X03034D01*
X02996Y05954D02*
Y0603D01*
X03154Y05992D02*
X0323D01*
X03192Y05954D02*
Y0603D01*
X02922Y05275D02*
X02998D01*
X0296Y05237D02*
Y05313D01*
X02725Y05275D02*
X02801D01*
X02763Y05237D02*
Y05313D01*
X02528Y05275D02*
X02604D01*
X02566Y05237D02*
Y05313D01*
X02528Y05551D02*
X02604D01*
X02566Y05513D02*
Y05589D01*
X02725Y05551D02*
X02801D01*
X02763Y05513D02*
Y05589D01*
X02922Y05551D02*
X02998D01*
X0296Y05513D02*
Y05589D01*
X02635Y05716D02*
X02711D01*
X02673Y05678D02*
Y05754D01*
X02438Y05716D02*
X02514D01*
X02476Y05678D02*
Y05754D01*
X02241Y05716D02*
X02317D01*
X02279Y05678D02*
Y05754D01*
X02241Y05992D02*
X02317D01*
X02279Y05954D02*
Y0603D01*
X02438Y05992D02*
X02514D01*
X02476Y05954D02*
Y0603D01*
X02635Y05992D02*
X02711D01*
X02673Y05954D02*
Y0603D01*
X02402Y05275D02*
X02478D01*
X0244Y05237D02*
Y05313D01*
X02206Y05275D02*
X02282D01*
X02244Y05237D02*
Y05313D01*
X02009Y05275D02*
X02085D01*
X02047Y05237D02*
Y05313D01*
X02009Y05551D02*
X02085D01*
X02047Y05513D02*
Y05589D01*
X02206Y05551D02*
X02282D01*
X02244Y05513D02*
Y05589D01*
X02402Y05551D02*
X02478D01*
X0244Y05513D02*
Y05589D01*
X02115Y05716D02*
X02191D01*
X02153Y05678D02*
Y05754D01*
X01918Y05716D02*
X01994D01*
X01956Y05678D02*
Y05754D01*
X01721Y05716D02*
X01797D01*
X01759Y05678D02*
Y05754D01*
X01721Y05992D02*
X01797D01*
X01759Y05954D02*
Y0603D01*
X01918Y05992D02*
X01994D01*
X01956Y05954D02*
Y0603D01*
X02115Y05992D02*
X02191D01*
X02153Y05954D02*
Y0603D01*
X03177Y01868D02*
X03242D01*
X0321Y01836D02*
Y01901D01*
X03177Y02002D02*
X03242D01*
X0321Y0197D02*
Y02035D01*
X03707Y01868D02*
X03772D01*
X0374Y01836D02*
Y01901D01*
X03707Y02002D02*
X03772D01*
X0374Y0197D02*
Y02035D01*
X00091Y05472D02*
X00121D01*
X00106Y05457D02*
Y05487D01*
X00091Y05551D02*
X00121D01*
X00106Y05536D02*
Y05566D01*
X00091Y05629D02*
X00121D01*
X00106Y05614D02*
Y05644D01*
X00671Y03898D02*
X00827D01*
X00749Y0382D02*
Y03976D01*
X00159Y03398D02*
X00315D01*
X00237Y0332D02*
Y03476D01*
X00083Y01803D02*
X00113D01*
X00098Y01788D02*
Y01818D01*
X00083Y01724D02*
X00113D01*
X00098Y01709D02*
Y01739D01*
X0067Y05035D02*
X00825D01*
X00748Y04957D02*
Y05113D01*
X00158Y04535D02*
X00313D01*
X00236Y04457D02*
Y04613D01*
X01056Y01437D02*
X01212D01*
X01134Y01359D02*
Y01514D01*
X00544Y00937D02*
X007D01*
X00622Y00859D02*
Y01014D01*
X0067Y02755D02*
X00825D01*
X00748Y02677D02*
Y02833D01*
X00158Y02255D02*
X00313D01*
X00236Y02177D02*
Y02333D01*
X01747Y04736D02*
X01788D01*
X01767Y04715D02*
Y04756D01*
X01747Y04637D02*
X01788D01*
X01767Y04617D02*
Y04658D01*
X01747Y04539D02*
X01788D01*
X01767Y04518D02*
Y0456D01*
X01747Y04834D02*
X01788D01*
X01767Y04813D02*
Y04855D01*
X01747Y04933D02*
X01788D01*
X01767Y04912D02*
Y04953D01*
X01747Y05031D02*
X01788D01*
X01767Y0501D02*
Y05052D01*
X01747Y05129D02*
X01788D01*
X01767Y05109D02*
Y0515D01*
X01847Y03517D02*
X01888D01*
X01868Y03496D02*
Y03537D01*
X01847Y03418D02*
X01888D01*
X01868Y03398D02*
Y03439D01*
X01847Y0332D02*
X01888D01*
X01868Y03299D02*
Y03341D01*
X01847Y03615D02*
X01888D01*
X01868Y03595D02*
Y03636D01*
X01847Y03714D02*
X01888D01*
X01868Y03693D02*
Y03734D01*
X01847Y03812D02*
X01888D01*
X01868Y03791D02*
Y03833D01*
X01847Y03911D02*
X01888D01*
X01868Y0389D02*
Y03931D01*
X04402Y05905D02*
X04566D01*
X04484Y05823D02*
Y05987D01*
X04402Y00787D02*
X04566D01*
X04484Y00705D02*
Y00869D01*
X00114Y00787D02*
X00278D01*
X00196Y00705D02*
Y00869D01*
X00114Y05905D02*
X00278D01*
X00196Y05823D02*
Y05987D01*
X02592Y01881D02*
X02612D01*
X02602Y01872D02*
Y01891D01*
X01324Y01464D02*
X01344D01*
X01334Y01454D02*
Y01474D01*
X00151Y01562D02*
X00171D01*
X00161Y01553D02*
Y01572D01*
X02462Y01437D02*
X02482D01*
X02472Y01427D02*
Y01446D01*
X01324Y0248D02*
X01344D01*
X01334Y0247D02*
Y0249D01*
X01887Y02118D02*
X01907D01*
X01897Y02108D02*
Y02127D01*
X01521Y02029D02*
X01541D01*
X01531Y02019D02*
Y02039D01*
X01486Y01763D02*
X01505D01*
X01496Y01753D02*
Y01773D01*
X01694Y01716D02*
X01714D01*
X01704Y01706D02*
Y01726D01*
X01372Y01818D02*
X01391D01*
X01381Y01809D02*
Y01828D01*
X02127Y02307D02*
X02147D01*
X02137Y02297D02*
Y02316D01*
X00975Y03674D02*
X00995D01*
X00985Y03664D02*
Y03684D01*
X01401Y02665D02*
X01417D01*
X01409Y02657D02*
Y02673D01*
X00832Y04539D02*
X00852D01*
X00842Y04529D02*
Y04549D01*
X00753Y04539D02*
X00773D01*
X00763Y04529D02*
Y04549D01*
X00675Y04539D02*
X00694D01*
X00685Y04529D02*
Y04549D01*
X00832Y04381D02*
X00852D01*
X00842Y04372D02*
Y04391D01*
X00753Y04381D02*
X00773D01*
X00763Y04372D02*
Y04391D01*
X00675Y04381D02*
X00694D01*
X00685Y04372D02*
Y04391D01*
X00675Y04618D02*
X00694D01*
X00685Y04608D02*
Y04627D01*
X00832Y04618D02*
X00852D01*
X00842Y04608D02*
Y04627D01*
X00517Y04539D02*
X00537D01*
X00527Y04529D02*
Y04549D01*
X00596Y04539D02*
X00616D01*
X00606Y04529D02*
Y04549D01*
X00596Y04381D02*
X00616D01*
X00606Y04372D02*
Y04391D01*
X00517Y04303D02*
X00537D01*
X00527Y04293D02*
Y04312D01*
X00517Y04618D02*
X00537D01*
X00527Y04608D02*
Y04627D01*
X00753Y0446D02*
X00773D01*
X00763Y0445D02*
Y0447D01*
X00832Y04303D02*
X00852D01*
X00842Y04293D02*
Y04312D01*
X00753Y04303D02*
X00773D01*
X00763Y04293D02*
Y04312D01*
X00596Y04618D02*
X00616D01*
X00606Y04608D02*
Y04627D01*
X00596Y0446D02*
X00616D01*
X00606Y0445D02*
Y0447D01*
X00517Y04381D02*
X00537D01*
X00527Y04372D02*
Y04391D01*
X00596Y04303D02*
X00616D01*
X00606Y04293D02*
Y04312D01*
X00675Y04303D02*
X00694D01*
X00685Y04293D02*
Y04312D01*
X00832Y0446D02*
X00852D01*
X00842Y0445D02*
Y0447D01*
X00517Y0446D02*
X00537D01*
X00527Y0445D02*
Y0447D01*
X00753Y04618D02*
X00773D01*
X00763Y04608D02*
Y04627D01*
X00675Y0446D02*
X00694D01*
X00685Y0445D02*
Y0447D01*
X00879Y03295D02*
X00899D01*
X00889Y03285D02*
Y03305D01*
X00722Y03216D02*
X00742D01*
X00732Y03206D02*
Y03226D01*
X00722Y03295D02*
X00742D01*
X00732Y03285D02*
Y03305D01*
X00564Y03216D02*
X00584D01*
X00574Y03206D02*
Y03226D01*
X00564Y03295D02*
X00584D01*
X00574Y03285D02*
Y03305D01*
X00643Y03295D02*
X00663D01*
X00653Y03285D02*
Y03305D01*
X00643Y03216D02*
X00663D01*
X00653Y03206D02*
Y03226D01*
X00879Y03216D02*
X00899D01*
X00889Y03206D02*
Y03226D01*
X00801Y03216D02*
X0082D01*
X00811Y03206D02*
Y03226D01*
X00801Y03295D02*
X0082D01*
X00811Y03285D02*
Y03305D01*
X00919Y03015D02*
X00938D01*
X00929Y03005D02*
Y03025D01*
X02856Y02145D02*
X02875D01*
X02866Y02135D02*
Y02155D01*
X02856Y02413D02*
X02875D01*
X02866Y02403D02*
Y02423D01*
X02856Y02358D02*
X02875D01*
X02866Y02348D02*
Y02368D01*
X02068Y01952D02*
X02088D01*
X02078Y01942D02*
Y01962D01*
X0161Y032D02*
X01625D01*
X01618Y03192D02*
Y03208D01*
X01368Y0159D02*
X01387D01*
X01377Y0158D02*
Y016D01*
X01576Y02822D02*
X01592D01*
X01584Y02814D02*
Y0283D01*
X02856Y022D02*
X02875D01*
X02866Y0219D02*
Y0221D01*
X01671Y02011D02*
X0169D01*
X01681Y02001D02*
Y02021D01*
X00879Y03531D02*
X00899D01*
X00889Y03521D02*
Y03541D01*
X00879Y03452D02*
X00899D01*
X00889Y03442D02*
Y03462D01*
X00879Y03374D02*
X00899D01*
X00889Y03364D02*
Y03383D01*
X00564Y03374D02*
X00584D01*
X00574Y03364D02*
Y03383D01*
X00643Y03374D02*
X00663D01*
X00653Y03364D02*
Y03383D01*
X00722Y03374D02*
X00742D01*
X00732Y03364D02*
Y03383D01*
X00801Y03374D02*
X0082D01*
X00811Y03364D02*
Y03383D01*
X00722Y03452D02*
X00742D01*
X00732Y03442D02*
Y03462D01*
X00801Y03452D02*
X0082D01*
X00811Y03442D02*
Y03462D01*
X00722Y03531D02*
X00742D01*
X00732Y03521D02*
Y03541D01*
X00801Y03531D02*
X0082D01*
X00811Y03521D02*
Y03541D01*
X00564Y03452D02*
X00584D01*
X00574Y03442D02*
Y03462D01*
X00643Y03452D02*
X00663D01*
X00653Y03442D02*
Y03462D01*
X00643Y03531D02*
X00663D01*
X00653Y03521D02*
Y03541D01*
X00564Y03531D02*
X00584D01*
X00574Y03521D02*
Y03541D01*
X01612Y0207D02*
X01631D01*
X01622Y02061D02*
Y0208D01*
X03419Y05062D02*
X03438D01*
X03429Y05053D02*
Y05072D01*
X03498Y05062D02*
X03517D01*
X03507Y05053D02*
Y05072D01*
X03655Y05062D02*
X03675D01*
X03665Y05053D02*
Y05072D01*
X03576Y05062D02*
X03596D01*
X03586Y05053D02*
Y05072D01*
X03261Y05062D02*
X03281D01*
X03271Y05053D02*
Y05072D01*
X0334Y05062D02*
X0336D01*
X0335Y05053D02*
Y05072D01*
X03183Y05062D02*
X03202D01*
X03192Y05053D02*
Y05072D01*
X03104Y05062D02*
X03124D01*
X03114Y05053D02*
Y05072D01*
X01897Y04114D02*
X01913D01*
X01905Y04106D02*
Y04122D01*
X01818Y04114D02*
X01834D01*
X01826Y04106D02*
Y04122D01*
X0174Y04114D02*
X01755D01*
X01748Y04106D02*
Y04122D01*
X01661Y04114D02*
X01677D01*
X01669Y04106D02*
Y04122D01*
X01582Y04114D02*
X01598D01*
X0159Y04106D02*
Y04122D01*
X01545Y03372D02*
X01561D01*
X01553Y03364D02*
Y03379D01*
X01546Y03495D02*
X01562D01*
X01554Y03487D02*
Y03502D01*
X01545Y03616D02*
X01561D01*
X01553Y03608D02*
Y03624D01*
X01546Y03739D02*
X01562D01*
X01554Y03731D02*
Y03747D01*
X01546Y03861D02*
X01562D01*
X01554Y03853D02*
Y03869D01*
X01545Y03988D02*
X01561D01*
X01553Y0398D02*
Y03996D01*
X01576Y0274D02*
X01592D01*
X01584Y02732D02*
Y02748D01*
X01576Y02781D02*
X01592D01*
X01584Y02773D02*
Y02789D01*
X01576Y02698D02*
X01592D01*
X01584Y0269D02*
Y02706D01*
X01576Y02657D02*
X01592D01*
X01584Y02649D02*
Y02665D01*
X01576Y02614D02*
X01592D01*
X01584Y02606D02*
Y02622D01*
X01576Y02572D02*
X01592D01*
X01584Y02564D02*
Y0258D01*
X01368Y01696D02*
X01387D01*
X01377Y01687D02*
Y01706D01*
X02533Y01791D02*
X02553D01*
X02543Y01781D02*
Y01801D01*
X01576Y0146D02*
X01596D01*
X01586Y0145D02*
Y0147D01*
X02588Y01649D02*
X02608D01*
X02598Y01639D02*
Y01659D01*
X02143Y01933D02*
X02163D01*
X02153Y01923D02*
Y01942D01*
X0208Y0174D02*
X021D01*
X0209Y0173D02*
Y0175D01*
X02269Y0137D02*
X02289D01*
X02279Y0136D02*
Y01379D01*
X0245Y01637D02*
X0247D01*
X0246Y01627D02*
Y01647D01*
X02198Y01759D02*
X02218D01*
X02208Y0175D02*
Y01769D01*
X01694Y01767D02*
X01714D01*
X01704Y01757D02*
Y01777D01*
X01868Y01767D02*
X01887D01*
X01877Y01757D02*
Y01777D01*
M02*